G75*
%MOIN*%
%OFA0B0*%
%FSLAX25Y25*%
%IPPOS*%
%LPD*%
%AMOC8*
5,1,8,0,0,1.08239X$1,22.5*
%
%ADD10R,0.00600X0.01200*%
%ADD11R,0.01600X0.03200*%
%ADD12R,0.05118X0.06299*%
%ADD13C,0.00600*%
%ADD14C,0.02978*%
%ADD15C,0.04000*%
%ADD16C,0.01200*%
D10*
X0038438Y0050958D03*
X0038709Y0050958D03*
X0038709Y0052051D03*
X0038438Y0052050D03*
X0038438Y0053223D03*
X0038709Y0053223D03*
X0040012Y0053223D03*
X0040283Y0053223D03*
X0040284Y0052051D03*
X0040013Y0052050D03*
X0040013Y0050958D03*
X0040284Y0050958D03*
X0041588Y0050958D03*
X0041859Y0050958D03*
X0041859Y0052051D03*
X0041587Y0052050D03*
X0041587Y0053223D03*
X0041858Y0053223D03*
X0043162Y0053223D03*
X0043433Y0053223D03*
X0043433Y0052051D03*
X0043162Y0052050D03*
X0043163Y0050958D03*
X0043434Y0050958D03*
X0044738Y0050958D03*
X0045009Y0050958D03*
X0045008Y0052051D03*
X0044737Y0052050D03*
X0044737Y0053223D03*
X0045008Y0053223D03*
X0046312Y0053223D03*
X0046583Y0053223D03*
X0046583Y0052051D03*
X0046312Y0052050D03*
X0046312Y0050958D03*
X0046584Y0050958D03*
X0047887Y0050958D03*
X0048158Y0050958D03*
X0048158Y0052051D03*
X0047887Y0052050D03*
X0047886Y0053223D03*
X0048157Y0053223D03*
X0049461Y0053223D03*
X0049732Y0053223D03*
X0049733Y0052051D03*
X0049461Y0052050D03*
X0049462Y0050958D03*
X0049733Y0050958D03*
X0051037Y0050958D03*
X0051308Y0050958D03*
X0051307Y0052051D03*
X0051036Y0052050D03*
X0051036Y0053223D03*
X0051307Y0053223D03*
X0052611Y0053223D03*
X0052882Y0053223D03*
X0052882Y0052051D03*
X0052611Y0052050D03*
X0052612Y0050958D03*
X0052883Y0050958D03*
X0054186Y0050958D03*
X0054458Y0050958D03*
X0054457Y0052051D03*
X0054186Y0052050D03*
X0054186Y0053223D03*
X0054457Y0053223D03*
X0055760Y0053223D03*
X0056031Y0053223D03*
X0056032Y0052051D03*
X0055761Y0052050D03*
X0055761Y0050958D03*
X0056032Y0050958D03*
X0057336Y0050958D03*
X0057607Y0050958D03*
X0057607Y0052051D03*
X0057335Y0052050D03*
X0057335Y0053223D03*
X0057606Y0053223D03*
X0058910Y0053223D03*
X0059181Y0053223D03*
X0059181Y0052051D03*
X0058910Y0052050D03*
X0058911Y0050958D03*
X0059182Y0050958D03*
X0060486Y0050958D03*
X0060757Y0050958D03*
X0060756Y0052051D03*
X0060485Y0052050D03*
X0060485Y0053223D03*
X0060756Y0053223D03*
X0060734Y0064262D03*
X0060463Y0064262D03*
X0060462Y0065353D03*
X0060733Y0065354D03*
X0060733Y0066526D03*
X0060462Y0066526D03*
X0059158Y0066526D03*
X0058887Y0066526D03*
X0058887Y0065353D03*
X0059158Y0065354D03*
X0059159Y0064262D03*
X0058888Y0064262D03*
X0057584Y0064262D03*
X0057313Y0064262D03*
X0057313Y0065353D03*
X0057584Y0065354D03*
X0057583Y0066526D03*
X0057312Y0066526D03*
X0056009Y0066526D03*
X0055737Y0066526D03*
X0055738Y0065353D03*
X0056009Y0065354D03*
X0056009Y0064262D03*
X0055738Y0064262D03*
X0054435Y0064262D03*
X0054163Y0064262D03*
X0054163Y0065353D03*
X0054434Y0065354D03*
X0054434Y0066526D03*
X0054163Y0066526D03*
X0052859Y0066526D03*
X0052588Y0066526D03*
X0052588Y0065353D03*
X0052859Y0065354D03*
X0052860Y0064262D03*
X0052589Y0064262D03*
X0051285Y0064262D03*
X0051014Y0064262D03*
X0051013Y0065353D03*
X0051284Y0065354D03*
X0051284Y0066526D03*
X0051013Y0066526D03*
X0049709Y0066526D03*
X0049438Y0066526D03*
X0049439Y0065353D03*
X0049710Y0065354D03*
X0049710Y0064262D03*
X0049439Y0064262D03*
X0048135Y0064262D03*
X0047864Y0064262D03*
X0047864Y0065353D03*
X0048135Y0065354D03*
X0048135Y0066526D03*
X0047863Y0066526D03*
X0046560Y0066526D03*
X0046289Y0066526D03*
X0046289Y0065353D03*
X0046560Y0065354D03*
X0046561Y0064262D03*
X0046289Y0064262D03*
X0044986Y0064262D03*
X0044715Y0064262D03*
X0044714Y0065353D03*
X0044985Y0065354D03*
X0044985Y0066526D03*
X0044714Y0066526D03*
X0043410Y0066526D03*
X0043139Y0066526D03*
X0043139Y0065353D03*
X0043410Y0065354D03*
X0043411Y0064262D03*
X0043140Y0064262D03*
X0041836Y0064262D03*
X0041565Y0064262D03*
X0041565Y0065353D03*
X0041836Y0065354D03*
X0041835Y0066526D03*
X0041564Y0066526D03*
X0040261Y0066526D03*
X0039989Y0066526D03*
X0039990Y0065353D03*
X0040261Y0065354D03*
X0040261Y0064262D03*
X0039990Y0064262D03*
X0038687Y0064262D03*
X0038415Y0064262D03*
X0038415Y0065353D03*
X0038686Y0065354D03*
X0038686Y0066526D03*
X0038415Y0066526D03*
D11*
X0035887Y0065265D03*
X0035352Y0065265D03*
X0033765Y0065265D03*
X0033765Y0052274D03*
X0035352Y0052274D03*
X0035887Y0052274D03*
X0063320Y0052274D03*
X0064906Y0052274D03*
X0065442Y0052274D03*
X0065442Y0065265D03*
X0064906Y0065265D03*
X0063320Y0065265D03*
D12*
X0023515Y0028617D03*
X0015641Y0028617D03*
X0015641Y0016806D03*
X0023515Y0016806D03*
D13*
X0009681Y0009310D02*
X0009681Y0080926D01*
X0010066Y0081086D01*
X0011276Y0082295D01*
X0011931Y0083876D01*
X0011931Y0102836D01*
X0011276Y0104417D01*
X0010066Y0105626D01*
X0009781Y0105745D01*
X0009781Y0138181D01*
X0081181Y0138181D01*
X0093808Y0126411D01*
X0093808Y0009446D01*
X0089372Y0009439D01*
X0090069Y0010136D01*
X0090889Y0010956D01*
X0090889Y0017517D01*
X0091409Y0018037D01*
X0091803Y0018988D01*
X0091803Y0020018D01*
X0091409Y0020970D01*
X0090681Y0021698D01*
X0089729Y0022092D01*
X0088699Y0022092D01*
X0087748Y0021698D01*
X0087019Y0020970D01*
X0086625Y0020018D01*
X0086625Y0018988D01*
X0086704Y0018798D01*
X0086032Y0019076D01*
X0085002Y0019076D01*
X0084051Y0018682D01*
X0083323Y0017954D01*
X0082929Y0017002D01*
X0082929Y0015972D01*
X0083323Y0015020D01*
X0084051Y0014292D01*
X0084152Y0014250D01*
X0084152Y0013700D01*
X0060445Y0013682D01*
X0056563Y0017564D01*
X0056563Y0036537D01*
X0056777Y0036626D01*
X0057505Y0037354D01*
X0057899Y0038306D01*
X0057899Y0039336D01*
X0057505Y0040287D01*
X0056777Y0041016D01*
X0055825Y0041410D01*
X0054795Y0041410D01*
X0053844Y0041016D01*
X0053116Y0040287D01*
X0052722Y0039336D01*
X0052722Y0038306D01*
X0053116Y0037354D01*
X0053763Y0036707D01*
X0053763Y0017608D01*
X0053741Y0017586D01*
X0053741Y0016426D01*
X0053763Y0016404D01*
X0053763Y0016382D01*
X0054583Y0015562D01*
X0054605Y0015562D01*
X0058466Y0011702D01*
X0058466Y0011701D01*
X0058876Y0011291D01*
X0059286Y0010882D01*
X0059286Y0010882D01*
X0059287Y0010881D01*
X0059860Y0010882D01*
X0060446Y0010882D01*
X0086150Y0010901D01*
X0086969Y0011722D01*
X0086969Y0012881D01*
X0086952Y0012898D01*
X0086952Y0014279D01*
X0086984Y0014292D01*
X0087712Y0015020D01*
X0088089Y0015930D01*
X0088089Y0012116D01*
X0085768Y0009796D01*
X0081856Y0009796D01*
X0081847Y0009787D01*
X0056211Y0009787D01*
X0051519Y0014478D01*
X0051519Y0036844D01*
X0051531Y0036856D01*
X0051531Y0038015D01*
X0051519Y0038027D01*
X0051519Y0038100D01*
X0050699Y0038920D01*
X0049539Y0038920D01*
X0049454Y0038835D01*
X0037237Y0038835D01*
X0029402Y0046671D01*
X0029402Y0052691D01*
X0032663Y0056593D01*
X0041250Y0056593D01*
X0043827Y0059170D01*
X0043827Y0059170D01*
X0044647Y0059990D01*
X0044647Y0061680D01*
X0044639Y0061688D01*
X0044639Y0062562D01*
X0061489Y0062562D01*
X0061778Y0062850D01*
X0062064Y0062565D01*
X0066698Y0062565D01*
X0067342Y0063209D01*
X0067342Y0067320D01*
X0066698Y0067965D01*
X0062082Y0067965D01*
X0062082Y0077698D01*
X0065235Y0079950D01*
X0065678Y0079767D01*
X0066708Y0079767D01*
X0067660Y0080161D01*
X0068388Y0080889D01*
X0068782Y0081841D01*
X0068782Y0082871D01*
X0068388Y0083822D01*
X0067660Y0084551D01*
X0066708Y0084945D01*
X0065678Y0084945D01*
X0064727Y0084551D01*
X0063999Y0083822D01*
X0063604Y0082871D01*
X0063604Y0082227D01*
X0060233Y0079819D01*
X0060102Y0079819D01*
X0059774Y0079491D01*
X0059396Y0079221D01*
X0059374Y0079091D01*
X0059282Y0078999D01*
X0059282Y0078535D01*
X0059205Y0078077D01*
X0059282Y0077970D01*
X0059282Y0068226D01*
X0050931Y0068226D01*
X0050931Y0071786D01*
X0064498Y0085353D01*
X0064565Y0085325D01*
X0065595Y0085325D01*
X0066546Y0085719D01*
X0067274Y0086448D01*
X0067668Y0087399D01*
X0067668Y0088429D01*
X0067274Y0089381D01*
X0066546Y0090109D01*
X0065595Y0090503D01*
X0064565Y0090503D01*
X0063613Y0090109D01*
X0062885Y0089381D01*
X0062491Y0088429D01*
X0062491Y0087399D01*
X0062518Y0087333D01*
X0048131Y0072946D01*
X0048131Y0068226D01*
X0039949Y0068226D01*
X0039949Y0069238D01*
X0050323Y0079673D01*
X0050731Y0080081D01*
X0050731Y0080084D01*
X0050733Y0080085D01*
X0050731Y0080663D01*
X0050731Y0089934D01*
X0051867Y0090877D01*
X0052442Y0091968D01*
X0052556Y0093196D01*
X0052192Y0094374D01*
X0051404Y0095323D01*
X0050313Y0095898D01*
X0049085Y0096012D01*
X0047907Y0095647D01*
X0020984Y0073294D01*
X0020804Y0073219D01*
X0020363Y0072779D01*
X0020091Y0072553D01*
X0020040Y0072456D01*
X0015134Y0067550D01*
X0015063Y0067478D01*
X0014262Y0066678D01*
X0014262Y0066678D01*
X0013708Y0066124D01*
X0013708Y0066124D01*
X0012637Y0063537D01*
X0012637Y0032867D01*
X0012626Y0032867D01*
X0011982Y0032223D01*
X0011982Y0025012D01*
X0012626Y0024368D01*
X0018656Y0024368D01*
X0019300Y0025012D01*
X0019300Y0032223D01*
X0018837Y0032686D01*
X0018837Y0062138D01*
X0018853Y0062301D01*
X0018978Y0062603D01*
X0019082Y0062730D01*
X0019447Y0063095D01*
X0019518Y0063166D01*
X0024545Y0068192D01*
X0047931Y0087609D01*
X0047931Y0081239D01*
X0037558Y0070804D01*
X0037149Y0070396D01*
X0037149Y0070393D01*
X0037147Y0070392D01*
X0037149Y0069814D01*
X0037149Y0067959D01*
X0037143Y0067965D01*
X0032509Y0067965D01*
X0031865Y0067320D01*
X0031865Y0063209D01*
X0032509Y0062565D01*
X0037143Y0062565D01*
X0037400Y0062821D01*
X0037660Y0062562D01*
X0041839Y0062562D01*
X0041839Y0061142D01*
X0040090Y0059393D01*
X0032517Y0059393D01*
X0032461Y0059439D01*
X0031946Y0059393D01*
X0031429Y0059393D01*
X0031378Y0059342D01*
X0031306Y0059336D01*
X0030974Y0058939D01*
X0030609Y0058573D01*
X0030609Y0058501D01*
X0026968Y0054145D01*
X0026602Y0053779D01*
X0026602Y0053707D01*
X0026556Y0053652D01*
X0026602Y0053136D01*
X0026602Y0045511D01*
X0027422Y0044691D01*
X0036078Y0036035D01*
X0048719Y0036035D01*
X0048719Y0013319D01*
X0049539Y0012498D01*
X0052658Y0009380D01*
X0009681Y0009310D01*
X0009681Y0009775D02*
X0052263Y0009775D01*
X0051664Y0010373D02*
X0009681Y0010373D01*
X0009681Y0010972D02*
X0051066Y0010972D01*
X0050467Y0011570D02*
X0009681Y0011570D01*
X0009681Y0012169D02*
X0049869Y0012169D01*
X0049270Y0012767D02*
X0026740Y0012767D01*
X0026530Y0012557D02*
X0027174Y0013201D01*
X0027174Y0020412D01*
X0026530Y0021056D01*
X0026447Y0021056D01*
X0026447Y0024368D01*
X0026530Y0024368D01*
X0027174Y0025012D01*
X0027174Y0032223D01*
X0026530Y0032867D01*
X0020500Y0032867D01*
X0019856Y0032223D01*
X0019856Y0025012D01*
X0020247Y0024621D01*
X0020247Y0020803D01*
X0019856Y0020412D01*
X0019856Y0013201D01*
X0020500Y0012557D01*
X0026530Y0012557D01*
X0027174Y0013366D02*
X0048719Y0013366D01*
X0048719Y0013964D02*
X0027174Y0013964D01*
X0027174Y0014563D02*
X0048719Y0014563D01*
X0048719Y0015161D02*
X0027174Y0015161D01*
X0027174Y0015760D02*
X0048719Y0015760D01*
X0048719Y0016358D02*
X0027174Y0016358D01*
X0027174Y0016957D02*
X0048719Y0016957D01*
X0048719Y0017555D02*
X0027174Y0017555D01*
X0027174Y0018154D02*
X0048719Y0018154D01*
X0048719Y0018752D02*
X0027174Y0018752D01*
X0027174Y0019351D02*
X0048719Y0019351D01*
X0048719Y0019949D02*
X0027174Y0019949D01*
X0027038Y0020548D02*
X0048719Y0020548D01*
X0048719Y0021146D02*
X0026447Y0021146D01*
X0026447Y0021745D02*
X0048719Y0021745D01*
X0048719Y0022343D02*
X0026447Y0022343D01*
X0026447Y0022942D02*
X0048719Y0022942D01*
X0048719Y0023540D02*
X0026447Y0023540D01*
X0026447Y0024139D02*
X0048719Y0024139D01*
X0048719Y0024737D02*
X0026899Y0024737D01*
X0027174Y0025336D02*
X0048719Y0025336D01*
X0048719Y0025934D02*
X0027174Y0025934D01*
X0027174Y0026533D02*
X0048719Y0026533D01*
X0048719Y0027132D02*
X0027174Y0027132D01*
X0027174Y0027730D02*
X0048719Y0027730D01*
X0048719Y0028329D02*
X0027174Y0028329D01*
X0027174Y0028927D02*
X0048719Y0028927D01*
X0048719Y0029526D02*
X0027174Y0029526D01*
X0027174Y0030124D02*
X0048719Y0030124D01*
X0048719Y0030723D02*
X0027174Y0030723D01*
X0027174Y0031321D02*
X0048719Y0031321D01*
X0048719Y0031920D02*
X0027174Y0031920D01*
X0026879Y0032518D02*
X0048719Y0032518D01*
X0048719Y0033117D02*
X0018837Y0033117D01*
X0018837Y0033715D02*
X0048719Y0033715D01*
X0048719Y0034314D02*
X0018837Y0034314D01*
X0018837Y0034912D02*
X0048719Y0034912D01*
X0048719Y0035511D02*
X0018837Y0035511D01*
X0018837Y0036109D02*
X0036004Y0036109D01*
X0035405Y0036708D02*
X0018837Y0036708D01*
X0018837Y0037306D02*
X0034807Y0037306D01*
X0034208Y0037905D02*
X0018837Y0037905D01*
X0018837Y0038503D02*
X0033610Y0038503D01*
X0033011Y0039102D02*
X0018837Y0039102D01*
X0018837Y0039700D02*
X0032413Y0039700D01*
X0031814Y0040299D02*
X0018837Y0040299D01*
X0018837Y0040897D02*
X0031216Y0040897D01*
X0030617Y0041496D02*
X0018837Y0041496D01*
X0018837Y0042094D02*
X0030019Y0042094D01*
X0029420Y0042693D02*
X0018837Y0042693D01*
X0018837Y0043291D02*
X0028822Y0043291D01*
X0028223Y0043890D02*
X0018837Y0043890D01*
X0018837Y0044488D02*
X0027625Y0044488D01*
X0027026Y0045087D02*
X0018837Y0045087D01*
X0018837Y0045685D02*
X0026602Y0045685D01*
X0026602Y0046284D02*
X0018837Y0046284D01*
X0018837Y0046882D02*
X0026602Y0046882D01*
X0026602Y0047481D02*
X0018837Y0047481D01*
X0018837Y0048079D02*
X0026602Y0048079D01*
X0026602Y0048678D02*
X0018837Y0048678D01*
X0018837Y0049276D02*
X0026602Y0049276D01*
X0026602Y0049875D02*
X0018837Y0049875D01*
X0018837Y0050473D02*
X0026602Y0050473D01*
X0026602Y0051072D02*
X0018837Y0051072D01*
X0018837Y0051670D02*
X0026602Y0051670D01*
X0026602Y0052269D02*
X0018837Y0052269D01*
X0018837Y0052867D02*
X0026602Y0052867D01*
X0026572Y0053466D02*
X0018837Y0053466D01*
X0018837Y0054065D02*
X0026888Y0054065D01*
X0027401Y0054663D02*
X0018837Y0054663D01*
X0018837Y0055262D02*
X0027901Y0055262D01*
X0028402Y0055860D02*
X0018837Y0055860D01*
X0018837Y0056459D02*
X0028902Y0056459D01*
X0029402Y0057057D02*
X0018837Y0057057D01*
X0018837Y0057656D02*
X0029902Y0057656D01*
X0030402Y0058254D02*
X0018837Y0058254D01*
X0018837Y0058853D02*
X0030888Y0058853D01*
X0032009Y0057993D02*
X0040670Y0057993D01*
X0043247Y0060570D01*
X0043247Y0061100D01*
X0043239Y0061195D02*
X0043239Y0065132D01*
X0041753Y0065011D02*
X0041753Y0061978D01*
X0041754Y0061981D02*
X0040179Y0060522D01*
X0040747Y0060050D02*
X0018837Y0060050D01*
X0018837Y0060648D02*
X0041345Y0060648D01*
X0041839Y0061247D02*
X0018837Y0061247D01*
X0018837Y0061845D02*
X0041839Y0061845D01*
X0041839Y0062444D02*
X0018912Y0062444D01*
X0019395Y0063042D02*
X0032032Y0063042D01*
X0031865Y0063641D02*
X0019993Y0063641D01*
X0020592Y0064239D02*
X0031865Y0064239D01*
X0031865Y0064838D02*
X0021190Y0064838D01*
X0021789Y0065436D02*
X0031865Y0065436D01*
X0031865Y0066035D02*
X0022387Y0066035D01*
X0022986Y0066633D02*
X0031865Y0066633D01*
X0031865Y0067232D02*
X0023584Y0067232D01*
X0024183Y0067830D02*
X0032375Y0067830D01*
X0029876Y0072618D02*
X0039361Y0072618D01*
X0038766Y0072020D02*
X0029155Y0072020D01*
X0028434Y0071421D02*
X0038171Y0071421D01*
X0037576Y0070823D02*
X0027713Y0070823D01*
X0026992Y0070224D02*
X0037148Y0070224D01*
X0037149Y0069626D02*
X0026271Y0069626D01*
X0025551Y0069027D02*
X0037149Y0069027D01*
X0037149Y0068429D02*
X0024830Y0068429D01*
X0021612Y0073815D02*
X0009681Y0073815D01*
X0009681Y0073217D02*
X0020801Y0073217D01*
X0020170Y0072618D02*
X0009681Y0072618D01*
X0009681Y0072020D02*
X0019604Y0072020D01*
X0019006Y0071421D02*
X0009681Y0071421D01*
X0009681Y0070823D02*
X0018407Y0070823D01*
X0017809Y0070224D02*
X0009681Y0070224D01*
X0009681Y0069626D02*
X0017210Y0069626D01*
X0016612Y0069027D02*
X0009681Y0069027D01*
X0009681Y0068429D02*
X0016013Y0068429D01*
X0015415Y0067830D02*
X0009681Y0067830D01*
X0009681Y0067232D02*
X0014816Y0067232D01*
X0014218Y0066633D02*
X0009681Y0066633D01*
X0009681Y0066035D02*
X0013671Y0066035D01*
X0013423Y0065436D02*
X0009681Y0065436D01*
X0009681Y0064838D02*
X0013176Y0064838D01*
X0012928Y0064239D02*
X0009681Y0064239D01*
X0009681Y0063641D02*
X0012680Y0063641D01*
X0012637Y0063042D02*
X0009681Y0063042D01*
X0009681Y0062444D02*
X0012637Y0062444D01*
X0012637Y0061845D02*
X0009681Y0061845D01*
X0009681Y0061247D02*
X0012637Y0061247D01*
X0012637Y0060648D02*
X0009681Y0060648D01*
X0009681Y0060050D02*
X0012637Y0060050D01*
X0012637Y0059451D02*
X0009681Y0059451D01*
X0009681Y0058853D02*
X0012637Y0058853D01*
X0012637Y0058254D02*
X0009681Y0058254D01*
X0009681Y0057656D02*
X0012637Y0057656D01*
X0012637Y0057057D02*
X0009681Y0057057D01*
X0009681Y0056459D02*
X0012637Y0056459D01*
X0012637Y0055860D02*
X0009681Y0055860D01*
X0009681Y0055262D02*
X0012637Y0055262D01*
X0012637Y0054663D02*
X0009681Y0054663D01*
X0009681Y0054065D02*
X0012637Y0054065D01*
X0012637Y0053466D02*
X0009681Y0053466D01*
X0009681Y0052867D02*
X0012637Y0052867D01*
X0012637Y0052269D02*
X0009681Y0052269D01*
X0009681Y0051670D02*
X0012637Y0051670D01*
X0012637Y0051072D02*
X0009681Y0051072D01*
X0009681Y0050473D02*
X0012637Y0050473D01*
X0012637Y0049875D02*
X0009681Y0049875D01*
X0009681Y0049276D02*
X0012637Y0049276D01*
X0012637Y0048678D02*
X0009681Y0048678D01*
X0009681Y0048079D02*
X0012637Y0048079D01*
X0012637Y0047481D02*
X0009681Y0047481D01*
X0009681Y0046882D02*
X0012637Y0046882D01*
X0012637Y0046284D02*
X0009681Y0046284D01*
X0009681Y0045685D02*
X0012637Y0045685D01*
X0012637Y0045087D02*
X0009681Y0045087D01*
X0009681Y0044488D02*
X0012637Y0044488D01*
X0012637Y0043890D02*
X0009681Y0043890D01*
X0009681Y0043291D02*
X0012637Y0043291D01*
X0012637Y0042693D02*
X0009681Y0042693D01*
X0009681Y0042094D02*
X0012637Y0042094D01*
X0012637Y0041496D02*
X0009681Y0041496D01*
X0009681Y0040897D02*
X0012637Y0040897D01*
X0012637Y0040299D02*
X0009681Y0040299D01*
X0009681Y0039700D02*
X0012637Y0039700D01*
X0012637Y0039102D02*
X0009681Y0039102D01*
X0009681Y0038503D02*
X0012637Y0038503D01*
X0012637Y0037905D02*
X0009681Y0037905D01*
X0009681Y0037306D02*
X0012637Y0037306D01*
X0012637Y0036708D02*
X0009681Y0036708D01*
X0009681Y0036109D02*
X0012637Y0036109D01*
X0012637Y0035511D02*
X0009681Y0035511D01*
X0009681Y0034912D02*
X0012637Y0034912D01*
X0012637Y0034314D02*
X0009681Y0034314D01*
X0009681Y0033715D02*
X0012637Y0033715D01*
X0012637Y0033117D02*
X0009681Y0033117D01*
X0009681Y0032518D02*
X0012277Y0032518D01*
X0011982Y0031920D02*
X0009681Y0031920D01*
X0009681Y0031321D02*
X0011982Y0031321D01*
X0011982Y0030723D02*
X0009681Y0030723D01*
X0009681Y0030124D02*
X0011982Y0030124D01*
X0011982Y0029526D02*
X0009681Y0029526D01*
X0009681Y0028927D02*
X0011982Y0028927D01*
X0011982Y0028329D02*
X0009681Y0028329D01*
X0009681Y0027730D02*
X0011982Y0027730D01*
X0011982Y0027132D02*
X0009681Y0027132D01*
X0009681Y0026533D02*
X0011982Y0026533D01*
X0011982Y0025934D02*
X0009681Y0025934D01*
X0009681Y0025336D02*
X0011982Y0025336D01*
X0012257Y0024737D02*
X0009681Y0024737D01*
X0009681Y0024139D02*
X0020247Y0024139D01*
X0020247Y0023540D02*
X0009681Y0023540D01*
X0009681Y0022942D02*
X0020247Y0022942D01*
X0020247Y0022343D02*
X0009681Y0022343D01*
X0009681Y0021745D02*
X0020247Y0021745D01*
X0020247Y0021146D02*
X0009681Y0021146D01*
X0009681Y0020548D02*
X0012118Y0020548D01*
X0011982Y0020412D02*
X0011982Y0013201D01*
X0012626Y0012557D01*
X0018656Y0012557D01*
X0019300Y0013201D01*
X0019300Y0020412D01*
X0018656Y0021056D01*
X0012626Y0021056D01*
X0011982Y0020412D01*
X0011982Y0019949D02*
X0009681Y0019949D01*
X0009681Y0019351D02*
X0011982Y0019351D01*
X0011982Y0018752D02*
X0009681Y0018752D01*
X0009681Y0018154D02*
X0011982Y0018154D01*
X0011982Y0017555D02*
X0009681Y0017555D01*
X0009681Y0016957D02*
X0011982Y0016957D01*
X0011982Y0016358D02*
X0009681Y0016358D01*
X0009681Y0015760D02*
X0011982Y0015760D01*
X0011982Y0015161D02*
X0009681Y0015161D01*
X0009681Y0014563D02*
X0011982Y0014563D01*
X0011982Y0013964D02*
X0009681Y0013964D01*
X0009681Y0013366D02*
X0011982Y0013366D01*
X0012416Y0012767D02*
X0009681Y0012767D01*
X0018866Y0012767D02*
X0020290Y0012767D01*
X0019856Y0013366D02*
X0019300Y0013366D01*
X0019300Y0013964D02*
X0019856Y0013964D01*
X0019856Y0014563D02*
X0019300Y0014563D01*
X0019300Y0015161D02*
X0019856Y0015161D01*
X0019856Y0015760D02*
X0019300Y0015760D01*
X0019300Y0016358D02*
X0019856Y0016358D01*
X0019856Y0016957D02*
X0019300Y0016957D01*
X0019300Y0017555D02*
X0019856Y0017555D01*
X0019856Y0018154D02*
X0019300Y0018154D01*
X0019300Y0018752D02*
X0019856Y0018752D01*
X0019856Y0019351D02*
X0019300Y0019351D01*
X0019300Y0019949D02*
X0019856Y0019949D01*
X0019992Y0020548D02*
X0019164Y0020548D01*
X0019025Y0024737D02*
X0020131Y0024737D01*
X0019856Y0025336D02*
X0019300Y0025336D01*
X0019300Y0025934D02*
X0019856Y0025934D01*
X0019856Y0026533D02*
X0019300Y0026533D01*
X0019300Y0027132D02*
X0019856Y0027132D01*
X0019856Y0027730D02*
X0019300Y0027730D01*
X0019300Y0028329D02*
X0019856Y0028329D01*
X0019856Y0028927D02*
X0019300Y0028927D01*
X0019300Y0029526D02*
X0019856Y0029526D01*
X0019856Y0030124D02*
X0019300Y0030124D01*
X0019300Y0030723D02*
X0019856Y0030723D01*
X0019856Y0031321D02*
X0019300Y0031321D01*
X0019300Y0031920D02*
X0019856Y0031920D01*
X0020151Y0032518D02*
X0019005Y0032518D01*
X0028002Y0046091D02*
X0028002Y0053199D01*
X0032009Y0057993D01*
X0032551Y0056459D02*
X0075951Y0056459D01*
X0075954Y0056462D02*
X0061631Y0038580D01*
X0061198Y0038142D01*
X0061198Y0038040D01*
X0061135Y0037962D01*
X0061203Y0037349D01*
X0061242Y0031313D01*
X0061122Y0031263D01*
X0060394Y0030535D01*
X0059999Y0029584D01*
X0059999Y0028554D01*
X0060394Y0027602D01*
X0061122Y0026874D01*
X0062073Y0026480D01*
X0063103Y0026480D01*
X0064055Y0026874D01*
X0064783Y0027602D01*
X0065177Y0028554D01*
X0065177Y0029584D01*
X0064783Y0030535D01*
X0064646Y0030672D01*
X0064606Y0036856D01*
X0078923Y0054730D01*
X0079355Y0055162D01*
X0079355Y0055269D01*
X0079422Y0055352D01*
X0079355Y0055960D01*
X0079342Y0092560D01*
X0079836Y0093054D01*
X0080230Y0094005D01*
X0080230Y0095035D01*
X0079836Y0095987D01*
X0079108Y0096715D01*
X0078156Y0097109D01*
X0077126Y0097109D01*
X0076175Y0096715D01*
X0075446Y0095987D01*
X0075052Y0095035D01*
X0075052Y0094005D01*
X0075446Y0093054D01*
X0075942Y0092558D01*
X0075954Y0056462D01*
X0075954Y0057057D02*
X0041714Y0057057D01*
X0041768Y0056327D02*
X0040193Y0054869D01*
X0040178Y0054775D02*
X0040178Y0051742D01*
X0040324Y0049258D02*
X0040324Y0047350D01*
X0040258Y0047323D01*
X0039529Y0046594D01*
X0039135Y0045643D01*
X0039135Y0044613D01*
X0039529Y0043661D01*
X0040258Y0042933D01*
X0041209Y0042539D01*
X0042239Y0042539D01*
X0043191Y0042933D01*
X0043919Y0043661D01*
X0044313Y0044613D01*
X0044313Y0045643D01*
X0043919Y0046594D01*
X0043191Y0047323D01*
X0043124Y0047350D01*
X0043124Y0049258D01*
X0061512Y0049258D01*
X0061946Y0049692D01*
X0062064Y0049574D01*
X0066698Y0049574D01*
X0067342Y0050219D01*
X0067342Y0054330D01*
X0066698Y0054974D01*
X0062064Y0054974D01*
X0061762Y0054672D01*
X0061512Y0054923D01*
X0037682Y0054923D01*
X0037438Y0054679D01*
X0037143Y0054974D01*
X0034096Y0054974D01*
X0032509Y0054974D01*
X0031865Y0054330D01*
X0031865Y0050219D01*
X0032509Y0049574D01*
X0037143Y0049574D01*
X0037255Y0049686D01*
X0037683Y0049258D01*
X0040324Y0049258D01*
X0040324Y0048678D02*
X0029402Y0048678D01*
X0029402Y0049276D02*
X0037665Y0049276D01*
X0040324Y0048079D02*
X0029402Y0048079D01*
X0029402Y0047481D02*
X0040324Y0047481D01*
X0039817Y0046882D02*
X0029402Y0046882D01*
X0029789Y0046284D02*
X0039401Y0046284D01*
X0039153Y0045685D02*
X0030387Y0045685D01*
X0030986Y0045087D02*
X0039135Y0045087D01*
X0039187Y0044488D02*
X0031584Y0044488D01*
X0032183Y0043890D02*
X0039435Y0043890D01*
X0039899Y0043291D02*
X0032781Y0043291D01*
X0033380Y0042693D02*
X0040837Y0042693D01*
X0042611Y0042693D02*
X0064925Y0042693D01*
X0065404Y0043291D02*
X0043549Y0043291D01*
X0044014Y0043890D02*
X0065884Y0043890D01*
X0066363Y0044488D02*
X0044262Y0044488D01*
X0044313Y0045087D02*
X0066843Y0045087D01*
X0067322Y0045685D02*
X0044295Y0045685D01*
X0044048Y0046284D02*
X0067801Y0046284D01*
X0068281Y0046882D02*
X0043631Y0046882D01*
X0043124Y0047481D02*
X0068760Y0047481D01*
X0069240Y0048079D02*
X0043124Y0048079D01*
X0043124Y0048678D02*
X0069719Y0048678D01*
X0070198Y0049276D02*
X0061530Y0049276D01*
X0059075Y0051742D02*
X0059075Y0054775D01*
X0059091Y0054822D02*
X0060590Y0056232D01*
X0060540Y0060387D02*
X0059082Y0061962D01*
X0059075Y0061978D02*
X0059075Y0065011D01*
X0060682Y0065820D02*
X0060682Y0078419D01*
X0066193Y0082356D01*
X0063820Y0083392D02*
X0062537Y0083392D01*
X0063135Y0083990D02*
X0064166Y0083990D01*
X0063734Y0084589D02*
X0064819Y0084589D01*
X0064332Y0085187D02*
X0075944Y0085187D01*
X0075945Y0084589D02*
X0067568Y0084589D01*
X0068220Y0083990D02*
X0075945Y0083990D01*
X0075945Y0083392D02*
X0068567Y0083392D01*
X0068782Y0082793D02*
X0075945Y0082793D01*
X0075945Y0082195D02*
X0068782Y0082195D01*
X0068681Y0081596D02*
X0075946Y0081596D01*
X0075946Y0080998D02*
X0068433Y0080998D01*
X0067898Y0080399D02*
X0075946Y0080399D01*
X0075946Y0079801D02*
X0066790Y0079801D01*
X0065597Y0079801D02*
X0065025Y0079801D01*
X0064187Y0079202D02*
X0075946Y0079202D01*
X0075947Y0078603D02*
X0063349Y0078603D01*
X0062511Y0078005D02*
X0075947Y0078005D01*
X0075947Y0077406D02*
X0062082Y0077406D01*
X0062082Y0076808D02*
X0075947Y0076808D01*
X0075948Y0076209D02*
X0062082Y0076209D01*
X0062082Y0075611D02*
X0075948Y0075611D01*
X0075948Y0075012D02*
X0062082Y0075012D01*
X0062082Y0074414D02*
X0075948Y0074414D01*
X0075948Y0073815D02*
X0062082Y0073815D01*
X0062082Y0073217D02*
X0075949Y0073217D01*
X0075949Y0072618D02*
X0062082Y0072618D01*
X0062082Y0072020D02*
X0075949Y0072020D01*
X0075949Y0071421D02*
X0062082Y0071421D01*
X0062082Y0070823D02*
X0075949Y0070823D01*
X0075950Y0070224D02*
X0062082Y0070224D01*
X0062082Y0069626D02*
X0075950Y0069626D01*
X0075950Y0069027D02*
X0062082Y0069027D01*
X0062082Y0068429D02*
X0075950Y0068429D01*
X0075950Y0067830D02*
X0066832Y0067830D01*
X0067342Y0067232D02*
X0075951Y0067232D01*
X0075951Y0066633D02*
X0067342Y0066633D01*
X0067342Y0066035D02*
X0075951Y0066035D01*
X0075951Y0065436D02*
X0067342Y0065436D01*
X0067342Y0064838D02*
X0075951Y0064838D01*
X0075952Y0064239D02*
X0067342Y0064239D01*
X0067342Y0063641D02*
X0075952Y0063641D01*
X0075952Y0063042D02*
X0067175Y0063042D01*
X0067009Y0054663D02*
X0074513Y0054663D01*
X0074034Y0054065D02*
X0067342Y0054065D01*
X0067342Y0053466D02*
X0073554Y0053466D01*
X0073075Y0052867D02*
X0067342Y0052867D01*
X0067342Y0052269D02*
X0072596Y0052269D01*
X0072116Y0051670D02*
X0067342Y0051670D01*
X0067342Y0051072D02*
X0071637Y0051072D01*
X0071157Y0050473D02*
X0067342Y0050473D01*
X0066998Y0049875D02*
X0070678Y0049875D01*
X0072637Y0046882D02*
X0093808Y0046882D01*
X0093808Y0046284D02*
X0072158Y0046284D01*
X0071678Y0045685D02*
X0093808Y0045685D01*
X0093808Y0045087D02*
X0071199Y0045087D01*
X0070719Y0044488D02*
X0093808Y0044488D01*
X0093808Y0043890D02*
X0070240Y0043890D01*
X0069761Y0043291D02*
X0093808Y0043291D01*
X0093808Y0042693D02*
X0069281Y0042693D01*
X0068802Y0042094D02*
X0093808Y0042094D01*
X0093808Y0041496D02*
X0068322Y0041496D01*
X0067843Y0040897D02*
X0093808Y0040897D01*
X0093808Y0040299D02*
X0067364Y0040299D01*
X0066884Y0039700D02*
X0093808Y0039700D01*
X0093808Y0039102D02*
X0066405Y0039102D01*
X0065925Y0038503D02*
X0093808Y0038503D01*
X0093808Y0037905D02*
X0065446Y0037905D01*
X0064967Y0037306D02*
X0093808Y0037306D01*
X0093808Y0036708D02*
X0064607Y0036708D01*
X0064611Y0036109D02*
X0093808Y0036109D01*
X0093808Y0035511D02*
X0064615Y0035511D01*
X0064619Y0034912D02*
X0093808Y0034912D01*
X0093808Y0034314D02*
X0064623Y0034314D01*
X0064626Y0033715D02*
X0093808Y0033715D01*
X0093808Y0033117D02*
X0064630Y0033117D01*
X0064634Y0032518D02*
X0093808Y0032518D01*
X0093808Y0031920D02*
X0064638Y0031920D01*
X0064642Y0031321D02*
X0093808Y0031321D01*
X0093808Y0030723D02*
X0064646Y0030723D01*
X0064954Y0030124D02*
X0093808Y0030124D01*
X0093808Y0029526D02*
X0065177Y0029526D01*
X0065177Y0028927D02*
X0093808Y0028927D01*
X0093808Y0028329D02*
X0065084Y0028329D01*
X0064836Y0027730D02*
X0093808Y0027730D01*
X0093808Y0027132D02*
X0064313Y0027132D01*
X0063232Y0026533D02*
X0093808Y0026533D01*
X0093808Y0025934D02*
X0056563Y0025934D01*
X0056563Y0025336D02*
X0093808Y0025336D01*
X0093808Y0024737D02*
X0056563Y0024737D01*
X0056563Y0024139D02*
X0093808Y0024139D01*
X0093808Y0023540D02*
X0056563Y0023540D01*
X0056563Y0022942D02*
X0093808Y0022942D01*
X0093808Y0022343D02*
X0056563Y0022343D01*
X0056563Y0021745D02*
X0087861Y0021745D01*
X0087196Y0021146D02*
X0056563Y0021146D01*
X0056563Y0020548D02*
X0086845Y0020548D01*
X0086625Y0019949D02*
X0056563Y0019949D01*
X0056563Y0019351D02*
X0086625Y0019351D01*
X0089489Y0019410D02*
X0089489Y0011536D01*
X0086348Y0008396D01*
X0082436Y0008396D01*
X0082402Y0008387D02*
X0055631Y0008387D01*
X0050119Y0013898D01*
X0050119Y0037520D01*
X0050131Y0037435D02*
X0036657Y0037435D01*
X0028002Y0046091D01*
X0029402Y0049875D02*
X0032209Y0049875D01*
X0031865Y0050473D02*
X0029402Y0050473D01*
X0029402Y0051072D02*
X0031865Y0051072D01*
X0031865Y0051670D02*
X0029402Y0051670D01*
X0029402Y0052269D02*
X0031865Y0052269D01*
X0031865Y0052867D02*
X0029550Y0052867D01*
X0030050Y0053466D02*
X0031865Y0053466D01*
X0031865Y0054065D02*
X0030550Y0054065D01*
X0031050Y0054663D02*
X0032198Y0054663D01*
X0031550Y0055262D02*
X0074993Y0055262D01*
X0075472Y0055860D02*
X0032051Y0055860D01*
X0038549Y0066045D02*
X0038549Y0069816D01*
X0049331Y0080661D01*
X0049331Y0092639D01*
X0051502Y0090574D02*
X0075943Y0090574D01*
X0075942Y0091172D02*
X0052023Y0091172D01*
X0052338Y0091771D02*
X0075942Y0091771D01*
X0075942Y0092369D02*
X0052480Y0092369D01*
X0052535Y0092968D02*
X0075532Y0092968D01*
X0075234Y0093566D02*
X0052442Y0093566D01*
X0052256Y0094165D02*
X0075052Y0094165D01*
X0075052Y0094763D02*
X0051869Y0094763D01*
X0051330Y0095362D02*
X0075187Y0095362D01*
X0075435Y0095960D02*
X0049643Y0095960D01*
X0048918Y0095960D02*
X0011931Y0095960D01*
X0011931Y0095362D02*
X0047563Y0095362D01*
X0046842Y0094763D02*
X0011931Y0094763D01*
X0011931Y0094165D02*
X0046121Y0094165D01*
X0045400Y0093566D02*
X0011931Y0093566D01*
X0011931Y0092968D02*
X0044679Y0092968D01*
X0043959Y0092369D02*
X0011931Y0092369D01*
X0011931Y0091771D02*
X0043238Y0091771D01*
X0042517Y0091172D02*
X0011931Y0091172D01*
X0011931Y0090574D02*
X0041796Y0090574D01*
X0041075Y0089975D02*
X0011931Y0089975D01*
X0011931Y0089377D02*
X0040354Y0089377D01*
X0039633Y0088778D02*
X0011931Y0088778D01*
X0011931Y0088180D02*
X0038912Y0088180D01*
X0038192Y0087581D02*
X0011931Y0087581D01*
X0011931Y0086983D02*
X0037471Y0086983D01*
X0036750Y0086384D02*
X0011931Y0086384D01*
X0011931Y0085786D02*
X0036029Y0085786D01*
X0035308Y0085187D02*
X0011931Y0085187D01*
X0011931Y0084589D02*
X0034587Y0084589D01*
X0033866Y0083990D02*
X0011931Y0083990D01*
X0011730Y0083392D02*
X0033146Y0083392D01*
X0032425Y0082793D02*
X0011482Y0082793D01*
X0011175Y0082195D02*
X0031704Y0082195D01*
X0030983Y0081596D02*
X0010577Y0081596D01*
X0009853Y0080998D02*
X0030262Y0080998D01*
X0029541Y0080399D02*
X0009681Y0080399D01*
X0009681Y0079801D02*
X0028820Y0079801D01*
X0028100Y0079202D02*
X0009681Y0079202D01*
X0009681Y0078603D02*
X0027379Y0078603D01*
X0026658Y0078005D02*
X0009681Y0078005D01*
X0009681Y0077406D02*
X0025937Y0077406D01*
X0025216Y0076808D02*
X0009681Y0076808D01*
X0009681Y0076209D02*
X0024495Y0076209D01*
X0023774Y0075611D02*
X0009681Y0075611D01*
X0009681Y0075012D02*
X0023053Y0075012D01*
X0022333Y0074414D02*
X0009681Y0074414D01*
X0018837Y0059451D02*
X0040148Y0059451D01*
X0042313Y0057656D02*
X0075954Y0057656D01*
X0075954Y0058254D02*
X0042911Y0058254D01*
X0043510Y0058853D02*
X0075954Y0058853D01*
X0075953Y0059451D02*
X0044108Y0059451D01*
X0044647Y0060050D02*
X0075953Y0060050D01*
X0075953Y0060648D02*
X0044647Y0060648D01*
X0044647Y0061247D02*
X0075953Y0061247D01*
X0075953Y0061845D02*
X0044639Y0061845D01*
X0044639Y0062444D02*
X0075952Y0062444D01*
X0079352Y0062444D02*
X0084538Y0062444D01*
X0084538Y0062445D02*
X0084538Y0061415D01*
X0084932Y0060463D01*
X0085660Y0059735D01*
X0086612Y0059341D01*
X0087642Y0059341D01*
X0088593Y0059735D01*
X0089322Y0060463D01*
X0089716Y0061415D01*
X0089716Y0062445D01*
X0089322Y0063396D01*
X0088593Y0064125D01*
X0088527Y0064152D01*
X0088527Y0085692D01*
X0088593Y0085719D01*
X0089322Y0086448D01*
X0089716Y0087399D01*
X0089716Y0088429D01*
X0089322Y0089381D01*
X0088593Y0090109D01*
X0087642Y0090503D01*
X0086612Y0090503D01*
X0085660Y0090109D01*
X0084932Y0089381D01*
X0084538Y0088429D01*
X0084538Y0087399D01*
X0084932Y0086448D01*
X0085660Y0085719D01*
X0085727Y0085692D01*
X0085727Y0064152D01*
X0085660Y0064125D01*
X0084932Y0063396D01*
X0084538Y0062445D01*
X0084538Y0061845D02*
X0079352Y0061845D01*
X0079353Y0061247D02*
X0084607Y0061247D01*
X0084855Y0060648D02*
X0079353Y0060648D01*
X0079353Y0060050D02*
X0085346Y0060050D01*
X0086346Y0059451D02*
X0079353Y0059451D01*
X0079354Y0058853D02*
X0093808Y0058853D01*
X0093808Y0059451D02*
X0087908Y0059451D01*
X0088908Y0060050D02*
X0093808Y0060050D01*
X0093808Y0060648D02*
X0089398Y0060648D01*
X0089646Y0061247D02*
X0093808Y0061247D01*
X0093808Y0061845D02*
X0089716Y0061845D01*
X0089716Y0062444D02*
X0093808Y0062444D01*
X0093808Y0063042D02*
X0089468Y0063042D01*
X0089077Y0063641D02*
X0093808Y0063641D01*
X0093808Y0064239D02*
X0088527Y0064239D01*
X0088527Y0064838D02*
X0093808Y0064838D01*
X0093808Y0065436D02*
X0088527Y0065436D01*
X0088527Y0066035D02*
X0093808Y0066035D01*
X0093808Y0066633D02*
X0088527Y0066633D01*
X0088527Y0067232D02*
X0093808Y0067232D01*
X0093808Y0067830D02*
X0088527Y0067830D01*
X0088527Y0068429D02*
X0093808Y0068429D01*
X0093808Y0069027D02*
X0088527Y0069027D01*
X0088527Y0069626D02*
X0093808Y0069626D01*
X0093808Y0070224D02*
X0088527Y0070224D01*
X0088527Y0070823D02*
X0093808Y0070823D01*
X0093808Y0071421D02*
X0088527Y0071421D01*
X0088527Y0072020D02*
X0093808Y0072020D01*
X0093808Y0072618D02*
X0088527Y0072618D01*
X0088527Y0073217D02*
X0093808Y0073217D01*
X0093808Y0073815D02*
X0088527Y0073815D01*
X0088527Y0074414D02*
X0093808Y0074414D01*
X0093808Y0075012D02*
X0088527Y0075012D01*
X0088527Y0075611D02*
X0093808Y0075611D01*
X0093808Y0076209D02*
X0088527Y0076209D01*
X0088527Y0076808D02*
X0093808Y0076808D01*
X0093808Y0077406D02*
X0088527Y0077406D01*
X0088527Y0078005D02*
X0093808Y0078005D01*
X0093808Y0078603D02*
X0088527Y0078603D01*
X0088527Y0079202D02*
X0093808Y0079202D01*
X0093808Y0079801D02*
X0088527Y0079801D01*
X0088527Y0080399D02*
X0093808Y0080399D01*
X0093808Y0080998D02*
X0088527Y0080998D01*
X0088527Y0081596D02*
X0093808Y0081596D01*
X0093808Y0082195D02*
X0088527Y0082195D01*
X0088527Y0082793D02*
X0093808Y0082793D01*
X0093808Y0083392D02*
X0088527Y0083392D01*
X0088527Y0083990D02*
X0093808Y0083990D01*
X0093808Y0084589D02*
X0088527Y0084589D01*
X0088527Y0085187D02*
X0093808Y0085187D01*
X0093808Y0085786D02*
X0088660Y0085786D01*
X0089258Y0086384D02*
X0093808Y0086384D01*
X0093808Y0086983D02*
X0089543Y0086983D01*
X0089716Y0087581D02*
X0093808Y0087581D01*
X0093808Y0088180D02*
X0089716Y0088180D01*
X0089571Y0088778D02*
X0093808Y0088778D01*
X0093808Y0089377D02*
X0089323Y0089377D01*
X0088727Y0089975D02*
X0093808Y0089975D01*
X0093808Y0090574D02*
X0079343Y0090574D01*
X0079342Y0091172D02*
X0093808Y0091172D01*
X0093808Y0091771D02*
X0079342Y0091771D01*
X0079342Y0092369D02*
X0093808Y0092369D01*
X0093808Y0092968D02*
X0079750Y0092968D01*
X0080048Y0093566D02*
X0093808Y0093566D01*
X0093808Y0094165D02*
X0080230Y0094165D01*
X0080230Y0094763D02*
X0093808Y0094763D01*
X0093808Y0095362D02*
X0080095Y0095362D01*
X0079847Y0095960D02*
X0093808Y0095960D01*
X0093808Y0096559D02*
X0079264Y0096559D01*
X0076018Y0096559D02*
X0011931Y0096559D01*
X0011931Y0097157D02*
X0093808Y0097157D01*
X0093808Y0097756D02*
X0011931Y0097756D01*
X0011931Y0098354D02*
X0093808Y0098354D01*
X0093808Y0098953D02*
X0011931Y0098953D01*
X0011931Y0099551D02*
X0093808Y0099551D01*
X0093808Y0100150D02*
X0011931Y0100150D01*
X0011931Y0100748D02*
X0093808Y0100748D01*
X0093808Y0101347D02*
X0011931Y0101347D01*
X0011931Y0101945D02*
X0093808Y0101945D01*
X0093808Y0102544D02*
X0011931Y0102544D01*
X0011804Y0103142D02*
X0093808Y0103142D01*
X0093808Y0103741D02*
X0011556Y0103741D01*
X0011308Y0104339D02*
X0093808Y0104339D01*
X0093808Y0104938D02*
X0010755Y0104938D01*
X0010156Y0105536D02*
X0093808Y0105536D01*
X0093808Y0106135D02*
X0009781Y0106135D01*
X0009781Y0106734D02*
X0093808Y0106734D01*
X0093808Y0107332D02*
X0009781Y0107332D01*
X0009781Y0107931D02*
X0093808Y0107931D01*
X0093808Y0108529D02*
X0009781Y0108529D01*
X0009781Y0109128D02*
X0093808Y0109128D01*
X0093808Y0109726D02*
X0009781Y0109726D01*
X0009781Y0110325D02*
X0093808Y0110325D01*
X0093808Y0110923D02*
X0009781Y0110923D01*
X0009781Y0111522D02*
X0093808Y0111522D01*
X0093808Y0112120D02*
X0009781Y0112120D01*
X0009781Y0112719D02*
X0093808Y0112719D01*
X0093808Y0113317D02*
X0009781Y0113317D01*
X0009781Y0113916D02*
X0093808Y0113916D01*
X0093808Y0114514D02*
X0009781Y0114514D01*
X0009781Y0115113D02*
X0093808Y0115113D01*
X0093808Y0115711D02*
X0009781Y0115711D01*
X0009781Y0116310D02*
X0093808Y0116310D01*
X0093808Y0116908D02*
X0009781Y0116908D01*
X0009781Y0117507D02*
X0093808Y0117507D01*
X0093808Y0118105D02*
X0009781Y0118105D01*
X0009781Y0118704D02*
X0093808Y0118704D01*
X0093808Y0119302D02*
X0009781Y0119302D01*
X0009781Y0119901D02*
X0093808Y0119901D01*
X0093808Y0120499D02*
X0009781Y0120499D01*
X0009781Y0121098D02*
X0093808Y0121098D01*
X0093808Y0121696D02*
X0009781Y0121696D01*
X0009781Y0122295D02*
X0093808Y0122295D01*
X0093808Y0122893D02*
X0009781Y0122893D01*
X0009781Y0123492D02*
X0093808Y0123492D01*
X0093808Y0124090D02*
X0009781Y0124090D01*
X0009781Y0124689D02*
X0093808Y0124689D01*
X0093808Y0125287D02*
X0009781Y0125287D01*
X0009781Y0125886D02*
X0093808Y0125886D01*
X0093729Y0126484D02*
X0009781Y0126484D01*
X0009781Y0127083D02*
X0093087Y0127083D01*
X0092445Y0127681D02*
X0009781Y0127681D01*
X0009781Y0128280D02*
X0091803Y0128280D01*
X0091161Y0128878D02*
X0009781Y0128878D01*
X0009781Y0129477D02*
X0090519Y0129477D01*
X0089877Y0130075D02*
X0009781Y0130075D01*
X0009781Y0130674D02*
X0089235Y0130674D01*
X0088593Y0131272D02*
X0009781Y0131272D01*
X0009781Y0131871D02*
X0087951Y0131871D01*
X0087309Y0132470D02*
X0009781Y0132470D01*
X0009781Y0133068D02*
X0086667Y0133068D01*
X0086024Y0133667D02*
X0009781Y0133667D01*
X0009781Y0134265D02*
X0085382Y0134265D01*
X0084740Y0134864D02*
X0009781Y0134864D01*
X0009781Y0135462D02*
X0084098Y0135462D01*
X0083456Y0136061D02*
X0009781Y0136061D01*
X0009781Y0136659D02*
X0082814Y0136659D01*
X0082172Y0137258D02*
X0009781Y0137258D01*
X0009781Y0137856D02*
X0081530Y0137856D01*
X0079343Y0089975D02*
X0085526Y0089975D01*
X0084930Y0089377D02*
X0079343Y0089377D01*
X0079343Y0088778D02*
X0084682Y0088778D01*
X0084538Y0088180D02*
X0079343Y0088180D01*
X0079344Y0087581D02*
X0084538Y0087581D01*
X0084710Y0086983D02*
X0079344Y0086983D01*
X0079344Y0086384D02*
X0084995Y0086384D01*
X0085594Y0085786D02*
X0079344Y0085786D01*
X0079344Y0085187D02*
X0085727Y0085187D01*
X0085727Y0084589D02*
X0079345Y0084589D01*
X0079345Y0083990D02*
X0085727Y0083990D01*
X0085727Y0083392D02*
X0079345Y0083392D01*
X0079345Y0082793D02*
X0085727Y0082793D01*
X0085727Y0082195D02*
X0079345Y0082195D01*
X0079346Y0081596D02*
X0085727Y0081596D01*
X0085727Y0080998D02*
X0079346Y0080998D01*
X0079346Y0080399D02*
X0085727Y0080399D01*
X0085727Y0079801D02*
X0079346Y0079801D01*
X0079346Y0079202D02*
X0085727Y0079202D01*
X0085727Y0078603D02*
X0079347Y0078603D01*
X0079347Y0078005D02*
X0085727Y0078005D01*
X0085727Y0077406D02*
X0079347Y0077406D01*
X0079347Y0076808D02*
X0085727Y0076808D01*
X0085727Y0076209D02*
X0079348Y0076209D01*
X0079348Y0075611D02*
X0085727Y0075611D01*
X0085727Y0075012D02*
X0079348Y0075012D01*
X0079348Y0074414D02*
X0085727Y0074414D01*
X0085727Y0073815D02*
X0079348Y0073815D01*
X0079349Y0073217D02*
X0085727Y0073217D01*
X0085727Y0072618D02*
X0079349Y0072618D01*
X0079349Y0072020D02*
X0085727Y0072020D01*
X0085727Y0071421D02*
X0079349Y0071421D01*
X0079349Y0070823D02*
X0085727Y0070823D01*
X0085727Y0070224D02*
X0079350Y0070224D01*
X0079350Y0069626D02*
X0085727Y0069626D01*
X0085727Y0069027D02*
X0079350Y0069027D01*
X0079350Y0068429D02*
X0085727Y0068429D01*
X0085727Y0067830D02*
X0079350Y0067830D01*
X0079351Y0067232D02*
X0085727Y0067232D01*
X0085727Y0066633D02*
X0079351Y0066633D01*
X0079351Y0066035D02*
X0085727Y0066035D01*
X0085727Y0065436D02*
X0079351Y0065436D01*
X0079351Y0064838D02*
X0085727Y0064838D01*
X0085727Y0064239D02*
X0079352Y0064239D01*
X0079352Y0063641D02*
X0085176Y0063641D01*
X0084785Y0063042D02*
X0079352Y0063042D01*
X0079354Y0058254D02*
X0093808Y0058254D01*
X0093808Y0057656D02*
X0079354Y0057656D01*
X0079354Y0057057D02*
X0093808Y0057057D01*
X0093808Y0056459D02*
X0079354Y0056459D01*
X0079366Y0055860D02*
X0093808Y0055860D01*
X0093808Y0055262D02*
X0079355Y0055262D01*
X0078869Y0054663D02*
X0093808Y0054663D01*
X0093808Y0054065D02*
X0078390Y0054065D01*
X0077911Y0053466D02*
X0093808Y0053466D01*
X0093808Y0052867D02*
X0077431Y0052867D01*
X0076952Y0052269D02*
X0093808Y0052269D01*
X0093808Y0051670D02*
X0076472Y0051670D01*
X0075993Y0051072D02*
X0093808Y0051072D01*
X0093808Y0050473D02*
X0075514Y0050473D01*
X0075034Y0049875D02*
X0093808Y0049875D01*
X0093808Y0049276D02*
X0074555Y0049276D01*
X0074075Y0048678D02*
X0093808Y0048678D01*
X0093808Y0048079D02*
X0073596Y0048079D01*
X0073116Y0047481D02*
X0093808Y0047481D01*
X0087127Y0061930D02*
X0087127Y0087914D01*
X0075943Y0088180D02*
X0067668Y0088180D01*
X0067668Y0087581D02*
X0075944Y0087581D01*
X0075944Y0086983D02*
X0067496Y0086983D01*
X0067211Y0086384D02*
X0075944Y0086384D01*
X0075944Y0085786D02*
X0066612Y0085786D01*
X0065080Y0087914D02*
X0049531Y0072366D01*
X0049531Y0066286D01*
X0048131Y0068429D02*
X0039949Y0068429D01*
X0039949Y0069027D02*
X0048131Y0069027D01*
X0048131Y0069626D02*
X0040334Y0069626D01*
X0040929Y0070224D02*
X0048131Y0070224D01*
X0048131Y0070823D02*
X0041524Y0070823D01*
X0042119Y0071421D02*
X0048131Y0071421D01*
X0048131Y0072020D02*
X0042714Y0072020D01*
X0043309Y0072618D02*
X0048131Y0072618D01*
X0048402Y0073217D02*
X0043904Y0073217D01*
X0044499Y0073815D02*
X0049001Y0073815D01*
X0049599Y0074414D02*
X0045095Y0074414D01*
X0045690Y0075012D02*
X0050198Y0075012D01*
X0050796Y0075611D02*
X0046285Y0075611D01*
X0046880Y0076209D02*
X0051395Y0076209D01*
X0051993Y0076808D02*
X0047475Y0076808D01*
X0048070Y0077406D02*
X0052592Y0077406D01*
X0053190Y0078005D02*
X0048665Y0078005D01*
X0049260Y0078603D02*
X0053789Y0078603D01*
X0054387Y0079202D02*
X0049855Y0079202D01*
X0050451Y0079801D02*
X0054986Y0079801D01*
X0055584Y0080399D02*
X0050732Y0080399D01*
X0050731Y0080998D02*
X0056183Y0080998D01*
X0056782Y0081596D02*
X0050731Y0081596D01*
X0050731Y0082195D02*
X0057380Y0082195D01*
X0057979Y0082793D02*
X0050731Y0082793D01*
X0050731Y0083392D02*
X0058577Y0083392D01*
X0059176Y0083990D02*
X0050731Y0083990D01*
X0050731Y0084589D02*
X0059774Y0084589D01*
X0060373Y0085187D02*
X0050731Y0085187D01*
X0050731Y0085786D02*
X0060971Y0085786D01*
X0061570Y0086384D02*
X0050731Y0086384D01*
X0050731Y0086983D02*
X0062168Y0086983D01*
X0062491Y0087581D02*
X0050731Y0087581D01*
X0050731Y0088180D02*
X0062491Y0088180D01*
X0062635Y0088778D02*
X0050731Y0088778D01*
X0050731Y0089377D02*
X0062883Y0089377D01*
X0063479Y0089975D02*
X0050781Y0089975D01*
X0047931Y0087581D02*
X0047897Y0087581D01*
X0047931Y0086983D02*
X0047177Y0086983D01*
X0046456Y0086384D02*
X0047931Y0086384D01*
X0047931Y0085786D02*
X0045735Y0085786D01*
X0045014Y0085187D02*
X0047931Y0085187D01*
X0047931Y0084589D02*
X0044293Y0084589D01*
X0043572Y0083990D02*
X0047931Y0083990D01*
X0047931Y0083392D02*
X0042851Y0083392D01*
X0042130Y0082793D02*
X0047931Y0082793D01*
X0047931Y0082195D02*
X0041410Y0082195D01*
X0040689Y0081596D02*
X0047931Y0081596D01*
X0047692Y0080998D02*
X0039968Y0080998D01*
X0039247Y0080399D02*
X0047097Y0080399D01*
X0046502Y0079801D02*
X0038526Y0079801D01*
X0037805Y0079202D02*
X0045907Y0079202D01*
X0045312Y0078603D02*
X0037084Y0078603D01*
X0036364Y0078005D02*
X0044716Y0078005D01*
X0044121Y0077406D02*
X0035643Y0077406D01*
X0034922Y0076808D02*
X0043526Y0076808D01*
X0042931Y0076209D02*
X0034201Y0076209D01*
X0033480Y0075611D02*
X0042336Y0075611D01*
X0041741Y0075012D02*
X0032759Y0075012D01*
X0032038Y0074414D02*
X0041146Y0074414D01*
X0040551Y0073815D02*
X0031318Y0073815D01*
X0030597Y0073217D02*
X0039956Y0073217D01*
X0050931Y0071421D02*
X0059282Y0071421D01*
X0059282Y0070823D02*
X0050931Y0070823D01*
X0050931Y0070224D02*
X0059282Y0070224D01*
X0059282Y0069626D02*
X0050931Y0069626D01*
X0050931Y0069027D02*
X0059282Y0069027D01*
X0059282Y0068429D02*
X0050931Y0068429D01*
X0051165Y0072020D02*
X0059282Y0072020D01*
X0059282Y0072618D02*
X0051764Y0072618D01*
X0052362Y0073217D02*
X0059282Y0073217D01*
X0059282Y0073815D02*
X0052961Y0073815D01*
X0053559Y0074414D02*
X0059282Y0074414D01*
X0059282Y0075012D02*
X0054158Y0075012D01*
X0054756Y0075611D02*
X0059282Y0075611D01*
X0059282Y0076209D02*
X0055355Y0076209D01*
X0055953Y0076808D02*
X0059282Y0076808D01*
X0059282Y0077406D02*
X0056552Y0077406D01*
X0057150Y0078005D02*
X0059257Y0078005D01*
X0059282Y0078603D02*
X0057749Y0078603D01*
X0058347Y0079202D02*
X0059393Y0079202D01*
X0058946Y0079801D02*
X0060084Y0079801D01*
X0059544Y0080399D02*
X0061045Y0080399D01*
X0061883Y0080998D02*
X0060143Y0080998D01*
X0060741Y0081596D02*
X0062721Y0081596D01*
X0063559Y0082195D02*
X0061340Y0082195D01*
X0061938Y0082793D02*
X0063604Y0082793D01*
X0067524Y0088778D02*
X0075943Y0088778D01*
X0075943Y0089377D02*
X0067276Y0089377D01*
X0066680Y0089975D02*
X0075943Y0089975D01*
X0064446Y0042094D02*
X0033979Y0042094D01*
X0034577Y0041496D02*
X0063966Y0041496D01*
X0063487Y0040897D02*
X0056895Y0040897D01*
X0057494Y0040299D02*
X0063007Y0040299D01*
X0062528Y0039700D02*
X0057748Y0039700D01*
X0057899Y0039102D02*
X0062049Y0039102D01*
X0061555Y0038503D02*
X0057899Y0038503D01*
X0057733Y0037905D02*
X0061142Y0037905D01*
X0061203Y0037306D02*
X0057457Y0037306D01*
X0056859Y0036708D02*
X0061207Y0036708D01*
X0061211Y0036109D02*
X0056563Y0036109D01*
X0056563Y0035511D02*
X0061215Y0035511D01*
X0061219Y0034912D02*
X0056563Y0034912D01*
X0056563Y0034314D02*
X0061222Y0034314D01*
X0061226Y0033715D02*
X0056563Y0033715D01*
X0056563Y0033117D02*
X0061230Y0033117D01*
X0061234Y0032518D02*
X0056563Y0032518D01*
X0056563Y0031920D02*
X0061238Y0031920D01*
X0061242Y0031321D02*
X0056563Y0031321D01*
X0056563Y0030723D02*
X0060581Y0030723D01*
X0060223Y0030124D02*
X0056563Y0030124D01*
X0056563Y0029526D02*
X0059999Y0029526D01*
X0059999Y0028927D02*
X0056563Y0028927D01*
X0056563Y0028329D02*
X0060093Y0028329D01*
X0060341Y0027730D02*
X0056563Y0027730D01*
X0056563Y0027132D02*
X0060864Y0027132D01*
X0061944Y0026533D02*
X0056563Y0026533D01*
X0053763Y0026533D02*
X0051519Y0026533D01*
X0051519Y0025934D02*
X0053763Y0025934D01*
X0053763Y0025336D02*
X0051519Y0025336D01*
X0051519Y0024737D02*
X0053763Y0024737D01*
X0053763Y0024139D02*
X0051519Y0024139D01*
X0051519Y0023540D02*
X0053763Y0023540D01*
X0053763Y0022942D02*
X0051519Y0022942D01*
X0051519Y0022343D02*
X0053763Y0022343D01*
X0053763Y0021745D02*
X0051519Y0021745D01*
X0051519Y0021146D02*
X0053763Y0021146D01*
X0053763Y0020548D02*
X0051519Y0020548D01*
X0051519Y0019949D02*
X0053763Y0019949D01*
X0053763Y0019351D02*
X0051519Y0019351D01*
X0051519Y0018752D02*
X0053763Y0018752D01*
X0053763Y0018154D02*
X0051519Y0018154D01*
X0051519Y0017555D02*
X0053741Y0017555D01*
X0053741Y0016957D02*
X0051519Y0016957D01*
X0051519Y0016358D02*
X0053787Y0016358D01*
X0054386Y0015760D02*
X0051519Y0015760D01*
X0051519Y0015161D02*
X0055006Y0015161D01*
X0055605Y0014563D02*
X0051519Y0014563D01*
X0052033Y0013964D02*
X0056203Y0013964D01*
X0056802Y0013366D02*
X0052631Y0013366D01*
X0053230Y0012767D02*
X0057400Y0012767D01*
X0057999Y0012169D02*
X0053828Y0012169D01*
X0054427Y0011570D02*
X0058597Y0011570D01*
X0059196Y0010972D02*
X0055026Y0010972D01*
X0055624Y0010373D02*
X0086346Y0010373D01*
X0086221Y0010972D02*
X0086945Y0010972D01*
X0086818Y0011570D02*
X0087543Y0011570D01*
X0088089Y0012169D02*
X0086969Y0012169D01*
X0086969Y0012767D02*
X0088089Y0012767D01*
X0088089Y0013366D02*
X0086952Y0013366D01*
X0086952Y0013964D02*
X0088089Y0013964D01*
X0088089Y0014563D02*
X0087255Y0014563D01*
X0087771Y0015161D02*
X0088089Y0015161D01*
X0088089Y0015760D02*
X0088019Y0015760D01*
X0085552Y0016261D02*
X0085552Y0012324D01*
X0085569Y0012301D02*
X0059866Y0012282D01*
X0055141Y0017006D01*
X0055163Y0016962D02*
X0055163Y0039075D01*
X0053726Y0040897D02*
X0035176Y0040897D01*
X0035774Y0040299D02*
X0053127Y0040299D01*
X0052873Y0039700D02*
X0036373Y0039700D01*
X0036971Y0039102D02*
X0052722Y0039102D01*
X0052722Y0038503D02*
X0051116Y0038503D01*
X0051531Y0037905D02*
X0052888Y0037905D01*
X0053164Y0037306D02*
X0051531Y0037306D01*
X0051519Y0036708D02*
X0053762Y0036708D01*
X0053763Y0036109D02*
X0051519Y0036109D01*
X0051519Y0035511D02*
X0053763Y0035511D01*
X0053763Y0034912D02*
X0051519Y0034912D01*
X0051519Y0034314D02*
X0053763Y0034314D01*
X0053763Y0033715D02*
X0051519Y0033715D01*
X0051519Y0033117D02*
X0053763Y0033117D01*
X0053763Y0032518D02*
X0051519Y0032518D01*
X0051519Y0031920D02*
X0053763Y0031920D01*
X0053763Y0031321D02*
X0051519Y0031321D01*
X0051519Y0030723D02*
X0053763Y0030723D01*
X0053763Y0030124D02*
X0051519Y0030124D01*
X0051519Y0029526D02*
X0053763Y0029526D01*
X0053763Y0028927D02*
X0051519Y0028927D01*
X0051519Y0028329D02*
X0053763Y0028329D01*
X0053763Y0027730D02*
X0051519Y0027730D01*
X0051519Y0027132D02*
X0053763Y0027132D01*
X0056563Y0018752D02*
X0084221Y0018752D01*
X0083523Y0018154D02*
X0056563Y0018154D01*
X0056572Y0017555D02*
X0083158Y0017555D01*
X0082929Y0016957D02*
X0057171Y0016957D01*
X0057769Y0016358D02*
X0082929Y0016358D01*
X0083016Y0015760D02*
X0058368Y0015760D01*
X0058966Y0015161D02*
X0083264Y0015161D01*
X0083780Y0014563D02*
X0059565Y0014563D01*
X0060163Y0013964D02*
X0084152Y0013964D01*
X0089707Y0009775D02*
X0093808Y0009775D01*
X0093808Y0010373D02*
X0090306Y0010373D01*
X0090889Y0010972D02*
X0093808Y0010972D01*
X0093808Y0011570D02*
X0090889Y0011570D01*
X0090889Y0012169D02*
X0093808Y0012169D01*
X0093808Y0012767D02*
X0090889Y0012767D01*
X0090889Y0013366D02*
X0093808Y0013366D01*
X0093808Y0013964D02*
X0090889Y0013964D01*
X0090889Y0014563D02*
X0093808Y0014563D01*
X0093808Y0015161D02*
X0090889Y0015161D01*
X0090889Y0015760D02*
X0093808Y0015760D01*
X0093808Y0016358D02*
X0090889Y0016358D01*
X0090889Y0016957D02*
X0093808Y0016957D01*
X0093808Y0017555D02*
X0090928Y0017555D01*
X0091457Y0018154D02*
X0093808Y0018154D01*
X0093808Y0018752D02*
X0091705Y0018752D01*
X0091803Y0019351D02*
X0093808Y0019351D01*
X0093808Y0019949D02*
X0091803Y0019949D01*
X0091584Y0020548D02*
X0093808Y0020548D01*
X0093808Y0021146D02*
X0091232Y0021146D01*
X0090567Y0021745D02*
X0093808Y0021745D01*
X0060446Y0010882D02*
X0060446Y0010882D01*
X0041724Y0045128D02*
X0041724Y0051522D01*
D14*
X0041724Y0045128D03*
X0055310Y0038821D03*
X0061930Y0043820D03*
X0062588Y0029069D03*
X0075816Y0028045D03*
X0075830Y0025473D03*
X0078469Y0025473D03*
X0078454Y0028045D03*
X0081074Y0028045D03*
X0081089Y0025473D03*
X0081106Y0030693D03*
X0078486Y0030693D03*
X0075848Y0030693D03*
X0085517Y0016487D03*
X0089214Y0019503D03*
X0094213Y0009174D03*
X0087127Y0061930D03*
X0082402Y0076103D03*
X0087127Y0087914D03*
X0077641Y0094520D03*
X0066193Y0082356D03*
X0065080Y0087914D03*
X0062717Y0106024D03*
X0049413Y0092868D03*
X0028072Y0107599D03*
X0014686Y0077678D03*
X0022546Y0070562D03*
X0040670Y0017048D03*
D15*
X0023347Y0016261D02*
X0023347Y0028859D01*
X0015737Y0028309D02*
X0015737Y0062138D01*
X0016890Y0064922D02*
X0022560Y0070591D01*
X0022546Y0070562D02*
X0049413Y0092868D01*
X0016890Y0064922D02*
X0016804Y0064833D01*
X0016721Y0064742D01*
X0016640Y0064648D01*
X0016563Y0064551D01*
X0016489Y0064452D01*
X0016418Y0064351D01*
X0016350Y0064248D01*
X0016285Y0064142D01*
X0016224Y0064035D01*
X0016166Y0063925D01*
X0016112Y0063814D01*
X0016061Y0063702D01*
X0016013Y0063587D01*
X0015970Y0063472D01*
X0015930Y0063355D01*
X0015893Y0063236D01*
X0015861Y0063117D01*
X0015832Y0062997D01*
X0015807Y0062876D01*
X0015785Y0062754D01*
X0015768Y0062631D01*
X0015754Y0062509D01*
X0015745Y0062385D01*
X0015739Y0062262D01*
X0015737Y0062138D01*
X0015473Y0016261D02*
X0011536Y0016261D01*
D16*
X0062956Y0029031D02*
X0062902Y0037448D01*
X0077655Y0055866D01*
X0077641Y0094520D01*
M02*
