G75*
%MOIN*%
%OFA0B0*%
%FSLAX25Y25*%
%IPPOS*%
%LPD*%
%AMOC8*
5,1,8,0,0,1.08239X$1,22.5*
%
%ADD10R,0.05000X0.10000*%
%ADD11R,0.04799X0.08799*%
%ADD12R,0.14173X0.08661*%
%ADD13C,0.00256*%
%ADD14R,0.08268X0.08268*%
%ADD15R,0.05118X0.06299*%
%ADD16R,0.06299X0.05118*%
%ADD17C,0.00600*%
%ADD18C,0.02978*%
%ADD19C,0.04000*%
%ADD20C,0.01200*%
D10*
X0011875Y0123731D03*
X0011875Y0130981D03*
X0011875Y0136981D03*
X0018375Y0136981D03*
X0020375Y0136981D03*
X0020375Y0131731D03*
X0018375Y0131731D03*
X0018375Y0123481D03*
X0020375Y0123481D03*
X0028375Y0123481D03*
X0030375Y0123481D03*
X0030375Y0131731D03*
X0028375Y0131731D03*
X0028375Y0136981D03*
X0030375Y0136981D03*
X0038375Y0136981D03*
X0040375Y0136981D03*
X0040375Y0131731D03*
X0038375Y0131731D03*
X0038375Y0123481D03*
X0040375Y0123481D03*
X0048375Y0123481D03*
X0050375Y0123481D03*
X0050375Y0131731D03*
X0048375Y0131731D03*
X0048375Y0136981D03*
X0050375Y0136981D03*
X0058375Y0136981D03*
X0060375Y0136981D03*
X0060375Y0131731D03*
X0058375Y0131731D03*
X0058375Y0123481D03*
X0060375Y0123481D03*
X0068375Y0123481D03*
X0070375Y0123481D03*
X0070375Y0131731D03*
X0068375Y0131731D03*
X0068375Y0136981D03*
X0070375Y0136981D03*
X0078375Y0136981D03*
X0080375Y0136981D03*
X0080375Y0131731D03*
X0078375Y0131731D03*
X0078375Y0123481D03*
X0080375Y0123481D03*
X0088875Y0124731D03*
X0091875Y0124731D03*
X0091875Y0114731D03*
X0088875Y0114731D03*
D11*
X0031658Y0038698D03*
X0022560Y0038698D03*
X0013461Y0038698D03*
D12*
X0022560Y0014296D03*
D13*
X0069243Y0022766D02*
X0072451Y0022766D01*
X0069243Y0022766D02*
X0069243Y0023534D01*
X0072451Y0023534D01*
X0072451Y0022766D01*
X0072451Y0023021D02*
X0069243Y0023021D01*
X0069243Y0023276D02*
X0072451Y0023276D01*
X0072451Y0023531D02*
X0069243Y0023531D01*
X0069243Y0024735D02*
X0072451Y0024735D01*
X0069243Y0024735D02*
X0069243Y0025503D01*
X0072451Y0025503D01*
X0072451Y0024735D01*
X0072451Y0024990D02*
X0069243Y0024990D01*
X0069243Y0025245D02*
X0072451Y0025245D01*
X0072451Y0025500D02*
X0069243Y0025500D01*
X0069243Y0026703D02*
X0072451Y0026703D01*
X0069243Y0026703D02*
X0069243Y0027471D01*
X0072451Y0027471D01*
X0072451Y0026703D01*
X0072451Y0026958D02*
X0069243Y0026958D01*
X0069243Y0027213D02*
X0072451Y0027213D01*
X0072451Y0027468D02*
X0069243Y0027468D01*
X0069243Y0028672D02*
X0072451Y0028672D01*
X0069243Y0028672D02*
X0069243Y0029440D01*
X0072451Y0029440D01*
X0072451Y0028672D01*
X0072451Y0028927D02*
X0069243Y0028927D01*
X0069243Y0029182D02*
X0072451Y0029182D01*
X0072451Y0029437D02*
X0069243Y0029437D01*
X0069243Y0030640D02*
X0072451Y0030640D01*
X0069243Y0030640D02*
X0069243Y0031408D01*
X0072451Y0031408D01*
X0072451Y0030640D01*
X0072451Y0030895D02*
X0069243Y0030895D01*
X0069243Y0031150D02*
X0072451Y0031150D01*
X0072451Y0031405D02*
X0069243Y0031405D01*
X0069243Y0032609D02*
X0072451Y0032609D01*
X0069243Y0032609D02*
X0069243Y0033377D01*
X0072451Y0033377D01*
X0072451Y0032609D01*
X0072451Y0032864D02*
X0069243Y0032864D01*
X0069243Y0033119D02*
X0072451Y0033119D01*
X0072451Y0033374D02*
X0069243Y0033374D01*
X0073160Y0034086D02*
X0073160Y0037294D01*
X0073928Y0037294D01*
X0073928Y0034086D01*
X0073160Y0034086D01*
X0073160Y0034341D02*
X0073928Y0034341D01*
X0073928Y0034596D02*
X0073160Y0034596D01*
X0073160Y0034851D02*
X0073928Y0034851D01*
X0073928Y0035106D02*
X0073160Y0035106D01*
X0073160Y0035361D02*
X0073928Y0035361D01*
X0073928Y0035616D02*
X0073160Y0035616D01*
X0073160Y0035871D02*
X0073928Y0035871D01*
X0073928Y0036126D02*
X0073160Y0036126D01*
X0073160Y0036381D02*
X0073928Y0036381D01*
X0073928Y0036636D02*
X0073160Y0036636D01*
X0073160Y0036891D02*
X0073928Y0036891D01*
X0073928Y0037146D02*
X0073160Y0037146D01*
X0075129Y0037294D02*
X0075129Y0034086D01*
X0075129Y0037294D02*
X0075897Y0037294D01*
X0075897Y0034086D01*
X0075129Y0034086D01*
X0075129Y0034341D02*
X0075897Y0034341D01*
X0075897Y0034596D02*
X0075129Y0034596D01*
X0075129Y0034851D02*
X0075897Y0034851D01*
X0075897Y0035106D02*
X0075129Y0035106D01*
X0075129Y0035361D02*
X0075897Y0035361D01*
X0075897Y0035616D02*
X0075129Y0035616D01*
X0075129Y0035871D02*
X0075897Y0035871D01*
X0075897Y0036126D02*
X0075129Y0036126D01*
X0075129Y0036381D02*
X0075897Y0036381D01*
X0075897Y0036636D02*
X0075129Y0036636D01*
X0075129Y0036891D02*
X0075897Y0036891D01*
X0075897Y0037146D02*
X0075129Y0037146D01*
X0077097Y0037294D02*
X0077097Y0034086D01*
X0077097Y0037294D02*
X0077865Y0037294D01*
X0077865Y0034086D01*
X0077097Y0034086D01*
X0077097Y0034341D02*
X0077865Y0034341D01*
X0077865Y0034596D02*
X0077097Y0034596D01*
X0077097Y0034851D02*
X0077865Y0034851D01*
X0077865Y0035106D02*
X0077097Y0035106D01*
X0077097Y0035361D02*
X0077865Y0035361D01*
X0077865Y0035616D02*
X0077097Y0035616D01*
X0077097Y0035871D02*
X0077865Y0035871D01*
X0077865Y0036126D02*
X0077097Y0036126D01*
X0077097Y0036381D02*
X0077865Y0036381D01*
X0077865Y0036636D02*
X0077097Y0036636D01*
X0077097Y0036891D02*
X0077865Y0036891D01*
X0077865Y0037146D02*
X0077097Y0037146D01*
X0079066Y0037294D02*
X0079066Y0034086D01*
X0079066Y0037294D02*
X0079834Y0037294D01*
X0079834Y0034086D01*
X0079066Y0034086D01*
X0079066Y0034341D02*
X0079834Y0034341D01*
X0079834Y0034596D02*
X0079066Y0034596D01*
X0079066Y0034851D02*
X0079834Y0034851D01*
X0079834Y0035106D02*
X0079066Y0035106D01*
X0079066Y0035361D02*
X0079834Y0035361D01*
X0079834Y0035616D02*
X0079066Y0035616D01*
X0079066Y0035871D02*
X0079834Y0035871D01*
X0079834Y0036126D02*
X0079066Y0036126D01*
X0079066Y0036381D02*
X0079834Y0036381D01*
X0079834Y0036636D02*
X0079066Y0036636D01*
X0079066Y0036891D02*
X0079834Y0036891D01*
X0079834Y0037146D02*
X0079066Y0037146D01*
X0081034Y0037294D02*
X0081034Y0034086D01*
X0081034Y0037294D02*
X0081802Y0037294D01*
X0081802Y0034086D01*
X0081034Y0034086D01*
X0081034Y0034341D02*
X0081802Y0034341D01*
X0081802Y0034596D02*
X0081034Y0034596D01*
X0081034Y0034851D02*
X0081802Y0034851D01*
X0081802Y0035106D02*
X0081034Y0035106D01*
X0081034Y0035361D02*
X0081802Y0035361D01*
X0081802Y0035616D02*
X0081034Y0035616D01*
X0081034Y0035871D02*
X0081802Y0035871D01*
X0081802Y0036126D02*
X0081034Y0036126D01*
X0081034Y0036381D02*
X0081802Y0036381D01*
X0081802Y0036636D02*
X0081034Y0036636D01*
X0081034Y0036891D02*
X0081802Y0036891D01*
X0081802Y0037146D02*
X0081034Y0037146D01*
X0083003Y0037294D02*
X0083003Y0034086D01*
X0083003Y0037294D02*
X0083771Y0037294D01*
X0083771Y0034086D01*
X0083003Y0034086D01*
X0083003Y0034341D02*
X0083771Y0034341D01*
X0083771Y0034596D02*
X0083003Y0034596D01*
X0083003Y0034851D02*
X0083771Y0034851D01*
X0083771Y0035106D02*
X0083003Y0035106D01*
X0083003Y0035361D02*
X0083771Y0035361D01*
X0083771Y0035616D02*
X0083003Y0035616D01*
X0083003Y0035871D02*
X0083771Y0035871D01*
X0083771Y0036126D02*
X0083003Y0036126D01*
X0083003Y0036381D02*
X0083771Y0036381D01*
X0083771Y0036636D02*
X0083003Y0036636D01*
X0083003Y0036891D02*
X0083771Y0036891D01*
X0083771Y0037146D02*
X0083003Y0037146D01*
X0084479Y0032609D02*
X0087687Y0032609D01*
X0084479Y0032609D02*
X0084479Y0033377D01*
X0087687Y0033377D01*
X0087687Y0032609D01*
X0087687Y0032864D02*
X0084479Y0032864D01*
X0084479Y0033119D02*
X0087687Y0033119D01*
X0087687Y0033374D02*
X0084479Y0033374D01*
X0084479Y0030640D02*
X0087687Y0030640D01*
X0084479Y0030640D02*
X0084479Y0031408D01*
X0087687Y0031408D01*
X0087687Y0030640D01*
X0087687Y0030895D02*
X0084479Y0030895D01*
X0084479Y0031150D02*
X0087687Y0031150D01*
X0087687Y0031405D02*
X0084479Y0031405D01*
X0084479Y0028672D02*
X0087687Y0028672D01*
X0084479Y0028672D02*
X0084479Y0029440D01*
X0087687Y0029440D01*
X0087687Y0028672D01*
X0087687Y0028927D02*
X0084479Y0028927D01*
X0084479Y0029182D02*
X0087687Y0029182D01*
X0087687Y0029437D02*
X0084479Y0029437D01*
X0084479Y0026703D02*
X0087687Y0026703D01*
X0084479Y0026703D02*
X0084479Y0027471D01*
X0087687Y0027471D01*
X0087687Y0026703D01*
X0087687Y0026958D02*
X0084479Y0026958D01*
X0084479Y0027213D02*
X0087687Y0027213D01*
X0087687Y0027468D02*
X0084479Y0027468D01*
X0084479Y0024735D02*
X0087687Y0024735D01*
X0084479Y0024735D02*
X0084479Y0025503D01*
X0087687Y0025503D01*
X0087687Y0024735D01*
X0087687Y0024990D02*
X0084479Y0024990D01*
X0084479Y0025245D02*
X0087687Y0025245D01*
X0087687Y0025500D02*
X0084479Y0025500D01*
X0084479Y0022766D02*
X0087687Y0022766D01*
X0084479Y0022766D02*
X0084479Y0023534D01*
X0087687Y0023534D01*
X0087687Y0022766D01*
X0087687Y0023021D02*
X0084479Y0023021D01*
X0084479Y0023276D02*
X0087687Y0023276D01*
X0087687Y0023531D02*
X0084479Y0023531D01*
X0083003Y0022058D02*
X0083003Y0018850D01*
X0083003Y0022058D02*
X0083771Y0022058D01*
X0083771Y0018850D01*
X0083003Y0018850D01*
X0083003Y0019105D02*
X0083771Y0019105D01*
X0083771Y0019360D02*
X0083003Y0019360D01*
X0083003Y0019615D02*
X0083771Y0019615D01*
X0083771Y0019870D02*
X0083003Y0019870D01*
X0083003Y0020125D02*
X0083771Y0020125D01*
X0083771Y0020380D02*
X0083003Y0020380D01*
X0083003Y0020635D02*
X0083771Y0020635D01*
X0083771Y0020890D02*
X0083003Y0020890D01*
X0083003Y0021145D02*
X0083771Y0021145D01*
X0083771Y0021400D02*
X0083003Y0021400D01*
X0083003Y0021655D02*
X0083771Y0021655D01*
X0083771Y0021910D02*
X0083003Y0021910D01*
X0081034Y0022058D02*
X0081034Y0018850D01*
X0081034Y0022058D02*
X0081802Y0022058D01*
X0081802Y0018850D01*
X0081034Y0018850D01*
X0081034Y0019105D02*
X0081802Y0019105D01*
X0081802Y0019360D02*
X0081034Y0019360D01*
X0081034Y0019615D02*
X0081802Y0019615D01*
X0081802Y0019870D02*
X0081034Y0019870D01*
X0081034Y0020125D02*
X0081802Y0020125D01*
X0081802Y0020380D02*
X0081034Y0020380D01*
X0081034Y0020635D02*
X0081802Y0020635D01*
X0081802Y0020890D02*
X0081034Y0020890D01*
X0081034Y0021145D02*
X0081802Y0021145D01*
X0081802Y0021400D02*
X0081034Y0021400D01*
X0081034Y0021655D02*
X0081802Y0021655D01*
X0081802Y0021910D02*
X0081034Y0021910D01*
X0079066Y0022058D02*
X0079066Y0018850D01*
X0079066Y0022058D02*
X0079834Y0022058D01*
X0079834Y0018850D01*
X0079066Y0018850D01*
X0079066Y0019105D02*
X0079834Y0019105D01*
X0079834Y0019360D02*
X0079066Y0019360D01*
X0079066Y0019615D02*
X0079834Y0019615D01*
X0079834Y0019870D02*
X0079066Y0019870D01*
X0079066Y0020125D02*
X0079834Y0020125D01*
X0079834Y0020380D02*
X0079066Y0020380D01*
X0079066Y0020635D02*
X0079834Y0020635D01*
X0079834Y0020890D02*
X0079066Y0020890D01*
X0079066Y0021145D02*
X0079834Y0021145D01*
X0079834Y0021400D02*
X0079066Y0021400D01*
X0079066Y0021655D02*
X0079834Y0021655D01*
X0079834Y0021910D02*
X0079066Y0021910D01*
X0077097Y0022058D02*
X0077097Y0018850D01*
X0077097Y0022058D02*
X0077865Y0022058D01*
X0077865Y0018850D01*
X0077097Y0018850D01*
X0077097Y0019105D02*
X0077865Y0019105D01*
X0077865Y0019360D02*
X0077097Y0019360D01*
X0077097Y0019615D02*
X0077865Y0019615D01*
X0077865Y0019870D02*
X0077097Y0019870D01*
X0077097Y0020125D02*
X0077865Y0020125D01*
X0077865Y0020380D02*
X0077097Y0020380D01*
X0077097Y0020635D02*
X0077865Y0020635D01*
X0077865Y0020890D02*
X0077097Y0020890D01*
X0077097Y0021145D02*
X0077865Y0021145D01*
X0077865Y0021400D02*
X0077097Y0021400D01*
X0077097Y0021655D02*
X0077865Y0021655D01*
X0077865Y0021910D02*
X0077097Y0021910D01*
X0075129Y0022058D02*
X0075129Y0018850D01*
X0075129Y0022058D02*
X0075897Y0022058D01*
X0075897Y0018850D01*
X0075129Y0018850D01*
X0075129Y0019105D02*
X0075897Y0019105D01*
X0075897Y0019360D02*
X0075129Y0019360D01*
X0075129Y0019615D02*
X0075897Y0019615D01*
X0075897Y0019870D02*
X0075129Y0019870D01*
X0075129Y0020125D02*
X0075897Y0020125D01*
X0075897Y0020380D02*
X0075129Y0020380D01*
X0075129Y0020635D02*
X0075897Y0020635D01*
X0075897Y0020890D02*
X0075129Y0020890D01*
X0075129Y0021145D02*
X0075897Y0021145D01*
X0075897Y0021400D02*
X0075129Y0021400D01*
X0075129Y0021655D02*
X0075897Y0021655D01*
X0075897Y0021910D02*
X0075129Y0021910D01*
X0073160Y0022058D02*
X0073160Y0018850D01*
X0073160Y0022058D02*
X0073928Y0022058D01*
X0073928Y0018850D01*
X0073160Y0018850D01*
X0073160Y0019105D02*
X0073928Y0019105D01*
X0073928Y0019360D02*
X0073160Y0019360D01*
X0073160Y0019615D02*
X0073928Y0019615D01*
X0073928Y0019870D02*
X0073160Y0019870D01*
X0073160Y0020125D02*
X0073928Y0020125D01*
X0073928Y0020380D02*
X0073160Y0020380D01*
X0073160Y0020635D02*
X0073928Y0020635D01*
X0073928Y0020890D02*
X0073160Y0020890D01*
X0073160Y0021145D02*
X0073928Y0021145D01*
X0073928Y0021400D02*
X0073160Y0021400D01*
X0073160Y0021655D02*
X0073928Y0021655D01*
X0073928Y0021910D02*
X0073160Y0021910D01*
D14*
X0078465Y0028072D03*
D15*
X0084765Y0049331D03*
X0092639Y0049331D03*
X0059568Y0020198D03*
X0051694Y0020198D03*
X0021772Y0050119D03*
X0013898Y0050119D03*
D16*
X0043032Y0035158D03*
X0043032Y0027284D03*
D17*
X0009681Y0009310D02*
X0009681Y0080926D01*
X0010066Y0081086D01*
X0011276Y0082295D01*
X0011931Y0083876D01*
X0011931Y0102836D01*
X0011276Y0104417D01*
X0010066Y0105626D01*
X0009781Y0105745D01*
X0009781Y0117631D01*
X0014830Y0117631D01*
X0015000Y0117800D01*
X0015419Y0117381D01*
X0017710Y0117381D01*
X0017710Y0083980D01*
X0017708Y0083279D01*
X0017710Y0083276D01*
X0017710Y0083273D01*
X0018206Y0082777D01*
X0030222Y0070677D01*
X0030222Y0070673D01*
X0030717Y0070178D01*
X0031212Y0069680D01*
X0031215Y0069680D01*
X0031218Y0069678D01*
X0031920Y0069678D01*
X0032620Y0069675D01*
X0032623Y0069678D01*
X0054013Y0069678D01*
X0054041Y0069650D01*
X0066701Y0069650D01*
X0070817Y0065708D01*
X0070817Y0042715D01*
X0068242Y0040068D01*
X0067752Y0039574D01*
X0067752Y0039564D01*
X0067745Y0039557D01*
X0067755Y0038861D01*
X0067776Y0032710D01*
X0066219Y0032710D01*
X0062327Y0036378D01*
X0061847Y0036858D01*
X0061817Y0036858D01*
X0061796Y0036878D01*
X0061117Y0036858D01*
X0057009Y0036858D01*
X0057505Y0037354D01*
X0057899Y0038306D01*
X0057899Y0039336D01*
X0057505Y0040287D01*
X0056777Y0041016D01*
X0055825Y0041410D01*
X0054795Y0041410D01*
X0053844Y0041016D01*
X0053317Y0040489D01*
X0051327Y0040494D01*
X0044313Y0045102D01*
X0044313Y0045643D01*
X0043919Y0046594D01*
X0043191Y0047323D01*
X0042239Y0047717D01*
X0041209Y0047717D01*
X0040258Y0047323D01*
X0039529Y0046594D01*
X0039135Y0045643D01*
X0039135Y0044613D01*
X0039529Y0043661D01*
X0040258Y0042933D01*
X0041209Y0042539D01*
X0042239Y0042539D01*
X0042776Y0042761D01*
X0050016Y0038005D01*
X0050323Y0037697D01*
X0050486Y0037696D01*
X0050622Y0037607D01*
X0051048Y0037695D01*
X0052977Y0037690D01*
X0053116Y0037354D01*
X0053612Y0036858D01*
X0047282Y0036858D01*
X0047282Y0038173D01*
X0046638Y0038817D01*
X0044988Y0038817D01*
X0044436Y0039046D01*
X0035158Y0039046D01*
X0035158Y0043553D01*
X0034514Y0044197D01*
X0034321Y0044197D01*
X0034321Y0046011D01*
X0033849Y0047150D01*
X0032977Y0048023D01*
X0029040Y0051960D01*
X0027901Y0052431D01*
X0025843Y0052431D01*
X0025639Y0071212D01*
X0025155Y0072346D01*
X0024274Y0073209D01*
X0023129Y0073668D01*
X0021896Y0073655D01*
X0020762Y0073171D01*
X0019899Y0072289D01*
X0019440Y0071145D01*
X0019621Y0054368D01*
X0018758Y0054368D01*
X0018113Y0053724D01*
X0018113Y0046514D01*
X0018758Y0045869D01*
X0024787Y0045869D01*
X0025149Y0046231D01*
X0026000Y0046231D01*
X0028121Y0044110D01*
X0028121Y0036904D01*
X0028159Y0036814D01*
X0028159Y0036653D01*
X0028121Y0036562D01*
X0028121Y0035329D01*
X0028159Y0035239D01*
X0028159Y0033842D01*
X0028803Y0033198D01*
X0029754Y0033198D01*
X0030605Y0032846D01*
X0038783Y0032846D01*
X0038783Y0032144D01*
X0039427Y0031499D01*
X0046638Y0031499D01*
X0047282Y0032144D01*
X0047282Y0033458D01*
X0060468Y0033458D01*
X0062378Y0031658D01*
X0062073Y0031658D01*
X0061122Y0031263D01*
X0060394Y0030535D01*
X0059999Y0029584D01*
X0059999Y0028554D01*
X0060394Y0027602D01*
X0061122Y0026874D01*
X0062073Y0026480D01*
X0063103Y0026480D01*
X0064055Y0026874D01*
X0064488Y0027307D01*
X0068015Y0027324D01*
X0068015Y0026195D01*
X0068107Y0026103D01*
X0068015Y0026011D01*
X0068015Y0024226D01*
X0068107Y0024135D01*
X0068015Y0024043D01*
X0068015Y0022258D01*
X0068734Y0021539D01*
X0071932Y0021539D01*
X0071932Y0018341D01*
X0072652Y0017621D01*
X0074437Y0017621D01*
X0074528Y0017713D01*
X0074620Y0017621D01*
X0076405Y0017621D01*
X0076497Y0017713D01*
X0076589Y0017621D01*
X0077729Y0017621D01*
X0077729Y0016597D01*
X0077693Y0016565D01*
X0077674Y0016123D01*
X0076362Y0014811D01*
X0072180Y0014811D01*
X0066233Y0019873D01*
X0065784Y0020323D01*
X0065705Y0020323D01*
X0065645Y0020374D01*
X0065011Y0020323D01*
X0063227Y0020323D01*
X0063227Y0023803D01*
X0062582Y0024447D01*
X0056553Y0024447D01*
X0055909Y0023803D01*
X0055909Y0017642D01*
X0055353Y0017003D01*
X0055353Y0023803D01*
X0054708Y0024447D01*
X0048679Y0024447D01*
X0048035Y0023803D01*
X0048035Y0016592D01*
X0048679Y0015948D01*
X0054434Y0015948D01*
X0053499Y0014875D01*
X0030746Y0015003D01*
X0030746Y0019082D01*
X0030102Y0019727D01*
X0015018Y0019727D01*
X0014373Y0019082D01*
X0014373Y0009510D01*
X0014565Y0009318D01*
X0009681Y0009310D01*
X0009681Y0009775D02*
X0014373Y0009775D01*
X0014373Y0010373D02*
X0009681Y0010373D01*
X0009681Y0010972D02*
X0014373Y0010972D01*
X0014373Y0011570D02*
X0009681Y0011570D01*
X0009681Y0012169D02*
X0014373Y0012169D01*
X0014373Y0012767D02*
X0009681Y0012767D01*
X0009681Y0013366D02*
X0014373Y0013366D01*
X0014373Y0013964D02*
X0009681Y0013964D01*
X0009681Y0014563D02*
X0014373Y0014563D01*
X0014373Y0015161D02*
X0009681Y0015161D01*
X0009681Y0015760D02*
X0014373Y0015760D01*
X0014373Y0016358D02*
X0009681Y0016358D01*
X0009681Y0016957D02*
X0014373Y0016957D01*
X0014373Y0017555D02*
X0009681Y0017555D01*
X0009681Y0018154D02*
X0014373Y0018154D01*
X0014373Y0018752D02*
X0009681Y0018752D01*
X0009681Y0019351D02*
X0014642Y0019351D01*
X0009681Y0019949D02*
X0048035Y0019949D01*
X0048035Y0019351D02*
X0030478Y0019351D01*
X0030746Y0018752D02*
X0048035Y0018752D01*
X0048035Y0018154D02*
X0030746Y0018154D01*
X0030746Y0017555D02*
X0048035Y0017555D01*
X0048035Y0016957D02*
X0030746Y0016957D01*
X0030746Y0016358D02*
X0048269Y0016358D01*
X0048035Y0020548D02*
X0009681Y0020548D01*
X0009681Y0021146D02*
X0048035Y0021146D01*
X0048035Y0021745D02*
X0009681Y0021745D01*
X0009681Y0022343D02*
X0048035Y0022343D01*
X0048035Y0022942D02*
X0009681Y0022942D01*
X0009681Y0023540D02*
X0048035Y0023540D01*
X0048371Y0024139D02*
X0047151Y0024139D01*
X0047282Y0024270D02*
X0047282Y0030299D01*
X0046638Y0030943D01*
X0039427Y0030943D01*
X0038783Y0030299D01*
X0038783Y0024270D01*
X0039427Y0023625D01*
X0046638Y0023625D01*
X0047282Y0024270D01*
X0047282Y0024737D02*
X0068015Y0024737D01*
X0068015Y0025336D02*
X0047282Y0025336D01*
X0047282Y0025934D02*
X0068015Y0025934D01*
X0068015Y0026533D02*
X0063232Y0026533D01*
X0064313Y0027132D02*
X0068015Y0027132D01*
X0068102Y0024139D02*
X0062891Y0024139D01*
X0063227Y0023540D02*
X0068015Y0023540D01*
X0068015Y0022942D02*
X0063227Y0022942D01*
X0063227Y0022343D02*
X0068015Y0022343D01*
X0068528Y0021745D02*
X0063227Y0021745D01*
X0063227Y0021146D02*
X0071932Y0021146D01*
X0071932Y0020548D02*
X0063227Y0020548D01*
X0066157Y0019949D02*
X0071932Y0019949D01*
X0071932Y0019351D02*
X0066847Y0019351D01*
X0067550Y0018752D02*
X0071932Y0018752D01*
X0072119Y0018154D02*
X0068253Y0018154D01*
X0068956Y0017555D02*
X0077729Y0017555D01*
X0077729Y0016957D02*
X0069659Y0016957D01*
X0070362Y0016358D02*
X0077684Y0016358D01*
X0077311Y0015760D02*
X0071066Y0015760D01*
X0071769Y0015161D02*
X0076713Y0015161D01*
X0081453Y0017210D02*
X0082402Y0016261D01*
X0085552Y0016261D01*
X0083190Y0019410D02*
X0089489Y0019410D01*
X0088748Y0023213D02*
X0085599Y0023213D01*
X0088748Y0023213D02*
X0091110Y0025575D01*
X0091064Y0037520D01*
X0089489Y0039095D01*
X0085552Y0039095D01*
X0080040Y0044607D01*
X0080040Y0054843D01*
X0087127Y0061930D01*
X0087908Y0059451D02*
X0091726Y0059451D01*
X0091726Y0058853D02*
X0086029Y0058853D01*
X0086545Y0059369D02*
X0086612Y0059341D01*
X0087642Y0059341D01*
X0088593Y0059735D01*
X0089322Y0060463D01*
X0089716Y0061415D01*
X0089716Y0062445D01*
X0089322Y0063396D01*
X0088593Y0064125D01*
X0087642Y0064519D01*
X0086612Y0064519D01*
X0085660Y0064125D01*
X0084932Y0063396D01*
X0084538Y0062445D01*
X0084538Y0061415D01*
X0084565Y0061348D01*
X0079460Y0056243D01*
X0079318Y0056101D01*
X0079318Y0072888D01*
X0078322Y0073884D01*
X0078293Y0073884D01*
X0075441Y0076797D01*
X0075441Y0076807D01*
X0074949Y0077299D01*
X0074463Y0077796D01*
X0074452Y0077796D01*
X0074445Y0077803D01*
X0073750Y0077803D01*
X0073055Y0077810D01*
X0073047Y0077803D01*
X0051610Y0077803D01*
X0040795Y0088618D01*
X0040795Y0117381D01*
X0043330Y0117381D01*
X0043975Y0118025D01*
X0043975Y0138181D01*
X0044775Y0138181D01*
X0044775Y0118025D01*
X0045419Y0117381D01*
X0046313Y0117381D01*
X0046313Y0092252D01*
X0046785Y0091112D01*
X0047657Y0090240D01*
X0048796Y0089768D01*
X0050029Y0089768D01*
X0051169Y0090240D01*
X0052041Y0091112D01*
X0052513Y0092252D01*
X0052513Y0117381D01*
X0053330Y0117381D01*
X0053975Y0118025D01*
X0053975Y0138181D01*
X0054775Y0138181D01*
X0054775Y0118025D01*
X0055419Y0117381D01*
X0063330Y0117381D01*
X0063975Y0118025D01*
X0063975Y0138181D01*
X0064775Y0138181D01*
X0064775Y0118025D01*
X0065419Y0117381D01*
X0067510Y0117381D01*
X0067510Y0102707D01*
X0067474Y0102666D01*
X0067510Y0102011D01*
X0067510Y0101354D01*
X0067549Y0101315D01*
X0067552Y0101260D01*
X0068042Y0100823D01*
X0068506Y0100358D01*
X0068561Y0100358D01*
X0075052Y0094555D01*
X0075052Y0094005D01*
X0075446Y0093054D01*
X0076175Y0092326D01*
X0077126Y0091931D01*
X0078156Y0091931D01*
X0079108Y0092326D01*
X0079836Y0093054D01*
X0080230Y0094005D01*
X0080230Y0095035D01*
X0079836Y0095987D01*
X0079108Y0096715D01*
X0078156Y0097109D01*
X0077296Y0097109D01*
X0070910Y0102819D01*
X0070910Y0117381D01*
X0073330Y0117381D01*
X0073975Y0118025D01*
X0073975Y0138181D01*
X0074775Y0138181D01*
X0074775Y0118025D01*
X0075419Y0117381D01*
X0083330Y0117381D01*
X0083975Y0118025D01*
X0083975Y0135577D01*
X0089066Y0130831D01*
X0085919Y0130831D01*
X0085275Y0130187D01*
X0085275Y0109275D01*
X0085919Y0108631D01*
X0093808Y0108631D01*
X0093808Y0078125D01*
X0088825Y0083108D01*
X0088825Y0083110D01*
X0088327Y0083606D01*
X0087831Y0084102D01*
X0087829Y0084102D01*
X0087827Y0084104D01*
X0087126Y0084102D01*
X0086423Y0084102D01*
X0086421Y0084101D01*
X0068150Y0084060D01*
X0067660Y0084551D01*
X0066708Y0084945D01*
X0065678Y0084945D01*
X0064727Y0084551D01*
X0063999Y0083822D01*
X0063604Y0082871D01*
X0063604Y0081841D01*
X0063999Y0080889D01*
X0064727Y0080161D01*
X0065678Y0079767D01*
X0066708Y0079767D01*
X0067660Y0080161D01*
X0068159Y0080660D01*
X0086424Y0080701D01*
X0091726Y0075399D01*
X0091726Y0053581D01*
X0089624Y0053581D01*
X0088980Y0052937D01*
X0088980Y0045726D01*
X0089624Y0045082D01*
X0091726Y0045082D01*
X0091726Y0038838D01*
X0090069Y0040495D01*
X0088909Y0040495D01*
X0086132Y0040495D01*
X0081592Y0045035D01*
X0081704Y0044970D01*
X0082034Y0044882D01*
X0084465Y0044882D01*
X0084465Y0049031D01*
X0085065Y0049031D01*
X0085065Y0049032D02*
X0085065Y0049631D01*
X0088624Y0049631D01*
X0088624Y0052652D01*
X0088535Y0052983D01*
X0088364Y0053279D01*
X0088122Y0053521D01*
X0087825Y0053692D01*
X0087495Y0053781D01*
X0085065Y0053781D01*
X0085065Y0049632D01*
X0084465Y0049632D01*
X0084465Y0053781D01*
X0082034Y0053781D01*
X0081704Y0053692D01*
X0081440Y0053540D01*
X0081440Y0054263D01*
X0086545Y0059369D01*
X0085431Y0058254D02*
X0091726Y0058254D01*
X0091726Y0057656D02*
X0084832Y0057656D01*
X0084234Y0057057D02*
X0091726Y0057057D01*
X0091726Y0056459D02*
X0083635Y0056459D01*
X0083037Y0055860D02*
X0091726Y0055860D01*
X0091726Y0055262D02*
X0082438Y0055262D01*
X0081840Y0054663D02*
X0091726Y0054663D01*
X0091726Y0054065D02*
X0081440Y0054065D01*
X0079676Y0056459D02*
X0079318Y0056459D01*
X0079318Y0057057D02*
X0080274Y0057057D01*
X0080873Y0057656D02*
X0079318Y0057656D01*
X0079318Y0058254D02*
X0081471Y0058254D01*
X0082070Y0058853D02*
X0079318Y0058853D01*
X0079318Y0059451D02*
X0082668Y0059451D01*
X0083267Y0060050D02*
X0079318Y0060050D01*
X0079318Y0060648D02*
X0083865Y0060648D01*
X0084464Y0061247D02*
X0079318Y0061247D01*
X0079318Y0061845D02*
X0084538Y0061845D01*
X0084538Y0062444D02*
X0079318Y0062444D01*
X0079318Y0063042D02*
X0084785Y0063042D01*
X0085176Y0063641D02*
X0079318Y0063641D01*
X0079318Y0064239D02*
X0085937Y0064239D01*
X0088317Y0064239D02*
X0091726Y0064239D01*
X0091726Y0063641D02*
X0089077Y0063641D01*
X0089468Y0063042D02*
X0091726Y0063042D01*
X0091726Y0062444D02*
X0089716Y0062444D01*
X0089716Y0061845D02*
X0091726Y0061845D01*
X0091726Y0061247D02*
X0089646Y0061247D01*
X0089398Y0060648D02*
X0091726Y0060648D01*
X0091726Y0060050D02*
X0088908Y0060050D01*
X0091726Y0064838D02*
X0079318Y0064838D01*
X0079318Y0065436D02*
X0091726Y0065436D01*
X0091726Y0066035D02*
X0079318Y0066035D01*
X0079318Y0066633D02*
X0091726Y0066633D01*
X0091726Y0067232D02*
X0079318Y0067232D01*
X0079318Y0067830D02*
X0091726Y0067830D01*
X0091726Y0068429D02*
X0079318Y0068429D01*
X0079318Y0069027D02*
X0091726Y0069027D01*
X0091726Y0069626D02*
X0079318Y0069626D01*
X0079318Y0070224D02*
X0091726Y0070224D01*
X0091726Y0070823D02*
X0079318Y0070823D01*
X0079318Y0071421D02*
X0091726Y0071421D01*
X0091726Y0072020D02*
X0079318Y0072020D01*
X0079318Y0072618D02*
X0091726Y0072618D01*
X0091726Y0073217D02*
X0078989Y0073217D01*
X0078391Y0073815D02*
X0091726Y0073815D01*
X0091726Y0074414D02*
X0077774Y0074414D01*
X0077188Y0075012D02*
X0091726Y0075012D01*
X0091514Y0075611D02*
X0076602Y0075611D01*
X0076016Y0076209D02*
X0090916Y0076209D01*
X0090317Y0076808D02*
X0075440Y0076808D01*
X0074844Y0077406D02*
X0089719Y0077406D01*
X0089120Y0078005D02*
X0051409Y0078005D01*
X0050810Y0078603D02*
X0088521Y0078603D01*
X0087923Y0079202D02*
X0050212Y0079202D01*
X0049613Y0079801D02*
X0065597Y0079801D01*
X0064489Y0080399D02*
X0049015Y0080399D01*
X0048416Y0080998D02*
X0063954Y0080998D01*
X0063706Y0081596D02*
X0047818Y0081596D01*
X0047219Y0082195D02*
X0063604Y0082195D01*
X0063604Y0082793D02*
X0046621Y0082793D01*
X0046022Y0083392D02*
X0063820Y0083392D01*
X0064166Y0083990D02*
X0045424Y0083990D01*
X0044825Y0084589D02*
X0064819Y0084589D01*
X0064565Y0085325D02*
X0065595Y0085325D01*
X0066546Y0085719D01*
X0067274Y0086448D01*
X0067302Y0086514D01*
X0084904Y0086514D01*
X0084932Y0086448D01*
X0085660Y0085719D01*
X0086612Y0085325D01*
X0087642Y0085325D01*
X0088593Y0085719D01*
X0089322Y0086448D01*
X0089716Y0087399D01*
X0089716Y0088429D01*
X0089322Y0089381D01*
X0088593Y0090109D01*
X0087642Y0090503D01*
X0086612Y0090503D01*
X0085660Y0090109D01*
X0084932Y0089381D01*
X0084904Y0089314D01*
X0067302Y0089314D01*
X0067274Y0089381D01*
X0066546Y0090109D01*
X0065595Y0090503D01*
X0064565Y0090503D01*
X0063613Y0090109D01*
X0062885Y0089381D01*
X0062491Y0088429D01*
X0062491Y0087399D01*
X0062885Y0086448D01*
X0063613Y0085719D01*
X0064565Y0085325D01*
X0063547Y0085786D02*
X0043628Y0085786D01*
X0043029Y0086384D02*
X0062948Y0086384D01*
X0062663Y0086983D02*
X0042431Y0086983D01*
X0041832Y0087581D02*
X0062491Y0087581D01*
X0062491Y0088180D02*
X0041234Y0088180D01*
X0040795Y0088778D02*
X0062635Y0088778D01*
X0062883Y0089377D02*
X0040795Y0089377D01*
X0040795Y0089975D02*
X0048297Y0089975D01*
X0047323Y0090574D02*
X0040795Y0090574D01*
X0040795Y0091172D02*
X0046760Y0091172D01*
X0046512Y0091771D02*
X0040795Y0091771D01*
X0040795Y0092369D02*
X0046313Y0092369D01*
X0046313Y0092968D02*
X0040795Y0092968D01*
X0040795Y0093566D02*
X0046313Y0093566D01*
X0046313Y0094165D02*
X0040795Y0094165D01*
X0040795Y0094763D02*
X0046313Y0094763D01*
X0046313Y0095362D02*
X0040795Y0095362D01*
X0040795Y0095960D02*
X0046313Y0095960D01*
X0046313Y0096559D02*
X0040795Y0096559D01*
X0040795Y0097157D02*
X0046313Y0097157D01*
X0046313Y0097756D02*
X0040795Y0097756D01*
X0040795Y0098354D02*
X0046313Y0098354D01*
X0046313Y0098953D02*
X0040795Y0098953D01*
X0040795Y0099551D02*
X0046313Y0099551D01*
X0046313Y0100150D02*
X0040795Y0100150D01*
X0040795Y0100748D02*
X0046313Y0100748D01*
X0046313Y0101347D02*
X0040795Y0101347D01*
X0040795Y0101945D02*
X0046313Y0101945D01*
X0046313Y0102544D02*
X0040795Y0102544D01*
X0040795Y0103142D02*
X0046313Y0103142D01*
X0046313Y0103741D02*
X0040795Y0103741D01*
X0040795Y0104339D02*
X0046313Y0104339D01*
X0046313Y0104938D02*
X0040795Y0104938D01*
X0040795Y0105536D02*
X0046313Y0105536D01*
X0046313Y0106135D02*
X0040795Y0106135D01*
X0040795Y0106734D02*
X0046313Y0106734D01*
X0046313Y0107332D02*
X0040795Y0107332D01*
X0040795Y0107931D02*
X0046313Y0107931D01*
X0046313Y0108529D02*
X0040795Y0108529D01*
X0040795Y0109128D02*
X0046313Y0109128D01*
X0046313Y0109726D02*
X0040795Y0109726D01*
X0040795Y0110325D02*
X0046313Y0110325D01*
X0046313Y0110923D02*
X0040795Y0110923D01*
X0040795Y0111522D02*
X0046313Y0111522D01*
X0046313Y0112120D02*
X0040795Y0112120D01*
X0040795Y0112719D02*
X0046313Y0112719D01*
X0046313Y0113317D02*
X0040795Y0113317D01*
X0040795Y0113916D02*
X0046313Y0113916D01*
X0046313Y0114514D02*
X0040795Y0114514D01*
X0040795Y0115113D02*
X0046313Y0115113D01*
X0046313Y0115711D02*
X0040795Y0115711D01*
X0040795Y0116310D02*
X0046313Y0116310D01*
X0046313Y0116908D02*
X0040795Y0116908D01*
X0043456Y0117507D02*
X0045294Y0117507D01*
X0044775Y0118105D02*
X0043975Y0118105D01*
X0043975Y0118704D02*
X0044775Y0118704D01*
X0044775Y0119302D02*
X0043975Y0119302D01*
X0043975Y0119901D02*
X0044775Y0119901D01*
X0044775Y0120499D02*
X0043975Y0120499D01*
X0043975Y0121098D02*
X0044775Y0121098D01*
X0044775Y0121696D02*
X0043975Y0121696D01*
X0043975Y0122295D02*
X0044775Y0122295D01*
X0044775Y0122893D02*
X0043975Y0122893D01*
X0043975Y0123492D02*
X0044775Y0123492D01*
X0044775Y0124090D02*
X0043975Y0124090D01*
X0043975Y0124689D02*
X0044775Y0124689D01*
X0044775Y0125287D02*
X0043975Y0125287D01*
X0043975Y0125886D02*
X0044775Y0125886D01*
X0044775Y0126484D02*
X0043975Y0126484D01*
X0043975Y0127083D02*
X0044775Y0127083D01*
X0044775Y0127681D02*
X0043975Y0127681D01*
X0043975Y0128280D02*
X0044775Y0128280D01*
X0044775Y0128878D02*
X0043975Y0128878D01*
X0043975Y0129477D02*
X0044775Y0129477D01*
X0044775Y0130075D02*
X0043975Y0130075D01*
X0043975Y0130674D02*
X0044775Y0130674D01*
X0044775Y0131272D02*
X0043975Y0131272D01*
X0043975Y0131871D02*
X0044775Y0131871D01*
X0044775Y0132470D02*
X0043975Y0132470D01*
X0043975Y0133068D02*
X0044775Y0133068D01*
X0044775Y0133667D02*
X0043975Y0133667D01*
X0043975Y0134265D02*
X0044775Y0134265D01*
X0044775Y0134864D02*
X0043975Y0134864D01*
X0043975Y0135462D02*
X0044775Y0135462D01*
X0044775Y0136061D02*
X0043975Y0136061D01*
X0043975Y0136659D02*
X0044775Y0136659D01*
X0044775Y0137258D02*
X0043975Y0137258D01*
X0043975Y0137856D02*
X0044775Y0137856D01*
X0053975Y0137856D02*
X0054775Y0137856D01*
X0054775Y0137258D02*
X0053975Y0137258D01*
X0053975Y0136659D02*
X0054775Y0136659D01*
X0054775Y0136061D02*
X0053975Y0136061D01*
X0053975Y0135462D02*
X0054775Y0135462D01*
X0054775Y0134864D02*
X0053975Y0134864D01*
X0053975Y0134265D02*
X0054775Y0134265D01*
X0054775Y0133667D02*
X0053975Y0133667D01*
X0053975Y0133068D02*
X0054775Y0133068D01*
X0054775Y0132470D02*
X0053975Y0132470D01*
X0053975Y0131871D02*
X0054775Y0131871D01*
X0054775Y0131272D02*
X0053975Y0131272D01*
X0053975Y0130674D02*
X0054775Y0130674D01*
X0054775Y0130075D02*
X0053975Y0130075D01*
X0053975Y0129477D02*
X0054775Y0129477D01*
X0054775Y0128878D02*
X0053975Y0128878D01*
X0053975Y0128280D02*
X0054775Y0128280D01*
X0054775Y0127681D02*
X0053975Y0127681D01*
X0053975Y0127083D02*
X0054775Y0127083D01*
X0054775Y0126484D02*
X0053975Y0126484D01*
X0053975Y0125886D02*
X0054775Y0125886D01*
X0054775Y0125287D02*
X0053975Y0125287D01*
X0053975Y0124689D02*
X0054775Y0124689D01*
X0054775Y0124090D02*
X0053975Y0124090D01*
X0053975Y0123492D02*
X0054775Y0123492D01*
X0054775Y0122893D02*
X0053975Y0122893D01*
X0053975Y0122295D02*
X0054775Y0122295D01*
X0054775Y0121696D02*
X0053975Y0121696D01*
X0053975Y0121098D02*
X0054775Y0121098D01*
X0054775Y0120499D02*
X0053975Y0120499D01*
X0053975Y0119901D02*
X0054775Y0119901D01*
X0054775Y0119302D02*
X0053975Y0119302D01*
X0053975Y0118704D02*
X0054775Y0118704D01*
X0054775Y0118105D02*
X0053975Y0118105D01*
X0053456Y0117507D02*
X0055294Y0117507D01*
X0052513Y0116908D02*
X0067510Y0116908D01*
X0067510Y0116310D02*
X0052513Y0116310D01*
X0052513Y0115711D02*
X0067510Y0115711D01*
X0067510Y0115113D02*
X0052513Y0115113D01*
X0052513Y0114514D02*
X0067510Y0114514D01*
X0067510Y0113916D02*
X0052513Y0113916D01*
X0052513Y0113317D02*
X0067510Y0113317D01*
X0067510Y0112719D02*
X0052513Y0112719D01*
X0052513Y0112120D02*
X0067510Y0112120D01*
X0067510Y0111522D02*
X0052513Y0111522D01*
X0052513Y0110923D02*
X0067510Y0110923D01*
X0067510Y0110325D02*
X0052513Y0110325D01*
X0052513Y0109726D02*
X0067510Y0109726D01*
X0067510Y0109128D02*
X0052513Y0109128D01*
X0052513Y0108529D02*
X0067510Y0108529D01*
X0067510Y0107931D02*
X0052513Y0107931D01*
X0052513Y0107332D02*
X0067510Y0107332D01*
X0067510Y0106734D02*
X0052513Y0106734D01*
X0052513Y0106135D02*
X0067510Y0106135D01*
X0067510Y0105536D02*
X0052513Y0105536D01*
X0052513Y0104938D02*
X0067510Y0104938D01*
X0067510Y0104339D02*
X0052513Y0104339D01*
X0052513Y0103741D02*
X0067510Y0103741D01*
X0067510Y0103142D02*
X0052513Y0103142D01*
X0052513Y0102544D02*
X0067480Y0102544D01*
X0067510Y0101945D02*
X0052513Y0101945D01*
X0052513Y0101347D02*
X0067517Y0101347D01*
X0068116Y0100748D02*
X0052513Y0100748D01*
X0052513Y0100150D02*
X0068794Y0100150D01*
X0069464Y0099551D02*
X0052513Y0099551D01*
X0052513Y0098953D02*
X0070133Y0098953D01*
X0070802Y0098354D02*
X0052513Y0098354D01*
X0052513Y0097756D02*
X0071472Y0097756D01*
X0072141Y0097157D02*
X0052513Y0097157D01*
X0052513Y0096559D02*
X0072811Y0096559D01*
X0073480Y0095960D02*
X0052513Y0095960D01*
X0052513Y0095362D02*
X0074150Y0095362D01*
X0074819Y0094763D02*
X0052513Y0094763D01*
X0052513Y0094165D02*
X0075052Y0094165D01*
X0075234Y0093566D02*
X0052513Y0093566D01*
X0052513Y0092968D02*
X0075532Y0092968D01*
X0076131Y0092369D02*
X0052513Y0092369D01*
X0052313Y0091771D02*
X0093808Y0091771D01*
X0093808Y0092369D02*
X0079151Y0092369D01*
X0079750Y0092968D02*
X0093808Y0092968D01*
X0093808Y0093566D02*
X0080048Y0093566D01*
X0080230Y0094165D02*
X0093808Y0094165D01*
X0093808Y0094763D02*
X0080230Y0094763D01*
X0080095Y0095362D02*
X0093808Y0095362D01*
X0093808Y0095960D02*
X0079847Y0095960D01*
X0079264Y0096559D02*
X0093808Y0096559D01*
X0093808Y0097157D02*
X0077242Y0097157D01*
X0076573Y0097756D02*
X0093808Y0097756D01*
X0093808Y0098354D02*
X0075904Y0098354D01*
X0075234Y0098953D02*
X0093808Y0098953D01*
X0093808Y0099551D02*
X0074565Y0099551D01*
X0073895Y0100150D02*
X0093808Y0100150D01*
X0093808Y0100748D02*
X0073226Y0100748D01*
X0072556Y0101347D02*
X0093808Y0101347D01*
X0093808Y0101945D02*
X0071887Y0101945D01*
X0071218Y0102544D02*
X0093808Y0102544D01*
X0093808Y0103142D02*
X0070910Y0103142D01*
X0070910Y0103741D02*
X0093808Y0103741D01*
X0093808Y0104339D02*
X0070910Y0104339D01*
X0070910Y0104938D02*
X0093808Y0104938D01*
X0093808Y0105536D02*
X0070910Y0105536D01*
X0070910Y0106135D02*
X0093808Y0106135D01*
X0093808Y0106734D02*
X0070910Y0106734D01*
X0070910Y0107332D02*
X0093808Y0107332D01*
X0093808Y0107931D02*
X0070910Y0107931D01*
X0070910Y0108529D02*
X0093808Y0108529D01*
X0085423Y0109128D02*
X0070910Y0109128D01*
X0070910Y0109726D02*
X0085275Y0109726D01*
X0085275Y0110325D02*
X0070910Y0110325D01*
X0070910Y0110923D02*
X0085275Y0110923D01*
X0085275Y0111522D02*
X0070910Y0111522D01*
X0070910Y0112120D02*
X0085275Y0112120D01*
X0085275Y0112719D02*
X0070910Y0112719D01*
X0070910Y0113317D02*
X0085275Y0113317D01*
X0085275Y0113916D02*
X0070910Y0113916D01*
X0070910Y0114514D02*
X0085275Y0114514D01*
X0085275Y0115113D02*
X0070910Y0115113D01*
X0070910Y0115711D02*
X0085275Y0115711D01*
X0085275Y0116310D02*
X0070910Y0116310D01*
X0070910Y0116908D02*
X0085275Y0116908D01*
X0085275Y0117507D02*
X0083456Y0117507D01*
X0083975Y0118105D02*
X0085275Y0118105D01*
X0085275Y0118704D02*
X0083975Y0118704D01*
X0083975Y0119302D02*
X0085275Y0119302D01*
X0085275Y0119901D02*
X0083975Y0119901D01*
X0083975Y0120499D02*
X0085275Y0120499D01*
X0085275Y0121098D02*
X0083975Y0121098D01*
X0083975Y0121696D02*
X0085275Y0121696D01*
X0085275Y0122295D02*
X0083975Y0122295D01*
X0083975Y0122893D02*
X0085275Y0122893D01*
X0085275Y0123492D02*
X0083975Y0123492D01*
X0083975Y0124090D02*
X0085275Y0124090D01*
X0085275Y0124689D02*
X0083975Y0124689D01*
X0083975Y0125287D02*
X0085275Y0125287D01*
X0085275Y0125886D02*
X0083975Y0125886D01*
X0083975Y0126484D02*
X0085275Y0126484D01*
X0085275Y0127083D02*
X0083975Y0127083D01*
X0083975Y0127681D02*
X0085275Y0127681D01*
X0085275Y0128280D02*
X0083975Y0128280D01*
X0083975Y0128878D02*
X0085275Y0128878D01*
X0085275Y0129477D02*
X0083975Y0129477D01*
X0083975Y0130075D02*
X0085275Y0130075D01*
X0085762Y0130674D02*
X0083975Y0130674D01*
X0083975Y0131272D02*
X0088593Y0131272D01*
X0087951Y0131871D02*
X0083975Y0131871D01*
X0083975Y0132470D02*
X0087309Y0132470D01*
X0086667Y0133068D02*
X0083975Y0133068D01*
X0083975Y0133667D02*
X0086024Y0133667D01*
X0085382Y0134265D02*
X0083975Y0134265D01*
X0083975Y0134864D02*
X0084740Y0134864D01*
X0084098Y0135462D02*
X0083975Y0135462D01*
X0074775Y0135462D02*
X0073975Y0135462D01*
X0073975Y0134864D02*
X0074775Y0134864D01*
X0074775Y0134265D02*
X0073975Y0134265D01*
X0073975Y0133667D02*
X0074775Y0133667D01*
X0074775Y0133068D02*
X0073975Y0133068D01*
X0073975Y0132470D02*
X0074775Y0132470D01*
X0074775Y0131871D02*
X0073975Y0131871D01*
X0073975Y0131272D02*
X0074775Y0131272D01*
X0074775Y0130674D02*
X0073975Y0130674D01*
X0073975Y0130075D02*
X0074775Y0130075D01*
X0074775Y0129477D02*
X0073975Y0129477D01*
X0073975Y0128878D02*
X0074775Y0128878D01*
X0074775Y0128280D02*
X0073975Y0128280D01*
X0073975Y0127681D02*
X0074775Y0127681D01*
X0074775Y0127083D02*
X0073975Y0127083D01*
X0073975Y0126484D02*
X0074775Y0126484D01*
X0074775Y0125886D02*
X0073975Y0125886D01*
X0073975Y0125287D02*
X0074775Y0125287D01*
X0074775Y0124689D02*
X0073975Y0124689D01*
X0073975Y0124090D02*
X0074775Y0124090D01*
X0074775Y0123492D02*
X0073975Y0123492D01*
X0073975Y0122893D02*
X0074775Y0122893D01*
X0074775Y0122295D02*
X0073975Y0122295D01*
X0073975Y0121696D02*
X0074775Y0121696D01*
X0074775Y0121098D02*
X0073975Y0121098D01*
X0073975Y0120499D02*
X0074775Y0120499D01*
X0074775Y0119901D02*
X0073975Y0119901D01*
X0073975Y0119302D02*
X0074775Y0119302D01*
X0074775Y0118704D02*
X0073975Y0118704D01*
X0073975Y0118105D02*
X0074775Y0118105D01*
X0075294Y0117507D02*
X0073456Y0117507D01*
X0065294Y0117507D02*
X0063456Y0117507D01*
X0063975Y0118105D02*
X0064775Y0118105D01*
X0064775Y0118704D02*
X0063975Y0118704D01*
X0063975Y0119302D02*
X0064775Y0119302D01*
X0064775Y0119901D02*
X0063975Y0119901D01*
X0063975Y0120499D02*
X0064775Y0120499D01*
X0064775Y0121098D02*
X0063975Y0121098D01*
X0063975Y0121696D02*
X0064775Y0121696D01*
X0064775Y0122295D02*
X0063975Y0122295D01*
X0063975Y0122893D02*
X0064775Y0122893D01*
X0064775Y0123492D02*
X0063975Y0123492D01*
X0063975Y0124090D02*
X0064775Y0124090D01*
X0064775Y0124689D02*
X0063975Y0124689D01*
X0063975Y0125287D02*
X0064775Y0125287D01*
X0064775Y0125886D02*
X0063975Y0125886D01*
X0063975Y0126484D02*
X0064775Y0126484D01*
X0064775Y0127083D02*
X0063975Y0127083D01*
X0063975Y0127681D02*
X0064775Y0127681D01*
X0064775Y0128280D02*
X0063975Y0128280D01*
X0063975Y0128878D02*
X0064775Y0128878D01*
X0064775Y0129477D02*
X0063975Y0129477D01*
X0063975Y0130075D02*
X0064775Y0130075D01*
X0064775Y0130674D02*
X0063975Y0130674D01*
X0063975Y0131272D02*
X0064775Y0131272D01*
X0064775Y0131871D02*
X0063975Y0131871D01*
X0063975Y0132470D02*
X0064775Y0132470D01*
X0064775Y0133068D02*
X0063975Y0133068D01*
X0063975Y0133667D02*
X0064775Y0133667D01*
X0064775Y0134265D02*
X0063975Y0134265D01*
X0063975Y0134864D02*
X0064775Y0134864D01*
X0064775Y0135462D02*
X0063975Y0135462D01*
X0063975Y0136061D02*
X0064775Y0136061D01*
X0064775Y0136659D02*
X0063975Y0136659D01*
X0063975Y0137258D02*
X0064775Y0137258D01*
X0064775Y0137856D02*
X0063975Y0137856D01*
X0073975Y0137856D02*
X0074775Y0137856D01*
X0074775Y0137258D02*
X0073975Y0137258D01*
X0073975Y0136659D02*
X0074775Y0136659D01*
X0074775Y0136061D02*
X0073975Y0136061D01*
X0093808Y0091172D02*
X0052065Y0091172D01*
X0051502Y0090574D02*
X0093808Y0090574D01*
X0093808Y0089975D02*
X0088727Y0089975D01*
X0089323Y0089377D02*
X0093808Y0089377D01*
X0093808Y0088778D02*
X0089571Y0088778D01*
X0089716Y0088180D02*
X0093808Y0088180D01*
X0093808Y0087581D02*
X0089716Y0087581D01*
X0089543Y0086983D02*
X0093808Y0086983D01*
X0093808Y0086384D02*
X0089258Y0086384D01*
X0088660Y0085786D02*
X0093808Y0085786D01*
X0093808Y0085187D02*
X0044226Y0085187D01*
X0041812Y0082793D02*
X0022982Y0082793D01*
X0023576Y0082195D02*
X0042411Y0082195D01*
X0043009Y0081596D02*
X0024171Y0081596D01*
X0024765Y0080998D02*
X0043608Y0080998D01*
X0044206Y0080399D02*
X0025359Y0080399D01*
X0025954Y0079801D02*
X0044805Y0079801D01*
X0045403Y0079202D02*
X0026548Y0079202D01*
X0027142Y0078603D02*
X0046002Y0078603D01*
X0046600Y0078005D02*
X0027737Y0078005D01*
X0028331Y0077406D02*
X0047199Y0077406D01*
X0047797Y0076808D02*
X0028925Y0076808D01*
X0029520Y0076209D02*
X0048396Y0076209D01*
X0048994Y0075611D02*
X0030114Y0075611D01*
X0030708Y0075012D02*
X0049593Y0075012D01*
X0049206Y0075399D02*
X0050202Y0074403D01*
X0073026Y0074403D01*
X0075918Y0071450D01*
X0075918Y0047051D01*
X0075742Y0040071D01*
X0075716Y0040044D01*
X0075724Y0039372D01*
X0075707Y0038700D01*
X0075733Y0038673D01*
X0075735Y0038522D01*
X0074620Y0038522D01*
X0074528Y0038430D01*
X0074437Y0038522D01*
X0072652Y0038522D01*
X0071932Y0037803D01*
X0071932Y0034605D01*
X0071170Y0034605D01*
X0071157Y0038188D01*
X0073728Y0040831D01*
X0074217Y0041321D01*
X0074217Y0041334D01*
X0074227Y0041344D01*
X0074217Y0042037D01*
X0074217Y0065752D01*
X0074232Y0065767D01*
X0074217Y0066453D01*
X0074217Y0067138D01*
X0074202Y0067154D01*
X0074202Y0067175D01*
X0073706Y0067649D01*
X0073222Y0068134D01*
X0073200Y0068134D01*
X0068572Y0072565D01*
X0068087Y0073050D01*
X0068066Y0073050D01*
X0068050Y0073064D01*
X0067365Y0073050D01*
X0055489Y0073050D01*
X0055461Y0073078D01*
X0032630Y0073078D01*
X0021110Y0084678D01*
X0021110Y0117381D01*
X0023330Y0117381D01*
X0023975Y0118025D01*
X0023975Y0138181D01*
X0024775Y0138181D01*
X0024775Y0118025D01*
X0025419Y0117381D01*
X0033330Y0117381D01*
X0033975Y0118025D01*
X0033975Y0138181D01*
X0034775Y0138181D01*
X0034775Y0118025D01*
X0035419Y0117381D01*
X0037395Y0117381D01*
X0037395Y0087210D01*
X0049206Y0075399D01*
X0050191Y0074414D02*
X0031303Y0074414D01*
X0031897Y0073815D02*
X0073602Y0073815D01*
X0074188Y0073217D02*
X0032491Y0073217D01*
X0030671Y0070224D02*
X0025650Y0070224D01*
X0025656Y0069626D02*
X0066725Y0069626D01*
X0067351Y0069027D02*
X0025663Y0069027D01*
X0025669Y0068429D02*
X0067976Y0068429D01*
X0068601Y0067830D02*
X0025676Y0067830D01*
X0025682Y0067232D02*
X0069226Y0067232D01*
X0069851Y0066633D02*
X0025689Y0066633D01*
X0025695Y0066035D02*
X0070476Y0066035D01*
X0070817Y0065436D02*
X0025702Y0065436D01*
X0025708Y0064838D02*
X0070817Y0064838D01*
X0070817Y0064239D02*
X0025715Y0064239D01*
X0025721Y0063641D02*
X0070817Y0063641D01*
X0070817Y0063042D02*
X0025728Y0063042D01*
X0025734Y0062444D02*
X0070817Y0062444D01*
X0070817Y0061845D02*
X0025741Y0061845D01*
X0025747Y0061247D02*
X0070817Y0061247D01*
X0070817Y0060648D02*
X0025754Y0060648D01*
X0025760Y0060050D02*
X0070817Y0060050D01*
X0070817Y0059451D02*
X0025767Y0059451D01*
X0025773Y0058853D02*
X0070817Y0058853D01*
X0070817Y0058254D02*
X0025780Y0058254D01*
X0025786Y0057656D02*
X0070817Y0057656D01*
X0070817Y0057057D02*
X0025793Y0057057D01*
X0025799Y0056459D02*
X0070817Y0056459D01*
X0070817Y0055860D02*
X0025806Y0055860D01*
X0025812Y0055262D02*
X0070817Y0055262D01*
X0070817Y0054663D02*
X0025819Y0054663D01*
X0025825Y0054065D02*
X0070817Y0054065D01*
X0070817Y0053466D02*
X0025832Y0053466D01*
X0025838Y0052867D02*
X0070817Y0052867D01*
X0070817Y0052269D02*
X0028293Y0052269D01*
X0029329Y0051670D02*
X0070817Y0051670D01*
X0070817Y0051072D02*
X0029928Y0051072D01*
X0030526Y0050473D02*
X0070817Y0050473D01*
X0070817Y0049875D02*
X0031125Y0049875D01*
X0031723Y0049276D02*
X0070817Y0049276D01*
X0070817Y0048678D02*
X0032322Y0048678D01*
X0032920Y0048079D02*
X0070817Y0048079D01*
X0070817Y0047481D02*
X0042809Y0047481D01*
X0043631Y0046882D02*
X0070817Y0046882D01*
X0070817Y0046284D02*
X0044048Y0046284D01*
X0044295Y0045685D02*
X0070817Y0045685D01*
X0070817Y0045087D02*
X0044336Y0045087D01*
X0045247Y0044488D02*
X0070817Y0044488D01*
X0070817Y0043890D02*
X0046158Y0043890D01*
X0047069Y0043291D02*
X0070817Y0043291D01*
X0070796Y0042693D02*
X0047980Y0042693D01*
X0048891Y0042094D02*
X0070213Y0042094D01*
X0069631Y0041496D02*
X0049802Y0041496D01*
X0050713Y0040897D02*
X0053726Y0040897D01*
X0055146Y0039084D02*
X0050906Y0039095D01*
X0041724Y0045128D01*
X0039899Y0043291D02*
X0035158Y0043291D01*
X0035158Y0042693D02*
X0040837Y0042693D01*
X0042611Y0042693D02*
X0042881Y0042693D01*
X0043792Y0042094D02*
X0035158Y0042094D01*
X0035158Y0041496D02*
X0044703Y0041496D01*
X0045614Y0040897D02*
X0035158Y0040897D01*
X0035158Y0040299D02*
X0046525Y0040299D01*
X0047436Y0039700D02*
X0035158Y0039700D01*
X0035158Y0039102D02*
X0048347Y0039102D01*
X0049258Y0038503D02*
X0046952Y0038503D01*
X0047282Y0037905D02*
X0050116Y0037905D01*
X0047282Y0037306D02*
X0053164Y0037306D01*
X0056895Y0040897D02*
X0069049Y0040897D01*
X0068467Y0040299D02*
X0057494Y0040299D01*
X0057748Y0039700D02*
X0067877Y0039700D01*
X0067751Y0039102D02*
X0057899Y0039102D01*
X0057899Y0038503D02*
X0067756Y0038503D01*
X0067758Y0037905D02*
X0057733Y0037905D01*
X0057457Y0037306D02*
X0067760Y0037306D01*
X0067762Y0036708D02*
X0061997Y0036708D01*
X0062612Y0036109D02*
X0067764Y0036109D01*
X0067766Y0035511D02*
X0063247Y0035511D01*
X0063882Y0034912D02*
X0067768Y0034912D01*
X0067771Y0034314D02*
X0064517Y0034314D01*
X0065153Y0033715D02*
X0067773Y0033715D01*
X0067775Y0033117D02*
X0065788Y0033117D01*
X0062100Y0031920D02*
X0047058Y0031920D01*
X0047282Y0032518D02*
X0061465Y0032518D01*
X0060830Y0033117D02*
X0047282Y0033117D01*
X0046858Y0030723D02*
X0060581Y0030723D01*
X0060223Y0030124D02*
X0047282Y0030124D01*
X0047282Y0029526D02*
X0059999Y0029526D01*
X0059999Y0028927D02*
X0047282Y0028927D01*
X0047282Y0028329D02*
X0060093Y0028329D01*
X0060341Y0027730D02*
X0047282Y0027730D01*
X0047282Y0027132D02*
X0060864Y0027132D01*
X0061944Y0026533D02*
X0047282Y0026533D01*
X0055017Y0024139D02*
X0056245Y0024139D01*
X0055909Y0023540D02*
X0055353Y0023540D01*
X0055353Y0022942D02*
X0055909Y0022942D01*
X0055909Y0022343D02*
X0055353Y0022343D01*
X0055353Y0021745D02*
X0055909Y0021745D01*
X0055909Y0021146D02*
X0055353Y0021146D01*
X0055353Y0020548D02*
X0055909Y0020548D01*
X0055909Y0019949D02*
X0055353Y0019949D01*
X0055353Y0019351D02*
X0055909Y0019351D01*
X0055909Y0018752D02*
X0055353Y0018752D01*
X0055353Y0018154D02*
X0055909Y0018154D01*
X0055833Y0017555D02*
X0055353Y0017555D01*
X0054270Y0015760D02*
X0030746Y0015760D01*
X0030746Y0015161D02*
X0053749Y0015161D01*
X0061261Y0031321D02*
X0009681Y0031321D01*
X0009681Y0030723D02*
X0039206Y0030723D01*
X0038783Y0030124D02*
X0009681Y0030124D01*
X0009681Y0029526D02*
X0038783Y0029526D01*
X0038783Y0028927D02*
X0009681Y0028927D01*
X0009681Y0028329D02*
X0038783Y0028329D01*
X0038783Y0027730D02*
X0009681Y0027730D01*
X0009681Y0027132D02*
X0038783Y0027132D01*
X0038783Y0026533D02*
X0009681Y0026533D01*
X0009681Y0025934D02*
X0038783Y0025934D01*
X0038783Y0025336D02*
X0009681Y0025336D01*
X0009681Y0024737D02*
X0038783Y0024737D01*
X0038913Y0024139D02*
X0009681Y0024139D01*
X0009681Y0031920D02*
X0039007Y0031920D01*
X0038783Y0032518D02*
X0009681Y0032518D01*
X0009681Y0033117D02*
X0029950Y0033117D01*
X0028286Y0033715D02*
X0025932Y0033715D01*
X0026059Y0033842D02*
X0025415Y0033198D01*
X0019705Y0033198D01*
X0019060Y0033842D01*
X0019060Y0043553D01*
X0019705Y0044197D01*
X0025415Y0044197D01*
X0026059Y0043553D01*
X0026059Y0033842D01*
X0026059Y0034314D02*
X0028159Y0034314D01*
X0028159Y0034912D02*
X0026059Y0034912D01*
X0026059Y0035511D02*
X0028121Y0035511D01*
X0028121Y0036109D02*
X0026059Y0036109D01*
X0026059Y0036708D02*
X0028159Y0036708D01*
X0028121Y0037306D02*
X0026059Y0037306D01*
X0026059Y0037905D02*
X0028121Y0037905D01*
X0028121Y0038503D02*
X0026059Y0038503D01*
X0026059Y0039102D02*
X0028121Y0039102D01*
X0028121Y0039700D02*
X0026059Y0039700D01*
X0026059Y0040299D02*
X0028121Y0040299D01*
X0028121Y0040897D02*
X0026059Y0040897D01*
X0026059Y0041496D02*
X0028121Y0041496D01*
X0028121Y0042094D02*
X0026059Y0042094D01*
X0026059Y0042693D02*
X0028121Y0042693D01*
X0028121Y0043291D02*
X0026059Y0043291D01*
X0025722Y0043890D02*
X0028121Y0043890D01*
X0027743Y0044488D02*
X0009681Y0044488D01*
X0009681Y0043890D02*
X0010299Y0043890D01*
X0010606Y0044197D02*
X0009962Y0043553D01*
X0009962Y0033842D01*
X0010606Y0033198D01*
X0016317Y0033198D01*
X0016961Y0033842D01*
X0016961Y0043553D01*
X0016317Y0044197D01*
X0010606Y0044197D01*
X0009962Y0043291D02*
X0009681Y0043291D01*
X0009681Y0042693D02*
X0009962Y0042693D01*
X0009962Y0042094D02*
X0009681Y0042094D01*
X0009681Y0041496D02*
X0009962Y0041496D01*
X0009962Y0040897D02*
X0009681Y0040897D01*
X0009681Y0040299D02*
X0009962Y0040299D01*
X0009962Y0039700D02*
X0009681Y0039700D01*
X0009681Y0039102D02*
X0009962Y0039102D01*
X0009962Y0038503D02*
X0009681Y0038503D01*
X0009681Y0037905D02*
X0009962Y0037905D01*
X0009962Y0037306D02*
X0009681Y0037306D01*
X0009681Y0036708D02*
X0009962Y0036708D01*
X0009962Y0036109D02*
X0009681Y0036109D01*
X0009681Y0035511D02*
X0009962Y0035511D01*
X0009962Y0034912D02*
X0009681Y0034912D01*
X0009681Y0034314D02*
X0009962Y0034314D01*
X0010089Y0033715D02*
X0009681Y0033715D01*
X0016834Y0033715D02*
X0019187Y0033715D01*
X0019060Y0034314D02*
X0016961Y0034314D01*
X0016961Y0034912D02*
X0019060Y0034912D01*
X0019060Y0035511D02*
X0016961Y0035511D01*
X0016961Y0036109D02*
X0019060Y0036109D01*
X0019060Y0036708D02*
X0016961Y0036708D01*
X0016961Y0037306D02*
X0019060Y0037306D01*
X0019060Y0037905D02*
X0016961Y0037905D01*
X0016961Y0038503D02*
X0019060Y0038503D01*
X0019060Y0039102D02*
X0016961Y0039102D01*
X0016961Y0039700D02*
X0019060Y0039700D01*
X0019060Y0040299D02*
X0016961Y0040299D01*
X0016961Y0040897D02*
X0019060Y0040897D01*
X0019060Y0041496D02*
X0016961Y0041496D01*
X0016961Y0042094D02*
X0019060Y0042094D01*
X0019060Y0042693D02*
X0016961Y0042693D01*
X0016961Y0043291D02*
X0019060Y0043291D01*
X0019397Y0043890D02*
X0016624Y0043890D01*
X0016913Y0045869D02*
X0017557Y0046514D01*
X0017557Y0053724D01*
X0016913Y0054368D01*
X0010884Y0054368D01*
X0010239Y0053724D01*
X0010239Y0046514D01*
X0010884Y0045869D01*
X0016913Y0045869D01*
X0017328Y0046284D02*
X0018343Y0046284D01*
X0018113Y0046882D02*
X0017557Y0046882D01*
X0017557Y0047481D02*
X0018113Y0047481D01*
X0018113Y0048079D02*
X0017557Y0048079D01*
X0017557Y0048678D02*
X0018113Y0048678D01*
X0018113Y0049276D02*
X0017557Y0049276D01*
X0017557Y0049875D02*
X0018113Y0049875D01*
X0018113Y0050473D02*
X0017557Y0050473D01*
X0017557Y0051072D02*
X0018113Y0051072D01*
X0018113Y0051670D02*
X0017557Y0051670D01*
X0017557Y0052269D02*
X0018113Y0052269D01*
X0018113Y0052867D02*
X0017557Y0052867D01*
X0017557Y0053466D02*
X0018113Y0053466D01*
X0018454Y0054065D02*
X0017217Y0054065D01*
X0019618Y0054663D02*
X0009681Y0054663D01*
X0009681Y0054065D02*
X0010580Y0054065D01*
X0010239Y0053466D02*
X0009681Y0053466D01*
X0009681Y0052867D02*
X0010239Y0052867D01*
X0010239Y0052269D02*
X0009681Y0052269D01*
X0009681Y0051670D02*
X0010239Y0051670D01*
X0010239Y0051072D02*
X0009681Y0051072D01*
X0009681Y0050473D02*
X0010239Y0050473D01*
X0010239Y0049875D02*
X0009681Y0049875D01*
X0009681Y0049276D02*
X0010239Y0049276D01*
X0010239Y0048678D02*
X0009681Y0048678D01*
X0009681Y0048079D02*
X0010239Y0048079D01*
X0010239Y0047481D02*
X0009681Y0047481D01*
X0009681Y0046882D02*
X0010239Y0046882D01*
X0010469Y0046284D02*
X0009681Y0046284D01*
X0009681Y0045685D02*
X0026546Y0045685D01*
X0027145Y0045087D02*
X0009681Y0045087D01*
X0009681Y0055262D02*
X0019612Y0055262D01*
X0019605Y0055860D02*
X0009681Y0055860D01*
X0009681Y0056459D02*
X0019599Y0056459D01*
X0019592Y0057057D02*
X0009681Y0057057D01*
X0009681Y0057656D02*
X0019586Y0057656D01*
X0019579Y0058254D02*
X0009681Y0058254D01*
X0009681Y0058853D02*
X0019573Y0058853D01*
X0019566Y0059451D02*
X0009681Y0059451D01*
X0009681Y0060050D02*
X0019560Y0060050D01*
X0019553Y0060648D02*
X0009681Y0060648D01*
X0009681Y0061247D02*
X0019547Y0061247D01*
X0019540Y0061845D02*
X0009681Y0061845D01*
X0009681Y0062444D02*
X0019534Y0062444D01*
X0019527Y0063042D02*
X0009681Y0063042D01*
X0009681Y0063641D02*
X0019521Y0063641D01*
X0019514Y0064239D02*
X0009681Y0064239D01*
X0009681Y0064838D02*
X0019508Y0064838D01*
X0019502Y0065436D02*
X0009681Y0065436D01*
X0009681Y0066035D02*
X0019495Y0066035D01*
X0019489Y0066633D02*
X0009681Y0066633D01*
X0009681Y0067232D02*
X0019482Y0067232D01*
X0019476Y0067830D02*
X0009681Y0067830D01*
X0009681Y0068429D02*
X0019469Y0068429D01*
X0019463Y0069027D02*
X0009681Y0069027D01*
X0009681Y0069626D02*
X0019456Y0069626D01*
X0019450Y0070224D02*
X0009681Y0070224D01*
X0009681Y0070823D02*
X0019443Y0070823D01*
X0019551Y0071421D02*
X0009681Y0071421D01*
X0009681Y0072020D02*
X0019791Y0072020D01*
X0020221Y0072618D02*
X0009681Y0072618D01*
X0009681Y0073217D02*
X0020870Y0073217D01*
X0024254Y0073217D02*
X0027700Y0073217D01*
X0028294Y0072618D02*
X0024877Y0072618D01*
X0025294Y0072020D02*
X0028888Y0072020D01*
X0029483Y0071421D02*
X0025550Y0071421D01*
X0025644Y0070823D02*
X0030077Y0070823D01*
X0027105Y0073815D02*
X0009681Y0073815D01*
X0009681Y0074414D02*
X0026511Y0074414D01*
X0025917Y0075012D02*
X0009681Y0075012D01*
X0009681Y0075611D02*
X0025322Y0075611D01*
X0024728Y0076209D02*
X0009681Y0076209D01*
X0009681Y0076808D02*
X0024134Y0076808D01*
X0023539Y0077406D02*
X0009681Y0077406D01*
X0009681Y0078005D02*
X0022945Y0078005D01*
X0022351Y0078603D02*
X0009681Y0078603D01*
X0009681Y0079202D02*
X0021756Y0079202D01*
X0021162Y0079801D02*
X0009681Y0079801D01*
X0009681Y0080399D02*
X0020568Y0080399D01*
X0019973Y0080998D02*
X0009853Y0080998D01*
X0010577Y0081596D02*
X0019379Y0081596D01*
X0018785Y0082195D02*
X0011175Y0082195D01*
X0011482Y0082793D02*
X0018190Y0082793D01*
X0017708Y0083392D02*
X0011730Y0083392D01*
X0011931Y0083990D02*
X0017710Y0083990D01*
X0017710Y0084589D02*
X0011931Y0084589D01*
X0011931Y0085187D02*
X0017710Y0085187D01*
X0017710Y0085786D02*
X0011931Y0085786D01*
X0011931Y0086384D02*
X0017710Y0086384D01*
X0017710Y0086983D02*
X0011931Y0086983D01*
X0011931Y0087581D02*
X0017710Y0087581D01*
X0017710Y0088180D02*
X0011931Y0088180D01*
X0011931Y0088778D02*
X0017710Y0088778D01*
X0017710Y0089377D02*
X0011931Y0089377D01*
X0011931Y0089975D02*
X0017710Y0089975D01*
X0017710Y0090574D02*
X0011931Y0090574D01*
X0011931Y0091172D02*
X0017710Y0091172D01*
X0017710Y0091771D02*
X0011931Y0091771D01*
X0011931Y0092369D02*
X0017710Y0092369D01*
X0017710Y0092968D02*
X0011931Y0092968D01*
X0011931Y0093566D02*
X0017710Y0093566D01*
X0017710Y0094165D02*
X0011931Y0094165D01*
X0011931Y0094763D02*
X0017710Y0094763D01*
X0017710Y0095362D02*
X0011931Y0095362D01*
X0011931Y0095960D02*
X0017710Y0095960D01*
X0017710Y0096559D02*
X0011931Y0096559D01*
X0011931Y0097157D02*
X0017710Y0097157D01*
X0017710Y0097756D02*
X0011931Y0097756D01*
X0011931Y0098354D02*
X0017710Y0098354D01*
X0017710Y0098953D02*
X0011931Y0098953D01*
X0011931Y0099551D02*
X0017710Y0099551D01*
X0017710Y0100150D02*
X0011931Y0100150D01*
X0011931Y0100748D02*
X0017710Y0100748D01*
X0017710Y0101347D02*
X0011931Y0101347D01*
X0011931Y0101945D02*
X0017710Y0101945D01*
X0017710Y0102544D02*
X0011931Y0102544D01*
X0011804Y0103142D02*
X0017710Y0103142D01*
X0017710Y0103741D02*
X0011556Y0103741D01*
X0011308Y0104339D02*
X0017710Y0104339D01*
X0017710Y0104938D02*
X0010755Y0104938D01*
X0010156Y0105536D02*
X0017710Y0105536D01*
X0017710Y0106135D02*
X0009781Y0106135D01*
X0009781Y0106734D02*
X0017710Y0106734D01*
X0017710Y0107332D02*
X0009781Y0107332D01*
X0009781Y0107931D02*
X0017710Y0107931D01*
X0017710Y0108529D02*
X0009781Y0108529D01*
X0009781Y0109128D02*
X0017710Y0109128D01*
X0017710Y0109726D02*
X0009781Y0109726D01*
X0009781Y0110325D02*
X0017710Y0110325D01*
X0017710Y0110923D02*
X0009781Y0110923D01*
X0009781Y0111522D02*
X0017710Y0111522D01*
X0017710Y0112120D02*
X0009781Y0112120D01*
X0009781Y0112719D02*
X0017710Y0112719D01*
X0017710Y0113317D02*
X0009781Y0113317D01*
X0009781Y0113916D02*
X0017710Y0113916D01*
X0017710Y0114514D02*
X0009781Y0114514D01*
X0009781Y0115113D02*
X0017710Y0115113D01*
X0017710Y0115711D02*
X0009781Y0115711D01*
X0009781Y0116310D02*
X0017710Y0116310D01*
X0017710Y0116908D02*
X0009781Y0116908D01*
X0009781Y0117507D02*
X0015294Y0117507D01*
X0021110Y0116908D02*
X0037395Y0116908D01*
X0037395Y0116310D02*
X0021110Y0116310D01*
X0021110Y0115711D02*
X0037395Y0115711D01*
X0037395Y0115113D02*
X0021110Y0115113D01*
X0021110Y0114514D02*
X0037395Y0114514D01*
X0037395Y0113916D02*
X0021110Y0113916D01*
X0021110Y0113317D02*
X0037395Y0113317D01*
X0037395Y0112719D02*
X0021110Y0112719D01*
X0021110Y0112120D02*
X0037395Y0112120D01*
X0037395Y0111522D02*
X0021110Y0111522D01*
X0021110Y0110923D02*
X0037395Y0110923D01*
X0037395Y0110325D02*
X0021110Y0110325D01*
X0021110Y0109726D02*
X0037395Y0109726D01*
X0037395Y0109128D02*
X0021110Y0109128D01*
X0021110Y0108529D02*
X0037395Y0108529D01*
X0037395Y0107931D02*
X0021110Y0107931D01*
X0021110Y0107332D02*
X0037395Y0107332D01*
X0037395Y0106734D02*
X0021110Y0106734D01*
X0021110Y0106135D02*
X0037395Y0106135D01*
X0037395Y0105536D02*
X0021110Y0105536D01*
X0021110Y0104938D02*
X0037395Y0104938D01*
X0037395Y0104339D02*
X0021110Y0104339D01*
X0021110Y0103741D02*
X0037395Y0103741D01*
X0037395Y0103142D02*
X0021110Y0103142D01*
X0021110Y0102544D02*
X0037395Y0102544D01*
X0037395Y0101945D02*
X0021110Y0101945D01*
X0021110Y0101347D02*
X0037395Y0101347D01*
X0037395Y0100748D02*
X0021110Y0100748D01*
X0021110Y0100150D02*
X0037395Y0100150D01*
X0037395Y0099551D02*
X0021110Y0099551D01*
X0021110Y0098953D02*
X0037395Y0098953D01*
X0037395Y0098354D02*
X0021110Y0098354D01*
X0021110Y0097756D02*
X0037395Y0097756D01*
X0037395Y0097157D02*
X0021110Y0097157D01*
X0021110Y0096559D02*
X0037395Y0096559D01*
X0037395Y0095960D02*
X0021110Y0095960D01*
X0021110Y0095362D02*
X0037395Y0095362D01*
X0037395Y0094763D02*
X0021110Y0094763D01*
X0021110Y0094165D02*
X0037395Y0094165D01*
X0037395Y0093566D02*
X0021110Y0093566D01*
X0021110Y0092968D02*
X0037395Y0092968D01*
X0037395Y0092369D02*
X0021110Y0092369D01*
X0021110Y0091771D02*
X0037395Y0091771D01*
X0037395Y0091172D02*
X0021110Y0091172D01*
X0021110Y0090574D02*
X0037395Y0090574D01*
X0037395Y0089975D02*
X0021110Y0089975D01*
X0021110Y0089377D02*
X0037395Y0089377D01*
X0037395Y0088778D02*
X0021110Y0088778D01*
X0021110Y0088180D02*
X0037395Y0088180D01*
X0037395Y0087581D02*
X0021110Y0087581D01*
X0021110Y0086983D02*
X0037623Y0086983D01*
X0038221Y0086384D02*
X0021110Y0086384D01*
X0021110Y0085786D02*
X0038820Y0085786D01*
X0039418Y0085187D02*
X0021110Y0085187D01*
X0021199Y0084589D02*
X0040017Y0084589D01*
X0040615Y0083990D02*
X0021793Y0083990D01*
X0022388Y0083392D02*
X0041214Y0083392D01*
X0050528Y0089975D02*
X0063479Y0089975D01*
X0065080Y0087914D02*
X0087127Y0087914D01*
X0085526Y0089975D02*
X0066680Y0089975D01*
X0067276Y0089377D02*
X0084930Y0089377D01*
X0084995Y0086384D02*
X0067211Y0086384D01*
X0066612Y0085786D02*
X0085594Y0085786D01*
X0087943Y0083990D02*
X0093808Y0083990D01*
X0093808Y0083392D02*
X0088543Y0083392D01*
X0089140Y0082793D02*
X0093808Y0082793D01*
X0093808Y0082195D02*
X0089739Y0082195D01*
X0090337Y0081596D02*
X0093808Y0081596D01*
X0093808Y0080998D02*
X0090936Y0080998D01*
X0091534Y0080399D02*
X0093808Y0080399D01*
X0093808Y0079801D02*
X0092133Y0079801D01*
X0092731Y0079202D02*
X0093808Y0079202D01*
X0093808Y0078603D02*
X0093330Y0078603D01*
X0093808Y0084589D02*
X0067568Y0084589D01*
X0067898Y0080399D02*
X0086726Y0080399D01*
X0087324Y0079801D02*
X0066790Y0079801D01*
X0068518Y0072618D02*
X0074774Y0072618D01*
X0075360Y0072020D02*
X0069141Y0072020D01*
X0069766Y0071421D02*
X0075918Y0071421D01*
X0075918Y0070823D02*
X0070392Y0070823D01*
X0071017Y0070224D02*
X0075918Y0070224D01*
X0075918Y0069626D02*
X0071642Y0069626D01*
X0072267Y0069027D02*
X0075918Y0069027D01*
X0075918Y0068429D02*
X0072892Y0068429D01*
X0073526Y0067830D02*
X0075918Y0067830D01*
X0075918Y0067232D02*
X0074143Y0067232D01*
X0074217Y0066633D02*
X0075918Y0066633D01*
X0075918Y0066035D02*
X0074227Y0066035D01*
X0074217Y0065436D02*
X0075918Y0065436D01*
X0075918Y0064838D02*
X0074217Y0064838D01*
X0074217Y0064239D02*
X0075918Y0064239D01*
X0075918Y0063641D02*
X0074217Y0063641D01*
X0074217Y0063042D02*
X0075918Y0063042D01*
X0075918Y0062444D02*
X0074217Y0062444D01*
X0074217Y0061845D02*
X0075918Y0061845D01*
X0075918Y0061247D02*
X0074217Y0061247D01*
X0074217Y0060648D02*
X0075918Y0060648D01*
X0075918Y0060050D02*
X0074217Y0060050D01*
X0074217Y0059451D02*
X0075918Y0059451D01*
X0075918Y0058853D02*
X0074217Y0058853D01*
X0074217Y0058254D02*
X0075918Y0058254D01*
X0075918Y0057656D02*
X0074217Y0057656D01*
X0074217Y0057057D02*
X0075918Y0057057D01*
X0075918Y0056459D02*
X0074217Y0056459D01*
X0074217Y0055860D02*
X0075918Y0055860D01*
X0075918Y0055262D02*
X0074217Y0055262D01*
X0074217Y0054663D02*
X0075918Y0054663D01*
X0075918Y0054065D02*
X0074217Y0054065D01*
X0074217Y0053466D02*
X0075918Y0053466D01*
X0075918Y0052867D02*
X0074217Y0052867D01*
X0074217Y0052269D02*
X0075918Y0052269D01*
X0075918Y0051670D02*
X0074217Y0051670D01*
X0074217Y0051072D02*
X0075918Y0051072D01*
X0075918Y0050473D02*
X0074217Y0050473D01*
X0074217Y0049875D02*
X0075918Y0049875D01*
X0075918Y0049276D02*
X0074217Y0049276D01*
X0074217Y0048678D02*
X0075918Y0048678D01*
X0075918Y0048079D02*
X0074217Y0048079D01*
X0074217Y0047481D02*
X0075918Y0047481D01*
X0075914Y0046882D02*
X0074217Y0046882D01*
X0074217Y0046284D02*
X0075899Y0046284D01*
X0075884Y0045685D02*
X0074217Y0045685D01*
X0074217Y0045087D02*
X0075868Y0045087D01*
X0075853Y0044488D02*
X0074217Y0044488D01*
X0074217Y0043890D02*
X0075838Y0043890D01*
X0075823Y0043291D02*
X0074217Y0043291D01*
X0074217Y0042693D02*
X0075808Y0042693D01*
X0075793Y0042094D02*
X0074217Y0042094D01*
X0074225Y0041496D02*
X0075778Y0041496D01*
X0075763Y0040897D02*
X0073794Y0040897D01*
X0073210Y0040299D02*
X0075748Y0040299D01*
X0075720Y0039700D02*
X0072628Y0039700D01*
X0072046Y0039102D02*
X0075717Y0039102D01*
X0074601Y0038503D02*
X0074455Y0038503D01*
X0072633Y0038503D02*
X0071463Y0038503D01*
X0071158Y0037905D02*
X0072034Y0037905D01*
X0071932Y0037306D02*
X0071160Y0037306D01*
X0071162Y0036708D02*
X0071932Y0036708D01*
X0071932Y0036109D02*
X0071164Y0036109D01*
X0071166Y0035511D02*
X0071932Y0035511D01*
X0071932Y0034912D02*
X0071168Y0034912D01*
X0079135Y0038522D02*
X0079125Y0039350D01*
X0079228Y0043439D01*
X0084145Y0038522D01*
X0082494Y0038522D01*
X0082402Y0038430D01*
X0082311Y0038522D01*
X0080526Y0038522D01*
X0080434Y0038430D01*
X0080342Y0038522D01*
X0079135Y0038522D01*
X0079128Y0039102D02*
X0083566Y0039102D01*
X0082967Y0039700D02*
X0079134Y0039700D01*
X0079149Y0040299D02*
X0082369Y0040299D01*
X0081770Y0040897D02*
X0079164Y0040897D01*
X0079179Y0041496D02*
X0081172Y0041496D01*
X0080573Y0042094D02*
X0079194Y0042094D01*
X0079209Y0042693D02*
X0079975Y0042693D01*
X0079376Y0043291D02*
X0079224Y0043291D01*
X0082139Y0044488D02*
X0091726Y0044488D01*
X0091726Y0043890D02*
X0082737Y0043890D01*
X0083336Y0043291D02*
X0091726Y0043291D01*
X0091726Y0042693D02*
X0083934Y0042693D01*
X0084533Y0042094D02*
X0091726Y0042094D01*
X0091726Y0041496D02*
X0085131Y0041496D01*
X0085730Y0040897D02*
X0091726Y0040897D01*
X0091726Y0040299D02*
X0090265Y0040299D01*
X0090864Y0039700D02*
X0091726Y0039700D01*
X0091726Y0039102D02*
X0091462Y0039102D01*
X0089619Y0045087D02*
X0088027Y0045087D01*
X0088122Y0045142D02*
X0088364Y0045384D01*
X0088535Y0045680D01*
X0088624Y0046011D01*
X0088624Y0049032D01*
X0085065Y0049032D01*
X0085065Y0049031D02*
X0085065Y0044882D01*
X0087495Y0044882D01*
X0087825Y0044970D01*
X0088122Y0045142D01*
X0088536Y0045685D02*
X0089020Y0045685D01*
X0088980Y0046284D02*
X0088624Y0046284D01*
X0088624Y0046882D02*
X0088980Y0046882D01*
X0088980Y0047481D02*
X0088624Y0047481D01*
X0088624Y0048079D02*
X0088980Y0048079D01*
X0088980Y0048678D02*
X0088624Y0048678D01*
X0088980Y0049276D02*
X0085065Y0049276D01*
X0085065Y0048678D02*
X0084465Y0048678D01*
X0084465Y0048079D02*
X0085065Y0048079D01*
X0085065Y0047481D02*
X0084465Y0047481D01*
X0084465Y0046882D02*
X0085065Y0046882D01*
X0085065Y0046284D02*
X0084465Y0046284D01*
X0084465Y0045685D02*
X0085065Y0045685D01*
X0085065Y0045087D02*
X0084465Y0045087D01*
X0084465Y0049875D02*
X0085065Y0049875D01*
X0085065Y0050473D02*
X0084465Y0050473D01*
X0084465Y0051072D02*
X0085065Y0051072D01*
X0085065Y0051670D02*
X0084465Y0051670D01*
X0084465Y0052269D02*
X0085065Y0052269D01*
X0085065Y0052867D02*
X0084465Y0052867D01*
X0084465Y0053466D02*
X0085065Y0053466D01*
X0088177Y0053466D02*
X0089509Y0053466D01*
X0088980Y0052867D02*
X0088566Y0052867D01*
X0088624Y0052269D02*
X0088980Y0052269D01*
X0088980Y0051670D02*
X0088624Y0051670D01*
X0088624Y0051072D02*
X0088980Y0051072D01*
X0088980Y0050473D02*
X0088624Y0050473D01*
X0088624Y0049875D02*
X0088980Y0049875D01*
X0082475Y0038503D02*
X0082329Y0038503D01*
X0080507Y0038503D02*
X0080361Y0038503D01*
X0081453Y0019421D02*
X0081453Y0017210D01*
X0040640Y0047481D02*
X0033519Y0047481D01*
X0033960Y0046882D02*
X0039817Y0046882D01*
X0039401Y0046284D02*
X0034208Y0046284D01*
X0034321Y0045685D02*
X0039153Y0045685D01*
X0039135Y0045087D02*
X0034321Y0045087D01*
X0034321Y0044488D02*
X0039187Y0044488D01*
X0039435Y0043890D02*
X0034821Y0043890D01*
X0035294Y0117507D02*
X0033456Y0117507D01*
X0033975Y0118105D02*
X0034775Y0118105D01*
X0034775Y0118704D02*
X0033975Y0118704D01*
X0033975Y0119302D02*
X0034775Y0119302D01*
X0034775Y0119901D02*
X0033975Y0119901D01*
X0033975Y0120499D02*
X0034775Y0120499D01*
X0034775Y0121098D02*
X0033975Y0121098D01*
X0033975Y0121696D02*
X0034775Y0121696D01*
X0034775Y0122295D02*
X0033975Y0122295D01*
X0033975Y0122893D02*
X0034775Y0122893D01*
X0034775Y0123492D02*
X0033975Y0123492D01*
X0033975Y0124090D02*
X0034775Y0124090D01*
X0034775Y0124689D02*
X0033975Y0124689D01*
X0033975Y0125287D02*
X0034775Y0125287D01*
X0034775Y0125886D02*
X0033975Y0125886D01*
X0033975Y0126484D02*
X0034775Y0126484D01*
X0034775Y0127083D02*
X0033975Y0127083D01*
X0033975Y0127681D02*
X0034775Y0127681D01*
X0034775Y0128280D02*
X0033975Y0128280D01*
X0033975Y0128878D02*
X0034775Y0128878D01*
X0034775Y0129477D02*
X0033975Y0129477D01*
X0033975Y0130075D02*
X0034775Y0130075D01*
X0034775Y0130674D02*
X0033975Y0130674D01*
X0033975Y0131272D02*
X0034775Y0131272D01*
X0034775Y0131871D02*
X0033975Y0131871D01*
X0033975Y0132470D02*
X0034775Y0132470D01*
X0034775Y0133068D02*
X0033975Y0133068D01*
X0033975Y0133667D02*
X0034775Y0133667D01*
X0034775Y0134265D02*
X0033975Y0134265D01*
X0033975Y0134864D02*
X0034775Y0134864D01*
X0034775Y0135462D02*
X0033975Y0135462D01*
X0033975Y0136061D02*
X0034775Y0136061D01*
X0034775Y0136659D02*
X0033975Y0136659D01*
X0033975Y0137258D02*
X0034775Y0137258D01*
X0034775Y0137856D02*
X0033975Y0137856D01*
X0024775Y0137856D02*
X0023975Y0137856D01*
X0023975Y0137258D02*
X0024775Y0137258D01*
X0024775Y0136659D02*
X0023975Y0136659D01*
X0023975Y0136061D02*
X0024775Y0136061D01*
X0024775Y0135462D02*
X0023975Y0135462D01*
X0023975Y0134864D02*
X0024775Y0134864D01*
X0024775Y0134265D02*
X0023975Y0134265D01*
X0023975Y0133667D02*
X0024775Y0133667D01*
X0024775Y0133068D02*
X0023975Y0133068D01*
X0023975Y0132470D02*
X0024775Y0132470D01*
X0024775Y0131871D02*
X0023975Y0131871D01*
X0023975Y0131272D02*
X0024775Y0131272D01*
X0024775Y0130674D02*
X0023975Y0130674D01*
X0023975Y0130075D02*
X0024775Y0130075D01*
X0024775Y0129477D02*
X0023975Y0129477D01*
X0023975Y0128878D02*
X0024775Y0128878D01*
X0024775Y0128280D02*
X0023975Y0128280D01*
X0023975Y0127681D02*
X0024775Y0127681D01*
X0024775Y0127083D02*
X0023975Y0127083D01*
X0023975Y0126484D02*
X0024775Y0126484D01*
X0024775Y0125886D02*
X0023975Y0125886D01*
X0023975Y0125287D02*
X0024775Y0125287D01*
X0024775Y0124689D02*
X0023975Y0124689D01*
X0023975Y0124090D02*
X0024775Y0124090D01*
X0024775Y0123492D02*
X0023975Y0123492D01*
X0023975Y0122893D02*
X0024775Y0122893D01*
X0024775Y0122295D02*
X0023975Y0122295D01*
X0023975Y0121696D02*
X0024775Y0121696D01*
X0024775Y0121098D02*
X0023975Y0121098D01*
X0023975Y0120499D02*
X0024775Y0120499D01*
X0024775Y0119901D02*
X0023975Y0119901D01*
X0023975Y0119302D02*
X0024775Y0119302D01*
X0024775Y0118704D02*
X0023975Y0118704D01*
X0023975Y0118105D02*
X0024775Y0118105D01*
X0025294Y0117507D02*
X0023456Y0117507D01*
D18*
X0028072Y0107599D03*
X0014686Y0077678D03*
X0022546Y0070562D03*
X0041724Y0045128D03*
X0055310Y0038821D03*
X0061930Y0043820D03*
X0062588Y0029069D03*
X0075816Y0028045D03*
X0075830Y0025473D03*
X0078469Y0025473D03*
X0078454Y0028045D03*
X0081074Y0028045D03*
X0081089Y0025473D03*
X0081106Y0030693D03*
X0078486Y0030693D03*
X0075848Y0030693D03*
X0085517Y0016487D03*
X0089214Y0019503D03*
X0094213Y0009174D03*
X0087127Y0061930D03*
X0082402Y0076103D03*
X0087127Y0087914D03*
X0077641Y0094520D03*
X0066193Y0082356D03*
X0065080Y0087914D03*
X0062717Y0106024D03*
X0049413Y0092868D03*
X0040670Y0017048D03*
D19*
X0054903Y0011767D02*
X0059713Y0017290D01*
X0054903Y0011767D02*
X0026353Y0011928D01*
X0031221Y0035946D02*
X0043820Y0035946D01*
X0031221Y0037520D02*
X0031221Y0045394D01*
X0027284Y0049331D01*
X0021772Y0049331D01*
X0022774Y0049545D02*
X0022546Y0070562D01*
X0013685Y0050707D02*
X0013504Y0041979D01*
X0049413Y0092868D02*
X0049413Y0121270D01*
X0059355Y0122361D02*
X0059173Y0113632D01*
X0029252Y0113632D02*
X0029433Y0122361D01*
D20*
X0039095Y0120985D02*
X0039095Y0087914D01*
X0050906Y0076103D01*
X0073741Y0076103D01*
X0077576Y0072186D01*
X0077618Y0072184D02*
X0077618Y0047029D01*
X0077424Y0039361D01*
X0077467Y0035946D01*
X0073545Y0036844D02*
X0073545Y0038913D01*
X0072517Y0042025D02*
X0069455Y0038876D01*
X0069475Y0033035D01*
X0071843Y0031010D02*
X0065544Y0031010D01*
X0061143Y0035158D01*
X0043820Y0035158D01*
X0043129Y0026794D02*
X0038365Y0026794D01*
X0043126Y0026749D02*
X0043109Y0022336D01*
X0046351Y0020063D02*
X0051678Y0020063D01*
X0051605Y0019990D02*
X0051605Y0024953D01*
X0059568Y0018623D02*
X0065080Y0018623D01*
X0071555Y0013111D01*
X0077066Y0013111D01*
X0079429Y0015473D01*
X0079429Y0018623D01*
X0079361Y0015787D02*
X0081926Y0012987D01*
X0087263Y0012959D01*
X0093426Y0017835D01*
X0093426Y0047757D01*
X0093426Y0050906D02*
X0093426Y0076103D01*
X0087127Y0082402D01*
X0066193Y0082356D01*
X0067383Y0071350D02*
X0072517Y0066434D01*
X0072517Y0042025D01*
X0081400Y0039124D02*
X0081400Y0036887D01*
X0084765Y0043032D02*
X0084765Y0048544D01*
X0084765Y0050119D02*
X0084765Y0054056D01*
X0067383Y0071350D02*
X0054745Y0071350D01*
X0054757Y0071378D02*
X0031922Y0071378D01*
X0019410Y0083977D01*
X0019410Y0120198D01*
X0069210Y0121156D02*
X0069210Y0102058D01*
X0077641Y0094520D01*
X0069980Y0029033D02*
X0062764Y0028998D01*
X0066554Y0027080D02*
X0069563Y0027071D01*
X0069617Y0025107D02*
X0066619Y0025149D01*
X0066907Y0023069D02*
X0069574Y0023089D01*
X0073521Y0019426D02*
X0073521Y0017436D01*
M02*
