G75*
%MOIN*%
%OFA0B0*%
%FSLAX25Y25*%
%IPPOS*%
%LPD*%
%AMOC8*
5,1,8,0,0,1.08239X$1,22.5*
%
%ADD10R,0.05000X0.10000*%
%ADD11R,0.04799X0.08799*%
%ADD12R,0.14173X0.08661*%
%ADD13R,0.02931X0.02911*%
%ADD14R,0.02912X0.02912*%
%ADD15R,0.02929X0.02929*%
%ADD16R,0.02912X0.02925*%
%ADD17C,0.00256*%
%ADD18R,0.05118X0.06299*%
%ADD19R,0.06299X0.05118*%
D10*
X0011875Y0123731D03*
X0011875Y0130981D03*
X0011875Y0136981D03*
X0018375Y0136981D03*
X0020375Y0136981D03*
X0020375Y0131731D03*
X0018375Y0131731D03*
X0018375Y0123481D03*
X0020375Y0123481D03*
X0028375Y0123481D03*
X0030375Y0123481D03*
X0030375Y0131731D03*
X0028375Y0131731D03*
X0028375Y0136981D03*
X0030375Y0136981D03*
X0038375Y0136981D03*
X0040375Y0136981D03*
X0040375Y0131731D03*
X0038375Y0131731D03*
X0038375Y0123481D03*
X0040375Y0123481D03*
X0048375Y0123481D03*
X0050375Y0123481D03*
X0050375Y0131731D03*
X0048375Y0131731D03*
X0048375Y0136981D03*
X0050375Y0136981D03*
X0058375Y0136981D03*
X0060375Y0136981D03*
X0060375Y0131731D03*
X0058375Y0131731D03*
X0058375Y0123481D03*
X0060375Y0123481D03*
X0068375Y0123481D03*
X0070375Y0123481D03*
X0070375Y0131731D03*
X0068375Y0131731D03*
X0068375Y0136981D03*
X0070375Y0136981D03*
X0078375Y0136981D03*
X0080375Y0136981D03*
X0080375Y0131731D03*
X0078375Y0131731D03*
X0078375Y0123481D03*
X0080375Y0123481D03*
X0088875Y0124731D03*
X0091875Y0124731D03*
X0091875Y0114731D03*
X0088875Y0114731D03*
D11*
X0031658Y0038698D03*
X0022560Y0038698D03*
X0013461Y0038698D03*
D12*
X0022560Y0014296D03*
D13*
X0076586Y0026200D03*
D14*
X0080336Y0026201D03*
D15*
X0076587Y0029950D03*
D16*
X0080336Y0029947D03*
D17*
X0079066Y0034086D02*
X0079066Y0037294D01*
X0079834Y0037294D01*
X0079834Y0034086D01*
X0079066Y0034086D01*
X0079066Y0034341D02*
X0079834Y0034341D01*
X0079834Y0034596D02*
X0079066Y0034596D01*
X0079066Y0034851D02*
X0079834Y0034851D01*
X0079834Y0035106D02*
X0079066Y0035106D01*
X0079066Y0035361D02*
X0079834Y0035361D01*
X0079834Y0035616D02*
X0079066Y0035616D01*
X0079066Y0035871D02*
X0079834Y0035871D01*
X0079834Y0036126D02*
X0079066Y0036126D01*
X0079066Y0036381D02*
X0079834Y0036381D01*
X0079834Y0036636D02*
X0079066Y0036636D01*
X0079066Y0036891D02*
X0079834Y0036891D01*
X0079834Y0037146D02*
X0079066Y0037146D01*
X0077097Y0037294D02*
X0077097Y0034086D01*
X0077097Y0037294D02*
X0077865Y0037294D01*
X0077865Y0034086D01*
X0077097Y0034086D01*
X0077097Y0034341D02*
X0077865Y0034341D01*
X0077865Y0034596D02*
X0077097Y0034596D01*
X0077097Y0034851D02*
X0077865Y0034851D01*
X0077865Y0035106D02*
X0077097Y0035106D01*
X0077097Y0035361D02*
X0077865Y0035361D01*
X0077865Y0035616D02*
X0077097Y0035616D01*
X0077097Y0035871D02*
X0077865Y0035871D01*
X0077865Y0036126D02*
X0077097Y0036126D01*
X0077097Y0036381D02*
X0077865Y0036381D01*
X0077865Y0036636D02*
X0077097Y0036636D01*
X0077097Y0036891D02*
X0077865Y0036891D01*
X0077865Y0037146D02*
X0077097Y0037146D01*
X0075129Y0037294D02*
X0075129Y0034086D01*
X0075129Y0037294D02*
X0075897Y0037294D01*
X0075897Y0034086D01*
X0075129Y0034086D01*
X0075129Y0034341D02*
X0075897Y0034341D01*
X0075897Y0034596D02*
X0075129Y0034596D01*
X0075129Y0034851D02*
X0075897Y0034851D01*
X0075897Y0035106D02*
X0075129Y0035106D01*
X0075129Y0035361D02*
X0075897Y0035361D01*
X0075897Y0035616D02*
X0075129Y0035616D01*
X0075129Y0035871D02*
X0075897Y0035871D01*
X0075897Y0036126D02*
X0075129Y0036126D01*
X0075129Y0036381D02*
X0075897Y0036381D01*
X0075897Y0036636D02*
X0075129Y0036636D01*
X0075129Y0036891D02*
X0075897Y0036891D01*
X0075897Y0037146D02*
X0075129Y0037146D01*
X0073160Y0037294D02*
X0073160Y0034086D01*
X0073160Y0037294D02*
X0073928Y0037294D01*
X0073928Y0034086D01*
X0073160Y0034086D01*
X0073160Y0034341D02*
X0073928Y0034341D01*
X0073928Y0034596D02*
X0073160Y0034596D01*
X0073160Y0034851D02*
X0073928Y0034851D01*
X0073928Y0035106D02*
X0073160Y0035106D01*
X0073160Y0035361D02*
X0073928Y0035361D01*
X0073928Y0035616D02*
X0073160Y0035616D01*
X0073160Y0035871D02*
X0073928Y0035871D01*
X0073928Y0036126D02*
X0073160Y0036126D01*
X0073160Y0036381D02*
X0073928Y0036381D01*
X0073928Y0036636D02*
X0073160Y0036636D01*
X0073160Y0036891D02*
X0073928Y0036891D01*
X0073928Y0037146D02*
X0073160Y0037146D01*
X0072451Y0032609D02*
X0069243Y0032609D01*
X0069243Y0033377D01*
X0072451Y0033377D01*
X0072451Y0032609D01*
X0072451Y0032864D02*
X0069243Y0032864D01*
X0069243Y0033119D02*
X0072451Y0033119D01*
X0072451Y0033374D02*
X0069243Y0033374D01*
X0069243Y0030640D02*
X0072451Y0030640D01*
X0069243Y0030640D02*
X0069243Y0031408D01*
X0072451Y0031408D01*
X0072451Y0030640D01*
X0072451Y0030895D02*
X0069243Y0030895D01*
X0069243Y0031150D02*
X0072451Y0031150D01*
X0072451Y0031405D02*
X0069243Y0031405D01*
X0069243Y0028672D02*
X0072451Y0028672D01*
X0069243Y0028672D02*
X0069243Y0029440D01*
X0072451Y0029440D01*
X0072451Y0028672D01*
X0072451Y0028927D02*
X0069243Y0028927D01*
X0069243Y0029182D02*
X0072451Y0029182D01*
X0072451Y0029437D02*
X0069243Y0029437D01*
X0069243Y0026703D02*
X0072451Y0026703D01*
X0069243Y0026703D02*
X0069243Y0027471D01*
X0072451Y0027471D01*
X0072451Y0026703D01*
X0072451Y0026958D02*
X0069243Y0026958D01*
X0069243Y0027213D02*
X0072451Y0027213D01*
X0072451Y0027468D02*
X0069243Y0027468D01*
X0069243Y0024735D02*
X0072451Y0024735D01*
X0069243Y0024735D02*
X0069243Y0025503D01*
X0072451Y0025503D01*
X0072451Y0024735D01*
X0072451Y0024990D02*
X0069243Y0024990D01*
X0069243Y0025245D02*
X0072451Y0025245D01*
X0072451Y0025500D02*
X0069243Y0025500D01*
X0069243Y0022766D02*
X0072451Y0022766D01*
X0069243Y0022766D02*
X0069243Y0023534D01*
X0072451Y0023534D01*
X0072451Y0022766D01*
X0072451Y0023021D02*
X0069243Y0023021D01*
X0069243Y0023276D02*
X0072451Y0023276D01*
X0072451Y0023531D02*
X0069243Y0023531D01*
X0073160Y0022058D02*
X0073160Y0018850D01*
X0073160Y0022058D02*
X0073928Y0022058D01*
X0073928Y0018850D01*
X0073160Y0018850D01*
X0073160Y0019105D02*
X0073928Y0019105D01*
X0073928Y0019360D02*
X0073160Y0019360D01*
X0073160Y0019615D02*
X0073928Y0019615D01*
X0073928Y0019870D02*
X0073160Y0019870D01*
X0073160Y0020125D02*
X0073928Y0020125D01*
X0073928Y0020380D02*
X0073160Y0020380D01*
X0073160Y0020635D02*
X0073928Y0020635D01*
X0073928Y0020890D02*
X0073160Y0020890D01*
X0073160Y0021145D02*
X0073928Y0021145D01*
X0073928Y0021400D02*
X0073160Y0021400D01*
X0073160Y0021655D02*
X0073928Y0021655D01*
X0073928Y0021910D02*
X0073160Y0021910D01*
X0075129Y0022058D02*
X0075129Y0018850D01*
X0075129Y0022058D02*
X0075897Y0022058D01*
X0075897Y0018850D01*
X0075129Y0018850D01*
X0075129Y0019105D02*
X0075897Y0019105D01*
X0075897Y0019360D02*
X0075129Y0019360D01*
X0075129Y0019615D02*
X0075897Y0019615D01*
X0075897Y0019870D02*
X0075129Y0019870D01*
X0075129Y0020125D02*
X0075897Y0020125D01*
X0075897Y0020380D02*
X0075129Y0020380D01*
X0075129Y0020635D02*
X0075897Y0020635D01*
X0075897Y0020890D02*
X0075129Y0020890D01*
X0075129Y0021145D02*
X0075897Y0021145D01*
X0075897Y0021400D02*
X0075129Y0021400D01*
X0075129Y0021655D02*
X0075897Y0021655D01*
X0075897Y0021910D02*
X0075129Y0021910D01*
X0077097Y0022058D02*
X0077097Y0018850D01*
X0077097Y0022058D02*
X0077865Y0022058D01*
X0077865Y0018850D01*
X0077097Y0018850D01*
X0077097Y0019105D02*
X0077865Y0019105D01*
X0077865Y0019360D02*
X0077097Y0019360D01*
X0077097Y0019615D02*
X0077865Y0019615D01*
X0077865Y0019870D02*
X0077097Y0019870D01*
X0077097Y0020125D02*
X0077865Y0020125D01*
X0077865Y0020380D02*
X0077097Y0020380D01*
X0077097Y0020635D02*
X0077865Y0020635D01*
X0077865Y0020890D02*
X0077097Y0020890D01*
X0077097Y0021145D02*
X0077865Y0021145D01*
X0077865Y0021400D02*
X0077097Y0021400D01*
X0077097Y0021655D02*
X0077865Y0021655D01*
X0077865Y0021910D02*
X0077097Y0021910D01*
X0079066Y0022058D02*
X0079066Y0018850D01*
X0079066Y0022058D02*
X0079834Y0022058D01*
X0079834Y0018850D01*
X0079066Y0018850D01*
X0079066Y0019105D02*
X0079834Y0019105D01*
X0079834Y0019360D02*
X0079066Y0019360D01*
X0079066Y0019615D02*
X0079834Y0019615D01*
X0079834Y0019870D02*
X0079066Y0019870D01*
X0079066Y0020125D02*
X0079834Y0020125D01*
X0079834Y0020380D02*
X0079066Y0020380D01*
X0079066Y0020635D02*
X0079834Y0020635D01*
X0079834Y0020890D02*
X0079066Y0020890D01*
X0079066Y0021145D02*
X0079834Y0021145D01*
X0079834Y0021400D02*
X0079066Y0021400D01*
X0079066Y0021655D02*
X0079834Y0021655D01*
X0079834Y0021910D02*
X0079066Y0021910D01*
X0081034Y0022058D02*
X0081034Y0018850D01*
X0081034Y0022058D02*
X0081802Y0022058D01*
X0081802Y0018850D01*
X0081034Y0018850D01*
X0081034Y0019105D02*
X0081802Y0019105D01*
X0081802Y0019360D02*
X0081034Y0019360D01*
X0081034Y0019615D02*
X0081802Y0019615D01*
X0081802Y0019870D02*
X0081034Y0019870D01*
X0081034Y0020125D02*
X0081802Y0020125D01*
X0081802Y0020380D02*
X0081034Y0020380D01*
X0081034Y0020635D02*
X0081802Y0020635D01*
X0081802Y0020890D02*
X0081034Y0020890D01*
X0081034Y0021145D02*
X0081802Y0021145D01*
X0081802Y0021400D02*
X0081034Y0021400D01*
X0081034Y0021655D02*
X0081802Y0021655D01*
X0081802Y0021910D02*
X0081034Y0021910D01*
X0083003Y0022058D02*
X0083003Y0018850D01*
X0083003Y0022058D02*
X0083771Y0022058D01*
X0083771Y0018850D01*
X0083003Y0018850D01*
X0083003Y0019105D02*
X0083771Y0019105D01*
X0083771Y0019360D02*
X0083003Y0019360D01*
X0083003Y0019615D02*
X0083771Y0019615D01*
X0083771Y0019870D02*
X0083003Y0019870D01*
X0083003Y0020125D02*
X0083771Y0020125D01*
X0083771Y0020380D02*
X0083003Y0020380D01*
X0083003Y0020635D02*
X0083771Y0020635D01*
X0083771Y0020890D02*
X0083003Y0020890D01*
X0083003Y0021145D02*
X0083771Y0021145D01*
X0083771Y0021400D02*
X0083003Y0021400D01*
X0083003Y0021655D02*
X0083771Y0021655D01*
X0083771Y0021910D02*
X0083003Y0021910D01*
X0084479Y0022766D02*
X0087687Y0022766D01*
X0084479Y0022766D02*
X0084479Y0023534D01*
X0087687Y0023534D01*
X0087687Y0022766D01*
X0087687Y0023021D02*
X0084479Y0023021D01*
X0084479Y0023276D02*
X0087687Y0023276D01*
X0087687Y0023531D02*
X0084479Y0023531D01*
X0084479Y0024735D02*
X0087687Y0024735D01*
X0084479Y0024735D02*
X0084479Y0025503D01*
X0087687Y0025503D01*
X0087687Y0024735D01*
X0087687Y0024990D02*
X0084479Y0024990D01*
X0084479Y0025245D02*
X0087687Y0025245D01*
X0087687Y0025500D02*
X0084479Y0025500D01*
X0084479Y0026703D02*
X0087687Y0026703D01*
X0084479Y0026703D02*
X0084479Y0027471D01*
X0087687Y0027471D01*
X0087687Y0026703D01*
X0087687Y0026958D02*
X0084479Y0026958D01*
X0084479Y0027213D02*
X0087687Y0027213D01*
X0087687Y0027468D02*
X0084479Y0027468D01*
X0084479Y0028672D02*
X0087687Y0028672D01*
X0084479Y0028672D02*
X0084479Y0029440D01*
X0087687Y0029440D01*
X0087687Y0028672D01*
X0087687Y0028927D02*
X0084479Y0028927D01*
X0084479Y0029182D02*
X0087687Y0029182D01*
X0087687Y0029437D02*
X0084479Y0029437D01*
X0084479Y0030640D02*
X0087687Y0030640D01*
X0084479Y0030640D02*
X0084479Y0031408D01*
X0087687Y0031408D01*
X0087687Y0030640D01*
X0087687Y0030895D02*
X0084479Y0030895D01*
X0084479Y0031150D02*
X0087687Y0031150D01*
X0087687Y0031405D02*
X0084479Y0031405D01*
X0084479Y0032609D02*
X0087687Y0032609D01*
X0084479Y0032609D02*
X0084479Y0033377D01*
X0087687Y0033377D01*
X0087687Y0032609D01*
X0087687Y0032864D02*
X0084479Y0032864D01*
X0084479Y0033119D02*
X0087687Y0033119D01*
X0087687Y0033374D02*
X0084479Y0033374D01*
X0083003Y0034086D02*
X0083003Y0037294D01*
X0083771Y0037294D01*
X0083771Y0034086D01*
X0083003Y0034086D01*
X0083003Y0034341D02*
X0083771Y0034341D01*
X0083771Y0034596D02*
X0083003Y0034596D01*
X0083003Y0034851D02*
X0083771Y0034851D01*
X0083771Y0035106D02*
X0083003Y0035106D01*
X0083003Y0035361D02*
X0083771Y0035361D01*
X0083771Y0035616D02*
X0083003Y0035616D01*
X0083003Y0035871D02*
X0083771Y0035871D01*
X0083771Y0036126D02*
X0083003Y0036126D01*
X0083003Y0036381D02*
X0083771Y0036381D01*
X0083771Y0036636D02*
X0083003Y0036636D01*
X0083003Y0036891D02*
X0083771Y0036891D01*
X0083771Y0037146D02*
X0083003Y0037146D01*
X0081034Y0037294D02*
X0081034Y0034086D01*
X0081034Y0037294D02*
X0081802Y0037294D01*
X0081802Y0034086D01*
X0081034Y0034086D01*
X0081034Y0034341D02*
X0081802Y0034341D01*
X0081802Y0034596D02*
X0081034Y0034596D01*
X0081034Y0034851D02*
X0081802Y0034851D01*
X0081802Y0035106D02*
X0081034Y0035106D01*
X0081034Y0035361D02*
X0081802Y0035361D01*
X0081802Y0035616D02*
X0081034Y0035616D01*
X0081034Y0035871D02*
X0081802Y0035871D01*
X0081802Y0036126D02*
X0081034Y0036126D01*
X0081034Y0036381D02*
X0081802Y0036381D01*
X0081802Y0036636D02*
X0081034Y0036636D01*
X0081034Y0036891D02*
X0081802Y0036891D01*
X0081802Y0037146D02*
X0081034Y0037146D01*
D18*
X0084765Y0049331D03*
X0092639Y0049331D03*
X0059568Y0020198D03*
X0051694Y0020198D03*
X0021772Y0050119D03*
X0013898Y0050119D03*
D19*
X0043032Y0035158D03*
X0043032Y0027284D03*
M02*
