G75*
%MOIN*%
%OFA0B0*%
%FSLAX25Y25*%
%IPPOS*%
%LPD*%
%AMOC8*
5,1,8,0,0,1.08239X$1,22.5*
%
%ADD10R,0.04790X0.00137*%
%ADD11R,0.05890X0.00137*%
%ADD12R,0.04790X0.00137*%
%ADD13R,0.05890X0.00137*%
%ADD14R,0.04800X0.00137*%
%ADD15R,0.06020X0.00137*%
%ADD16R,0.04930X0.00137*%
%ADD17R,0.06020X0.00137*%
%ADD18R,0.04790X0.00137*%
%ADD19R,0.06030X0.00137*%
%ADD20R,0.04930X0.00137*%
%ADD21R,0.04790X0.00137*%
%ADD22R,0.06030X0.00137*%
%ADD23R,0.04800X0.00137*%
%ADD24R,0.06160X0.00137*%
%ADD25R,0.04940X0.00137*%
%ADD26R,0.04940X0.00137*%
%ADD27R,0.06020X0.00137*%
%ADD28R,0.06020X0.00137*%
%ADD29R,0.76580X0.00137*%
%ADD30R,0.76580X0.00137*%
%ADD31R,0.76440X0.00137*%
%ADD32R,0.76570X0.00137*%
%ADD33R,0.76570X0.00137*%
%ADD34R,0.08630X0.00137*%
%ADD35R,0.03290X0.00137*%
%ADD36R,0.02060X0.00137*%
%ADD37R,0.03700X0.00137*%
%ADD38R,0.04660X0.00137*%
%ADD39R,0.03560X0.00137*%
%ADD40R,0.00550X0.00137*%
%ADD41R,0.00820X0.00137*%
%ADD42R,0.03970X0.00137*%
%ADD43R,0.02050X0.00137*%
%ADD44R,0.01920X0.00137*%
%ADD45R,0.03970X0.00137*%
%ADD46R,0.02060X0.00137*%
%ADD47R,0.04250X0.00137*%
%ADD48R,0.03970X0.00137*%
%ADD49R,0.02200X0.00137*%
%ADD50R,0.00820X0.00137*%
%ADD51R,0.00960X0.00137*%
%ADD52R,0.02190X0.00137*%
%ADD53R,0.02050X0.00137*%
%ADD54R,0.04390X0.00137*%
%ADD55R,0.02190X0.00137*%
%ADD56R,0.04520X0.00137*%
%ADD57R,0.05070X0.00137*%
%ADD58R,0.00960X0.00137*%
%ADD59R,0.04520X0.00137*%
%ADD60R,0.04520X0.00137*%
%ADD61R,0.02190X0.00137*%
%ADD62R,0.05210X0.00137*%
%ADD63R,0.04520X0.00137*%
%ADD64R,0.01230X0.00137*%
%ADD65R,0.04940X0.00137*%
%ADD66R,0.04650X0.00137*%
%ADD67R,0.05340X0.00137*%
%ADD68R,0.01370X0.00137*%
%ADD69R,0.00830X0.00137*%
%ADD70R,0.05070X0.00137*%
%ADD71R,0.05480X0.00137*%
%ADD72R,0.01500X0.00137*%
%ADD73R,0.01920X0.00137*%
%ADD74R,0.05470X0.00137*%
%ADD75R,0.05070X0.00137*%
%ADD76R,0.01780X0.00137*%
%ADD77R,0.00820X0.00137*%
%ADD78R,0.02330X0.00137*%
%ADD79R,0.01920X0.00137*%
%ADD80R,0.05610X0.00137*%
%ADD81R,0.02610X0.00137*%
%ADD82R,0.02190X0.00137*%
%ADD83R,0.02330X0.00137*%
%ADD84R,0.02740X0.00137*%
%ADD85R,0.02470X0.00137*%
%ADD86R,0.06440X0.00137*%
%ADD87R,0.02600X0.00137*%
%ADD88R,0.01910X0.00137*%
%ADD89R,0.06580X0.00137*%
%ADD90R,0.02880X0.00137*%
%ADD91R,0.00830X0.00137*%
%ADD92R,0.06850X0.00137*%
%ADD93R,0.02880X0.00137*%
%ADD94R,0.03020X0.00137*%
%ADD95R,0.06990X0.00137*%
%ADD96R,0.03020X0.00137*%
%ADD97R,0.03290X0.00137*%
%ADD98R,0.06990X0.00137*%
%ADD99R,0.03150X0.00137*%
%ADD100R,0.02200X0.00137*%
%ADD101R,0.01090X0.00137*%
%ADD102R,0.00820X0.00137*%
%ADD103R,0.07260X0.00137*%
%ADD104R,0.03150X0.00137*%
%ADD105R,0.01100X0.00137*%
%ADD106R,0.07260X0.00137*%
%ADD107R,0.03290X0.00137*%
%ADD108R,0.07400X0.00137*%
%ADD109R,0.03010X0.00137*%
%ADD110R,0.07390X0.00137*%
%ADD111R,0.02460X0.00137*%
%ADD112R,0.07390X0.00137*%
%ADD113R,0.02870X0.00137*%
%ADD114R,0.02740X0.00137*%
%ADD115R,0.05750X0.00137*%
%ADD116R,0.06170X0.00137*%
%ADD117R,0.05750X0.00137*%
%ADD118R,0.02870X0.00137*%
%ADD119R,0.02870X0.00137*%
%ADD120R,0.02610X0.00137*%
%ADD121R,0.05760X0.00137*%
%ADD122R,0.07540X0.00137*%
%ADD123R,0.02740X0.00137*%
%ADD124R,0.07670X0.00137*%
%ADD125R,0.03280X0.00137*%
%ADD126R,0.02740X0.00137*%
%ADD127R,0.05620X0.00137*%
%ADD128R,0.07670X0.00137*%
%ADD129R,0.02470X0.00137*%
%ADD130R,0.05620X0.00137*%
%ADD131R,0.05610X0.00137*%
%ADD132R,0.05340X0.00137*%
%ADD133R,0.05200X0.00137*%
%ADD134R,0.05200X0.00137*%
%ADD135R,0.03010X0.00137*%
%ADD136R,0.01920X0.00137*%
%ADD137R,0.04940X0.00137*%
%ADD138R,0.02600X0.00137*%
%ADD139R,0.01780X0.00137*%
%ADD140R,0.04930X0.00136*%
%ADD141R,0.04800X0.00136*%
%ADD142R,0.02060X0.00136*%
%ADD143R,0.02200X0.00136*%
%ADD144R,0.02330X0.00136*%
%ADD145R,0.02050X0.00136*%
%ADD146R,0.01650X0.00136*%
%ADD147R,0.01640X0.00136*%
%ADD148R,0.02190X0.00136*%
%ADD149R,0.06020X0.00136*%
%ADD150R,0.05480X0.00137*%
%ADD151R,0.01510X0.00137*%
%ADD152R,0.01500X0.00137*%
%ADD153R,0.01370X0.00137*%
%ADD154R,0.04660X0.00137*%
%ADD155R,0.01240X0.00137*%
%ADD156R,0.04380X0.00137*%
%ADD157R,0.04250X0.00137*%
%ADD158R,0.05060X0.00137*%
%ADD159R,0.01230X0.00137*%
%ADD160R,0.01240X0.00137*%
%ADD161R,0.04110X0.00137*%
%ADD162R,0.01090X0.00137*%
%ADD163R,0.04240X0.00137*%
%ADD164R,0.03570X0.00137*%
%ADD165R,0.03830X0.00137*%
%ADD166R,0.03570X0.00137*%
%ADD167R,0.13420X0.00137*%
%ADD168R,0.15070X0.00137*%
%ADD169R,0.13280X0.00137*%
%ADD170R,0.15350X0.00137*%
%ADD171R,0.13280X0.00137*%
%ADD172R,0.15210X0.00137*%
%ADD173R,0.13150X0.00137*%
%ADD174R,0.15340X0.00137*%
%ADD175R,0.89860X0.00137*%
%ADD176R,0.89720X0.00137*%
%ADD177R,0.89720X0.00137*%
%ADD178R,0.89590X0.00137*%
%ADD179R,0.89460X0.00137*%
%ADD180R,0.12470X0.00137*%
%ADD181R,0.12470X0.00137*%
%ADD182R,0.15340X0.00137*%
%ADD183R,0.12190X0.00137*%
%ADD184R,0.12060X0.00137*%
%ADD185R,0.15200X0.00137*%
%ADD186R,0.11920X0.00137*%
%ADD187R,0.11370X0.00137*%
%ADD188R,0.15200X0.00137*%
%ADD189C,0.00300*%
%ADD190C,0.00800*%
%ADD191C,0.00787*%
%ADD192C,0.00500*%
D10*
X0021687Y0067666D03*
X0019637Y0072598D03*
X0018537Y0075201D03*
D11*
X0010317Y0075748D03*
X0088817Y0078077D03*
X0092507Y0067940D03*
X0092647Y0067666D03*
D12*
X0021687Y0067803D03*
D13*
X0089357Y0076571D03*
X0090047Y0074653D03*
X0092507Y0067803D03*
D14*
X0075112Y0073009D03*
X0075112Y0073283D03*
X0073332Y0077255D03*
X0050592Y0072598D03*
X0040732Y0073283D03*
X0024292Y0077391D03*
X0018812Y0074516D03*
X0019362Y0073283D03*
X0019772Y0072323D03*
X0021552Y0068077D03*
X0021552Y0067940D03*
D15*
X0012992Y0073694D03*
X0088882Y0077940D03*
X0089292Y0076708D03*
X0092032Y0069173D03*
X0092442Y0068077D03*
D16*
X0021487Y0068214D03*
X0020527Y0070543D03*
X0019837Y0072050D03*
X0019707Y0072461D03*
X0019567Y0072735D03*
X0019427Y0073146D03*
X0019017Y0073968D03*
X0018877Y0074379D03*
X0018747Y0074653D03*
X0018607Y0075064D03*
X0017237Y0078214D03*
D17*
X0088882Y0077803D03*
X0092032Y0069310D03*
X0092442Y0068214D03*
D18*
X0021417Y0068351D03*
X0021277Y0068762D03*
X0020457Y0070680D03*
X0019907Y0071913D03*
X0019497Y0073009D03*
X0018947Y0074241D03*
D19*
X0089017Y0077391D03*
X0089157Y0077255D03*
X0089157Y0076980D03*
X0089427Y0076434D03*
X0089427Y0076297D03*
X0089567Y0076023D03*
X0089837Y0075338D03*
X0089837Y0075201D03*
X0089977Y0074927D03*
X0089977Y0074790D03*
X0090117Y0074516D03*
X0090387Y0073830D03*
X0090387Y0073694D03*
X0090527Y0073420D03*
X0090527Y0073283D03*
X0090797Y0072598D03*
X0090937Y0072323D03*
X0090937Y0072187D03*
X0091487Y0070816D03*
X0091487Y0070680D03*
X0091757Y0069995D03*
X0091757Y0069858D03*
X0091897Y0069584D03*
X0091897Y0069447D03*
X0092167Y0068898D03*
X0092167Y0068762D03*
X0092307Y0068488D03*
X0092307Y0068351D03*
X0089017Y0077666D03*
D20*
X0073537Y0076980D03*
X0055727Y0077255D03*
X0048467Y0077666D03*
X0024357Y0077255D03*
X0019837Y0072187D03*
X0019567Y0072872D03*
X0019157Y0073694D03*
X0019157Y0073830D03*
X0019017Y0074105D03*
X0018747Y0074790D03*
X0018607Y0074927D03*
X0018467Y0075338D03*
X0018337Y0075612D03*
X0018337Y0075748D03*
X0018197Y0076023D03*
X0018057Y0076297D03*
X0018057Y0076434D03*
X0017787Y0076980D03*
X0017647Y0077255D03*
X0017647Y0077391D03*
X0017377Y0077940D03*
X0017377Y0078077D03*
X0020387Y0070816D03*
X0020527Y0070405D03*
X0020797Y0069995D03*
X0020797Y0069858D03*
X0020937Y0069584D03*
X0020937Y0069447D03*
X0021077Y0069173D03*
X0021207Y0068898D03*
X0021347Y0068488D03*
X0009567Y0076297D03*
X0009427Y0076434D03*
X0009157Y0076980D03*
X0009017Y0077255D03*
X0009017Y0077391D03*
D21*
X0017717Y0077118D03*
X0018127Y0076160D03*
X0018267Y0075886D03*
X0020867Y0069721D03*
X0021007Y0069310D03*
X0021277Y0068625D03*
X0040867Y0073146D03*
D22*
X0088747Y0078214D03*
X0089017Y0077529D03*
X0089157Y0077118D03*
X0089567Y0076160D03*
X0089567Y0075886D03*
X0090117Y0074379D03*
X0090387Y0073557D03*
X0090797Y0072735D03*
X0090797Y0072461D03*
X0090937Y0072050D03*
X0091757Y0070132D03*
X0091897Y0069721D03*
X0092307Y0068625D03*
D23*
X0075112Y0073146D03*
X0073472Y0077118D03*
X0021142Y0069036D03*
X0019222Y0073557D03*
X0018402Y0075475D03*
X0017582Y0077529D03*
X0017442Y0077803D03*
D24*
X0092102Y0069036D03*
D25*
X0057512Y0073146D03*
X0020662Y0070132D03*
D26*
X0020662Y0070269D03*
X0017512Y0077666D03*
X0057512Y0073009D03*
D27*
X0089702Y0075612D03*
X0089702Y0075748D03*
X0090252Y0074241D03*
X0090252Y0074105D03*
X0090662Y0073009D03*
X0090662Y0072872D03*
X0091072Y0071913D03*
X0091072Y0071776D03*
X0091622Y0070405D03*
X0091622Y0070269D03*
D28*
X0091622Y0070543D03*
X0090662Y0073146D03*
X0090252Y0073968D03*
X0089702Y0075475D03*
D29*
X0056212Y0070954D03*
X0056072Y0071228D03*
D30*
X0056072Y0071091D03*
D31*
X0056002Y0071365D03*
D32*
X0055937Y0071502D03*
D33*
X0055937Y0071639D03*
D34*
X0021827Y0071776D03*
D35*
X0026417Y0072461D03*
X0063127Y0074653D03*
D36*
X0063332Y0072735D03*
X0063472Y0072461D03*
X0058952Y0073557D03*
X0058952Y0073968D03*
X0058812Y0074379D03*
X0058402Y0075475D03*
X0057992Y0076160D03*
X0055112Y0074379D03*
X0054292Y0076571D03*
X0051142Y0074653D03*
X0051552Y0073557D03*
X0050592Y0075886D03*
X0035662Y0072461D03*
X0035252Y0073557D03*
X0035112Y0073968D03*
X0034292Y0075886D03*
X0033742Y0077118D03*
X0033472Y0077803D03*
X0030592Y0075886D03*
X0031142Y0074653D03*
X0031552Y0073557D03*
X0031962Y0072735D03*
X0032102Y0072461D03*
X0027582Y0073557D03*
X0027582Y0073968D03*
X0027442Y0074379D03*
X0026622Y0076160D03*
X0024292Y0073557D03*
X0022922Y0076571D03*
X0029772Y0077803D03*
X0075252Y0076571D03*
X0076482Y0073557D03*
X0080182Y0074379D03*
X0080732Y0073146D03*
X0079222Y0076571D03*
X0078812Y0077529D03*
X0082372Y0077803D03*
X0082512Y0077529D03*
X0082922Y0076571D03*
X0083742Y0074653D03*
X0083882Y0074379D03*
D37*
X0041692Y0072461D03*
D38*
X0039292Y0077118D03*
X0048472Y0077803D03*
X0050802Y0072461D03*
D39*
X0057782Y0072461D03*
D40*
X0066277Y0072461D03*
D41*
X0068742Y0072735D03*
X0068882Y0072461D03*
D42*
X0072787Y0077803D03*
X0074977Y0072461D03*
D43*
X0075527Y0076160D03*
X0079087Y0077118D03*
X0079497Y0075886D03*
X0080047Y0074653D03*
X0080317Y0073968D03*
X0080867Y0072735D03*
X0081007Y0072461D03*
X0084157Y0073557D03*
X0084017Y0073968D03*
X0084567Y0072735D03*
X0083197Y0075886D03*
X0083057Y0076160D03*
X0082647Y0077118D03*
X0063197Y0073146D03*
X0062787Y0073968D03*
X0062647Y0074379D03*
X0057717Y0076571D03*
X0054427Y0076160D03*
X0051277Y0074379D03*
X0051417Y0073968D03*
X0050457Y0076160D03*
X0050317Y0076571D03*
X0046757Y0076571D03*
X0035387Y0073146D03*
X0034157Y0076160D03*
X0034017Y0076571D03*
X0033607Y0077529D03*
X0031277Y0074379D03*
X0031417Y0073968D03*
X0031827Y0073146D03*
X0030457Y0076160D03*
X0030317Y0076571D03*
X0030047Y0077118D03*
X0029907Y0077529D03*
X0026347Y0076571D03*
D44*
X0078742Y0077803D03*
X0084632Y0072461D03*
D45*
X0055527Y0077666D03*
X0026347Y0072598D03*
D46*
X0027582Y0073694D03*
X0027582Y0073830D03*
X0027442Y0074241D03*
X0026482Y0076434D03*
X0023882Y0074105D03*
X0022922Y0076297D03*
X0022922Y0076434D03*
X0022922Y0076708D03*
X0030182Y0076980D03*
X0030592Y0076023D03*
X0031552Y0073694D03*
X0031962Y0072598D03*
X0035112Y0073830D03*
X0034842Y0074516D03*
X0034702Y0074790D03*
X0033882Y0076708D03*
X0033882Y0076980D03*
X0033742Y0077255D03*
X0033472Y0077666D03*
X0035662Y0072598D03*
X0047992Y0073694D03*
X0050732Y0075612D03*
X0050592Y0076023D03*
X0051142Y0074516D03*
X0051552Y0073694D03*
X0054292Y0076708D03*
X0057852Y0076434D03*
X0057992Y0076297D03*
X0058952Y0073830D03*
X0058952Y0073694D03*
X0058952Y0073420D03*
X0062922Y0073694D03*
X0066622Y0076297D03*
X0076482Y0073830D03*
X0076482Y0073694D03*
X0079362Y0076297D03*
X0079362Y0076434D03*
X0079222Y0076708D03*
X0078952Y0077255D03*
X0078952Y0077391D03*
X0078812Y0077666D03*
X0080592Y0073420D03*
X0080592Y0073283D03*
X0080732Y0073009D03*
X0082922Y0076434D03*
X0083742Y0074516D03*
X0083882Y0074241D03*
X0084292Y0073420D03*
X0084292Y0073283D03*
D47*
X0075117Y0072598D03*
X0041277Y0072598D03*
D48*
X0057717Y0072598D03*
X0024157Y0077666D03*
D49*
X0026552Y0076297D03*
X0027512Y0074105D03*
X0027512Y0073420D03*
X0023812Y0074241D03*
X0023402Y0074927D03*
X0035182Y0073694D03*
X0047512Y0074516D03*
X0047922Y0073830D03*
X0050662Y0075748D03*
X0054772Y0075201D03*
X0055182Y0074241D03*
X0058882Y0074241D03*
X0058882Y0074105D03*
X0062032Y0076023D03*
X0063402Y0072598D03*
X0075182Y0076708D03*
X0076142Y0074927D03*
X0076142Y0074790D03*
D50*
X0068332Y0073694D03*
X0066282Y0072598D03*
D51*
X0068262Y0073830D03*
X0068132Y0074241D03*
X0067992Y0074516D03*
X0068672Y0072872D03*
X0068812Y0072598D03*
X0032922Y0074927D03*
D52*
X0031487Y0073830D03*
X0034637Y0074927D03*
X0027237Y0074927D03*
X0027237Y0074790D03*
X0024087Y0073830D03*
X0023537Y0074790D03*
X0047237Y0075201D03*
X0051487Y0073830D03*
X0054637Y0075338D03*
X0054637Y0075612D03*
X0058337Y0075612D03*
X0066687Y0076023D03*
X0080937Y0072598D03*
D53*
X0080457Y0073694D03*
X0080457Y0073830D03*
X0080317Y0074105D03*
X0080047Y0074790D03*
X0079497Y0076023D03*
X0079087Y0076980D03*
X0075387Y0076434D03*
X0082647Y0077255D03*
X0083057Y0076297D03*
X0083197Y0076023D03*
X0083607Y0074790D03*
X0084017Y0074105D03*
X0084157Y0073694D03*
X0084427Y0073009D03*
X0084427Y0072872D03*
X0084567Y0072598D03*
X0063197Y0073009D03*
X0063057Y0073283D03*
X0063057Y0073420D03*
X0062787Y0074105D03*
X0061827Y0076297D03*
X0058267Y0075748D03*
X0058127Y0076023D03*
X0054427Y0076023D03*
X0051277Y0074241D03*
X0051007Y0074927D03*
X0050867Y0075201D03*
X0050867Y0075338D03*
X0050457Y0076297D03*
X0050317Y0076434D03*
X0051687Y0073420D03*
X0047717Y0074105D03*
X0046897Y0076023D03*
X0046757Y0076708D03*
X0035527Y0073009D03*
X0035527Y0072872D03*
X0035387Y0073283D03*
X0034977Y0074105D03*
X0034977Y0074241D03*
X0034157Y0076023D03*
X0034157Y0076297D03*
X0034017Y0076434D03*
X0033607Y0077391D03*
X0031277Y0074241D03*
X0031417Y0074105D03*
X0031687Y0073420D03*
X0031687Y0073283D03*
X0031827Y0073009D03*
X0030457Y0076297D03*
X0030317Y0076434D03*
X0030317Y0076708D03*
X0030047Y0077255D03*
X0030047Y0077391D03*
X0029907Y0077666D03*
X0026757Y0076023D03*
X0026347Y0076708D03*
X0024157Y0073694D03*
X0023057Y0076023D03*
D54*
X0026277Y0072735D03*
X0057647Y0072735D03*
D55*
X0058747Y0074653D03*
X0058607Y0075064D03*
X0058197Y0075886D03*
X0055727Y0073557D03*
X0055317Y0073968D03*
X0055047Y0074653D03*
X0054497Y0075886D03*
X0050797Y0075475D03*
X0048197Y0073557D03*
X0047377Y0074653D03*
X0047097Y0075475D03*
X0046967Y0075886D03*
X0046827Y0076160D03*
X0035597Y0072735D03*
X0034907Y0074379D03*
X0027377Y0074653D03*
X0026967Y0075475D03*
X0026827Y0075886D03*
X0023947Y0073968D03*
X0023677Y0074379D03*
X0023267Y0075475D03*
X0023127Y0075886D03*
X0061897Y0076160D03*
X0066277Y0074379D03*
X0075727Y0075886D03*
X0075867Y0075475D03*
X0076277Y0074379D03*
X0076417Y0073968D03*
X0079427Y0076160D03*
X0080527Y0073557D03*
D56*
X0041142Y0072735D03*
D57*
X0050457Y0072735D03*
X0009357Y0076571D03*
D58*
X0060592Y0077803D03*
X0066482Y0077803D03*
X0068402Y0073557D03*
X0068542Y0073146D03*
X0066212Y0072735D03*
D59*
X0073062Y0077529D03*
X0075112Y0072735D03*
X0055662Y0077529D03*
D60*
X0041002Y0072872D03*
X0039362Y0076980D03*
X0039222Y0077255D03*
X0026212Y0072872D03*
X0075112Y0072872D03*
D61*
X0076417Y0073420D03*
X0076417Y0074105D03*
X0076417Y0074241D03*
X0076277Y0074516D03*
X0076007Y0075201D03*
X0076007Y0075338D03*
X0075867Y0075612D03*
X0075727Y0075748D03*
X0075597Y0076023D03*
X0075457Y0076297D03*
X0080117Y0074516D03*
X0080247Y0074241D03*
X0080797Y0072872D03*
X0066277Y0074516D03*
X0063267Y0072872D03*
X0062857Y0073830D03*
X0062717Y0074241D03*
X0062577Y0074516D03*
X0058747Y0074516D03*
X0058607Y0074790D03*
X0058607Y0074927D03*
X0058467Y0075201D03*
X0058467Y0075338D03*
X0055867Y0073420D03*
X0055597Y0073694D03*
X0055457Y0073830D03*
X0055317Y0074105D03*
X0055047Y0074516D03*
X0054907Y0074790D03*
X0054907Y0074927D03*
X0054497Y0075748D03*
X0054357Y0076297D03*
X0054357Y0076434D03*
X0051077Y0074790D03*
X0051347Y0074105D03*
X0050247Y0076708D03*
X0046967Y0075748D03*
X0046967Y0075612D03*
X0047097Y0075338D03*
X0047377Y0074790D03*
X0047647Y0074241D03*
X0046827Y0076297D03*
X0046827Y0076434D03*
X0035317Y0073420D03*
X0031897Y0072872D03*
X0031207Y0074516D03*
X0031077Y0074790D03*
X0031077Y0074927D03*
X0027377Y0074516D03*
X0027097Y0075201D03*
X0027097Y0075338D03*
X0026967Y0075612D03*
X0026827Y0075748D03*
X0024357Y0073420D03*
X0023677Y0074516D03*
X0023267Y0075338D03*
X0023127Y0075612D03*
X0023127Y0075748D03*
D62*
X0024497Y0076980D03*
X0026007Y0073283D03*
X0050387Y0072872D03*
X0055867Y0076980D03*
D63*
X0057582Y0072872D03*
X0039082Y0077391D03*
D64*
X0061007Y0077391D03*
X0066207Y0072872D03*
D65*
X0026142Y0073009D03*
X0019292Y0073420D03*
X0017922Y0076708D03*
X0009292Y0076708D03*
D66*
X0040937Y0073009D03*
D67*
X0048402Y0077255D03*
X0050182Y0073009D03*
X0008952Y0078077D03*
D68*
X0061077Y0077255D03*
X0066137Y0073009D03*
D69*
X0068197Y0074105D03*
X0068607Y0073009D03*
D70*
X0055797Y0077118D03*
X0026077Y0073146D03*
X0024427Y0077118D03*
X0009087Y0077118D03*
X0008947Y0077529D03*
X0008947Y0077803D03*
D71*
X0050112Y0073146D03*
D72*
X0061142Y0077118D03*
X0066622Y0077118D03*
X0066072Y0073146D03*
D73*
X0084362Y0073146D03*
D74*
X0049977Y0073283D03*
D75*
X0057447Y0073283D03*
X0008947Y0077666D03*
X0008947Y0077940D03*
D76*
X0061552Y0076708D03*
X0066622Y0076708D03*
X0066072Y0073283D03*
D77*
X0068472Y0073283D03*
X0068472Y0073420D03*
D78*
X0073467Y0074927D03*
X0062237Y0075748D03*
X0048267Y0073420D03*
X0047307Y0074927D03*
X0039497Y0073420D03*
X0023337Y0075201D03*
D79*
X0057652Y0076708D03*
X0066002Y0073420D03*
X0082852Y0076708D03*
D80*
X0032787Y0075064D03*
X0013197Y0073557D03*
D81*
X0039497Y0073557D03*
X0066757Y0075475D03*
D82*
X0066687Y0076160D03*
X0062987Y0073557D03*
X0054637Y0075475D03*
X0050937Y0075064D03*
X0047787Y0073968D03*
X0047237Y0075064D03*
X0027237Y0075064D03*
X0023537Y0074653D03*
X0022987Y0076160D03*
D83*
X0062097Y0075886D03*
X0065937Y0073557D03*
X0066757Y0075886D03*
X0076077Y0075064D03*
X0076207Y0074653D03*
D84*
X0039562Y0073830D03*
X0039562Y0073694D03*
D85*
X0065867Y0073694D03*
D86*
X0012782Y0073830D03*
D87*
X0040592Y0076708D03*
X0062372Y0075612D03*
X0065802Y0073830D03*
D88*
X0061757Y0076434D03*
X0082717Y0076980D03*
X0084087Y0073830D03*
D89*
X0012582Y0073968D03*
D90*
X0039632Y0073968D03*
X0062782Y0075064D03*
X0065802Y0073968D03*
D91*
X0068197Y0073968D03*
D92*
X0012447Y0074105D03*
D93*
X0039632Y0074105D03*
X0040592Y0076297D03*
X0040592Y0076434D03*
X0080322Y0074927D03*
D94*
X0065732Y0074105D03*
D95*
X0012377Y0074241D03*
D96*
X0039702Y0074241D03*
X0062852Y0074927D03*
D97*
X0065727Y0074241D03*
X0040117Y0075201D03*
X0039977Y0074927D03*
D98*
X0012237Y0074379D03*
D99*
X0039767Y0074379D03*
X0040047Y0075064D03*
X0040457Y0075886D03*
X0066757Y0074653D03*
D100*
X0054772Y0075064D03*
X0047512Y0074379D03*
X0034772Y0074653D03*
X0023402Y0075064D03*
D101*
X0064497Y0074379D03*
D102*
X0068062Y0074379D03*
D103*
X0012102Y0074516D03*
D104*
X0039767Y0074516D03*
X0039907Y0074790D03*
X0040187Y0075338D03*
X0040317Y0075612D03*
X0040317Y0075748D03*
X0063057Y0074790D03*
D105*
X0064362Y0074516D03*
X0066552Y0077666D03*
D106*
X0011962Y0074653D03*
D107*
X0039837Y0074653D03*
D108*
X0011892Y0074790D03*
X0011622Y0075201D03*
D109*
X0040527Y0076023D03*
X0066827Y0074927D03*
X0066827Y0074790D03*
D110*
X0011757Y0074927D03*
D111*
X0083402Y0074927D03*
D112*
X0011757Y0075064D03*
D113*
X0066757Y0075064D03*
D114*
X0073262Y0075064D03*
D115*
X0081757Y0075064D03*
X0032577Y0075475D03*
X0009157Y0078214D03*
D116*
X0089907Y0075064D03*
D117*
X0081487Y0075612D03*
X0032717Y0075338D03*
X0032717Y0075201D03*
X0032577Y0075612D03*
D118*
X0062647Y0075201D03*
D119*
X0066757Y0075201D03*
D120*
X0066757Y0075338D03*
X0073197Y0075201D03*
D121*
X0081622Y0075201D03*
X0081622Y0075338D03*
D122*
X0011552Y0075338D03*
D123*
X0062582Y0075338D03*
X0072992Y0075612D03*
X0072992Y0075748D03*
X0073132Y0075338D03*
D124*
X0011487Y0075475D03*
D125*
X0040252Y0075475D03*
D126*
X0062442Y0075475D03*
X0073132Y0075475D03*
D127*
X0081552Y0075475D03*
D128*
X0011347Y0075612D03*
D129*
X0066687Y0075612D03*
X0066687Y0075748D03*
D130*
X0032512Y0075748D03*
D131*
X0081417Y0075748D03*
D132*
X0048402Y0077118D03*
X0010042Y0075886D03*
D133*
X0009842Y0076023D03*
X0048472Y0077391D03*
D134*
X0009702Y0076160D03*
D135*
X0040527Y0076160D03*
D136*
X0066692Y0076434D03*
X0082442Y0077666D03*
X0082582Y0077391D03*
D137*
X0017922Y0076571D03*
D138*
X0040592Y0076571D03*
D139*
X0061552Y0076571D03*
X0066622Y0076571D03*
D140*
X0009157Y0076844D03*
D141*
X0017852Y0076844D03*
D142*
X0022922Y0076844D03*
X0030182Y0076844D03*
X0033882Y0076844D03*
X0050182Y0076844D03*
X0054292Y0076844D03*
X0057582Y0076844D03*
D143*
X0026142Y0076844D03*
D144*
X0040597Y0076844D03*
D145*
X0046757Y0076844D03*
X0079087Y0076844D03*
X0082787Y0076844D03*
D146*
X0061347Y0076844D03*
D147*
X0066692Y0076844D03*
D148*
X0075047Y0076844D03*
D149*
X0089292Y0076844D03*
D150*
X0048472Y0076980D03*
D151*
X0061277Y0076980D03*
D152*
X0066622Y0076980D03*
D153*
X0066557Y0077255D03*
D154*
X0073262Y0077391D03*
X0055732Y0077391D03*
D155*
X0066622Y0077391D03*
D156*
X0024222Y0077529D03*
D157*
X0038947Y0077529D03*
D158*
X0048402Y0077529D03*
D159*
X0060867Y0077529D03*
D160*
X0066622Y0077529D03*
D161*
X0038747Y0077666D03*
D162*
X0060797Y0077666D03*
D163*
X0072922Y0077666D03*
D164*
X0024087Y0077803D03*
D165*
X0038607Y0077803D03*
D166*
X0055457Y0077803D03*
D167*
X0012992Y0078351D03*
D168*
X0088607Y0078351D03*
D169*
X0012922Y0078488D03*
D170*
X0088607Y0078488D03*
D171*
X0012922Y0078625D03*
D172*
X0088127Y0079721D03*
X0088537Y0078625D03*
D173*
X0012857Y0078762D03*
D174*
X0087922Y0080269D03*
X0088472Y0078762D03*
D175*
X0051212Y0078898D03*
D176*
X0051142Y0079036D03*
D177*
X0051142Y0079173D03*
D178*
X0051207Y0079310D03*
D179*
X0051142Y0079447D03*
X0051142Y0079584D03*
D180*
X0012787Y0079721D03*
D181*
X0012787Y0079858D03*
D182*
X0088062Y0079858D03*
X0088062Y0079995D03*
D183*
X0012787Y0079995D03*
D184*
X0012852Y0080132D03*
D185*
X0087992Y0080132D03*
D186*
X0012922Y0080269D03*
D187*
X0013057Y0080405D03*
D188*
X0087852Y0080405D03*
D189*
X0087301Y0068841D02*
X0087301Y0066839D01*
X0086634Y0066172D01*
X0085967Y0066839D01*
X0085300Y0066172D01*
X0084632Y0066839D01*
X0084632Y0068841D01*
X0083342Y0068841D02*
X0083342Y0066839D01*
X0082675Y0066172D01*
X0082007Y0066839D01*
X0081340Y0066172D01*
X0080673Y0066839D01*
X0080673Y0068841D01*
X0079383Y0068841D02*
X0079383Y0066839D01*
X0078715Y0066172D01*
X0078048Y0066839D01*
X0077381Y0066172D01*
X0076714Y0066839D01*
X0076714Y0068841D01*
X0075423Y0066839D02*
X0074756Y0066839D01*
X0074756Y0066172D01*
X0075423Y0066172D01*
X0075423Y0066839D01*
X0073443Y0070175D02*
X0070775Y0070175D01*
X0069484Y0070175D02*
X0069484Y0066172D01*
X0069484Y0068174D02*
X0068817Y0068841D01*
X0067482Y0068841D01*
X0066815Y0068174D01*
X0066815Y0066172D01*
X0065525Y0066839D02*
X0064858Y0066172D01*
X0063523Y0066172D01*
X0062856Y0067506D02*
X0065525Y0067506D01*
X0065525Y0066839D02*
X0065525Y0068174D01*
X0064858Y0068841D01*
X0063523Y0068841D01*
X0062856Y0068174D01*
X0062856Y0067506D01*
X0061565Y0066172D02*
X0061565Y0070175D01*
X0060231Y0068841D01*
X0058896Y0070175D01*
X0058896Y0066172D01*
X0057606Y0066839D02*
X0056939Y0066172D01*
X0055604Y0066172D01*
X0054937Y0066839D01*
X0054937Y0068174D01*
X0055604Y0068841D01*
X0056939Y0068841D01*
X0057606Y0068174D01*
X0057606Y0066839D01*
X0053647Y0066839D02*
X0053647Y0068174D01*
X0052979Y0068841D01*
X0050978Y0068841D01*
X0049687Y0068841D02*
X0049020Y0068174D01*
X0047686Y0068174D01*
X0047018Y0067506D01*
X0047018Y0066839D01*
X0047686Y0066172D01*
X0049020Y0066172D01*
X0049687Y0066839D01*
X0050978Y0066172D02*
X0052979Y0066172D01*
X0053647Y0066839D01*
X0050978Y0066172D02*
X0050978Y0070175D01*
X0049687Y0069508D02*
X0049687Y0068841D01*
X0049687Y0069508D02*
X0049020Y0070175D01*
X0047686Y0070175D01*
X0047018Y0069508D01*
X0045728Y0070175D02*
X0045728Y0066172D01*
X0045728Y0068174D02*
X0045061Y0068841D01*
X0043726Y0068841D01*
X0043059Y0068174D01*
X0043059Y0066172D01*
X0041768Y0066839D02*
X0041101Y0066172D01*
X0039767Y0066172D01*
X0039100Y0066839D01*
X0039100Y0068174D01*
X0039767Y0068841D01*
X0041101Y0068841D01*
X0041768Y0068174D01*
X0041768Y0066839D01*
X0037809Y0066172D02*
X0035807Y0066172D01*
X0035140Y0066839D01*
X0035140Y0068174D01*
X0035807Y0068841D01*
X0037809Y0068841D01*
X0037809Y0064838D01*
X0033850Y0066172D02*
X0033183Y0066172D01*
X0033183Y0066839D01*
X0033850Y0066839D01*
X0033850Y0066172D01*
X0031870Y0066839D02*
X0031203Y0066172D01*
X0029201Y0066172D01*
X0027911Y0066839D02*
X0027243Y0066172D01*
X0025909Y0066172D01*
X0025242Y0066839D01*
X0025242Y0068174D01*
X0025909Y0068841D01*
X0027243Y0068841D01*
X0027911Y0068174D01*
X0027911Y0066839D01*
X0029201Y0068841D02*
X0031203Y0068841D01*
X0031870Y0068174D01*
X0031870Y0066839D01*
X0021622Y0056800D02*
X0021622Y0054331D01*
X0021005Y0053714D01*
X0019771Y0053714D01*
X0019154Y0054331D01*
X0017939Y0055565D02*
X0015471Y0055565D01*
X0016088Y0053714D02*
X0016088Y0057417D01*
X0017939Y0055565D01*
X0019154Y0056800D02*
X0019771Y0057417D01*
X0021005Y0057417D01*
X0021622Y0056800D01*
X0046627Y0032969D02*
X0046627Y0031735D01*
X0047244Y0031117D01*
X0047244Y0029903D02*
X0046627Y0029286D01*
X0046627Y0028051D01*
X0047244Y0027434D01*
X0049713Y0027434D01*
X0050330Y0028051D01*
X0050330Y0029286D01*
X0049713Y0029903D01*
X0049713Y0031117D02*
X0050330Y0031735D01*
X0050330Y0032969D01*
X0049713Y0033586D01*
X0049096Y0033586D01*
X0048479Y0032969D01*
X0047862Y0033586D01*
X0047244Y0033586D01*
X0046627Y0032969D01*
X0048479Y0032969D02*
X0048479Y0032352D01*
X0053375Y0016606D02*
X0054610Y0016606D01*
X0055227Y0015989D01*
X0056441Y0015989D02*
X0057058Y0016606D01*
X0058293Y0016606D01*
X0058910Y0015989D01*
X0058910Y0013520D01*
X0058293Y0012903D01*
X0057058Y0012903D01*
X0056441Y0013520D01*
X0055227Y0012903D02*
X0052758Y0015372D01*
X0052758Y0015989D01*
X0053375Y0016606D01*
X0052758Y0012903D02*
X0055227Y0012903D01*
X0041307Y0013801D02*
X0041307Y0011383D01*
X0040824Y0010899D01*
X0039856Y0010899D01*
X0039373Y0011383D01*
X0039373Y0013801D01*
X0038361Y0013318D02*
X0037877Y0013801D01*
X0036910Y0013801D01*
X0036426Y0013318D01*
X0036426Y0012834D01*
X0038361Y0010899D01*
X0036426Y0010899D01*
X0062410Y0036883D02*
X0064345Y0036883D01*
X0063378Y0036883D02*
X0063378Y0039786D01*
X0064345Y0038818D01*
X0065357Y0039786D02*
X0065357Y0037367D01*
X0065841Y0036883D01*
X0066808Y0036883D01*
X0067292Y0037367D01*
X0067292Y0039786D01*
X0086337Y0052926D02*
X0088805Y0052926D01*
X0087571Y0052926D02*
X0087571Y0056630D01*
X0088805Y0055395D01*
X0090020Y0056012D02*
X0090637Y0056630D01*
X0091871Y0056630D01*
X0092489Y0056012D01*
X0092489Y0053544D01*
X0091871Y0052926D01*
X0090637Y0052926D01*
X0090020Y0053544D01*
X0072109Y0066172D02*
X0072109Y0070175D01*
D190*
X0035461Y0019497D02*
X0009658Y0019497D01*
X0009658Y0033497D01*
X0035461Y0033497D01*
X0035461Y0019497D01*
D191*
X0067107Y0023269D02*
X0067109Y0023308D01*
X0067115Y0023347D01*
X0067125Y0023385D01*
X0067138Y0023422D01*
X0067155Y0023457D01*
X0067175Y0023491D01*
X0067199Y0023522D01*
X0067226Y0023551D01*
X0067255Y0023577D01*
X0067287Y0023600D01*
X0067321Y0023620D01*
X0067357Y0023636D01*
X0067394Y0023648D01*
X0067433Y0023657D01*
X0067472Y0023662D01*
X0067511Y0023663D01*
X0067550Y0023660D01*
X0067589Y0023653D01*
X0067626Y0023642D01*
X0067663Y0023628D01*
X0067698Y0023610D01*
X0067731Y0023589D01*
X0067762Y0023564D01*
X0067790Y0023537D01*
X0067815Y0023507D01*
X0067837Y0023474D01*
X0067856Y0023440D01*
X0067871Y0023404D01*
X0067883Y0023366D01*
X0067891Y0023328D01*
X0067895Y0023289D01*
X0067895Y0023249D01*
X0067891Y0023210D01*
X0067883Y0023172D01*
X0067871Y0023134D01*
X0067856Y0023098D01*
X0067837Y0023064D01*
X0067815Y0023031D01*
X0067790Y0023001D01*
X0067762Y0022974D01*
X0067731Y0022949D01*
X0067698Y0022928D01*
X0067663Y0022910D01*
X0067626Y0022896D01*
X0067589Y0022885D01*
X0067550Y0022878D01*
X0067511Y0022875D01*
X0067472Y0022876D01*
X0067433Y0022881D01*
X0067394Y0022890D01*
X0067357Y0022902D01*
X0067321Y0022918D01*
X0067287Y0022938D01*
X0067255Y0022961D01*
X0067226Y0022987D01*
X0067199Y0023016D01*
X0067175Y0023047D01*
X0067155Y0023081D01*
X0067138Y0023116D01*
X0067125Y0023153D01*
X0067115Y0023191D01*
X0067109Y0023230D01*
X0067107Y0023269D01*
D192*
X0070591Y0021576D02*
X0070591Y0020198D01*
X0071969Y0020198D01*
X0070591Y0034568D02*
X0070591Y0035946D01*
X0071969Y0035946D01*
X0084961Y0035946D02*
X0086339Y0035946D01*
X0086339Y0034568D01*
X0086339Y0021576D02*
X0086339Y0020198D01*
X0084961Y0020198D01*
M02*
