%
M48
M72
T01C0.0138
%
T01
X4067Y1705
X5531Y3882
X6193Y4382
X6259Y2907
X7582Y2805
X7583Y2547
X7847Y2547
X7845Y2805
X8107Y2805
X8109Y2547
X8111Y3069
X7849Y3069
X7585Y3069
X8552Y1649
X8921Y1950
X9421Y917
X8713Y6193
X8240Y7610
X8713Y8791
X7764Y9452
X6619Y8236
X6508Y8791
X6272Y10602
X4941Y9287
X2807Y10760
X1469Y7768
X2255Y7056
X4172Y4513
M30
