G75*
%MOIN*%
%OFA0B0*%
%FSLAX25Y25*%
%IPPOS*%
%LPD*%
%AMOC8*
5,1,8,0,0,1.08239X$1,22.5*
%
%ADD10C,0.01200*%
%ADD11C,0.00400*%
%ADD12C,0.00600*%
%ADD13C,0.00300*%
D10*
X0012324Y0011536D02*
X0012326Y0011592D01*
X0012332Y0011647D01*
X0012342Y0011701D01*
X0012355Y0011755D01*
X0012373Y0011808D01*
X0012394Y0011859D01*
X0012418Y0011909D01*
X0012446Y0011957D01*
X0012478Y0012003D01*
X0012512Y0012047D01*
X0012550Y0012088D01*
X0012590Y0012126D01*
X0012633Y0012161D01*
X0012678Y0012193D01*
X0012726Y0012222D01*
X0012775Y0012248D01*
X0012826Y0012270D01*
X0012878Y0012288D01*
X0012932Y0012302D01*
X0012987Y0012313D01*
X0013042Y0012320D01*
X0013097Y0012323D01*
X0013153Y0012322D01*
X0013208Y0012317D01*
X0013263Y0012308D01*
X0013317Y0012296D01*
X0013370Y0012279D01*
X0013422Y0012259D01*
X0013472Y0012235D01*
X0013520Y0012208D01*
X0013567Y0012178D01*
X0013611Y0012144D01*
X0013653Y0012107D01*
X0013691Y0012067D01*
X0013728Y0012025D01*
X0013761Y0011980D01*
X0013790Y0011934D01*
X0013817Y0011885D01*
X0013839Y0011834D01*
X0013859Y0011782D01*
X0013874Y0011728D01*
X0013886Y0011674D01*
X0013894Y0011619D01*
X0013898Y0011564D01*
X0013898Y0011508D01*
X0013894Y0011453D01*
X0013886Y0011398D01*
X0013874Y0011344D01*
X0013859Y0011290D01*
X0013839Y0011238D01*
X0013817Y0011187D01*
X0013790Y0011138D01*
X0013761Y0011092D01*
X0013728Y0011047D01*
X0013691Y0011005D01*
X0013653Y0010965D01*
X0013611Y0010928D01*
X0013567Y0010894D01*
X0013520Y0010864D01*
X0013472Y0010837D01*
X0013422Y0010813D01*
X0013370Y0010793D01*
X0013317Y0010776D01*
X0013263Y0010764D01*
X0013208Y0010755D01*
X0013153Y0010750D01*
X0013097Y0010749D01*
X0013042Y0010752D01*
X0012987Y0010759D01*
X0012932Y0010770D01*
X0012878Y0010784D01*
X0012826Y0010802D01*
X0012775Y0010824D01*
X0012726Y0010850D01*
X0012678Y0010879D01*
X0012633Y0010911D01*
X0012590Y0010946D01*
X0012550Y0010984D01*
X0012512Y0011025D01*
X0012478Y0011069D01*
X0012446Y0011115D01*
X0012418Y0011163D01*
X0012394Y0011213D01*
X0012373Y0011264D01*
X0012355Y0011317D01*
X0012342Y0011371D01*
X0012332Y0011425D01*
X0012326Y0011480D01*
X0012324Y0011536D01*
X0016937Y0086645D02*
X0015702Y0087879D01*
X0016937Y0086645D02*
X0019405Y0086645D01*
X0020640Y0087879D01*
X0020640Y0089114D01*
X0019405Y0090348D01*
X0016937Y0090348D01*
X0015702Y0091582D01*
X0015702Y0092817D01*
X0016937Y0094051D01*
X0019405Y0094051D01*
X0020640Y0092817D01*
X0023621Y0094051D02*
X0027324Y0094051D01*
X0028559Y0092817D01*
X0028559Y0087879D01*
X0027324Y0086645D01*
X0023621Y0086645D01*
X0023621Y0094051D01*
X0039459Y0094051D02*
X0044396Y0094051D01*
X0041927Y0094051D02*
X0041927Y0086645D01*
X0047377Y0087879D02*
X0048612Y0086645D01*
X0051081Y0086645D01*
X0052315Y0087879D01*
X0052315Y0090348D01*
X0051081Y0091582D01*
X0048612Y0091582D01*
X0047377Y0090348D01*
X0047377Y0087879D01*
X0055296Y0087879D02*
X0056531Y0086645D01*
X0058999Y0086645D01*
X0060234Y0087879D01*
X0060234Y0090348D01*
X0058999Y0091582D01*
X0056531Y0091582D01*
X0055296Y0090348D01*
X0055296Y0087879D01*
X0063215Y0086645D02*
X0065684Y0086645D01*
X0064449Y0086645D02*
X0064449Y0094051D01*
X0063215Y0094051D01*
X0076413Y0094051D02*
X0076413Y0086645D01*
X0081350Y0086645D02*
X0076413Y0094051D01*
X0081350Y0094051D02*
X0081350Y0086645D01*
X0084332Y0086645D02*
X0089269Y0094051D01*
X0084332Y0094051D02*
X0089269Y0086645D01*
D11*
X0082868Y0082931D02*
X0082101Y0083699D01*
X0080566Y0083699D01*
X0079799Y0082931D01*
X0078264Y0082931D02*
X0077497Y0083699D01*
X0075962Y0083699D01*
X0075195Y0082931D01*
X0075195Y0082164D01*
X0075962Y0081397D01*
X0078264Y0081397D01*
X0078264Y0082931D02*
X0078264Y0079862D01*
X0077497Y0079095D01*
X0075962Y0079095D01*
X0075195Y0079862D01*
X0073660Y0079862D02*
X0072893Y0079095D01*
X0071358Y0079095D01*
X0070591Y0079862D01*
X0069057Y0079862D02*
X0069057Y0080630D01*
X0068289Y0081397D01*
X0066755Y0081397D01*
X0065987Y0082164D01*
X0065987Y0082931D01*
X0066755Y0083699D01*
X0068289Y0083699D01*
X0069057Y0082931D01*
X0069057Y0082164D01*
X0068289Y0081397D01*
X0066755Y0081397D02*
X0065987Y0080630D01*
X0065987Y0079862D01*
X0066755Y0079095D01*
X0068289Y0079095D01*
X0069057Y0079862D01*
X0070591Y0081397D02*
X0072126Y0082164D01*
X0072893Y0082164D01*
X0073660Y0081397D01*
X0073660Y0079862D01*
X0070591Y0081397D02*
X0070591Y0083699D01*
X0073660Y0083699D01*
X0079799Y0079095D02*
X0082868Y0082164D01*
X0082868Y0082931D01*
X0082868Y0079095D02*
X0079799Y0079095D01*
X0064453Y0079095D02*
X0061383Y0079095D01*
X0059849Y0079095D02*
X0059081Y0079862D01*
X0059081Y0082931D01*
X0058314Y0082164D02*
X0059849Y0082164D01*
X0061383Y0082164D02*
X0062918Y0083699D01*
X0062918Y0079095D01*
X0056779Y0079095D02*
X0056779Y0081397D01*
X0056012Y0082164D01*
X0053710Y0082164D01*
X0053710Y0079095D01*
X0052175Y0080630D02*
X0049106Y0080630D01*
X0049106Y0081397D02*
X0049874Y0082164D01*
X0051408Y0082164D01*
X0052175Y0081397D01*
X0052175Y0080630D01*
X0051408Y0079095D02*
X0049874Y0079095D01*
X0049106Y0079862D01*
X0049106Y0081397D01*
X0047572Y0081397D02*
X0047572Y0079095D01*
X0046037Y0079095D02*
X0046037Y0081397D01*
X0046804Y0082164D01*
X0047572Y0081397D01*
X0046037Y0081397D02*
X0045270Y0082164D01*
X0044502Y0082164D01*
X0044502Y0079095D01*
X0042968Y0080630D02*
X0039898Y0080630D01*
X0039898Y0081397D02*
X0040666Y0082164D01*
X0042200Y0082164D01*
X0042968Y0081397D01*
X0042968Y0080630D01*
X0042200Y0079095D02*
X0040666Y0079095D01*
X0039898Y0079862D01*
X0039898Y0081397D01*
X0038364Y0079095D02*
X0036829Y0079095D01*
X0037596Y0079095D02*
X0037596Y0083699D01*
X0036829Y0083699D01*
X0035294Y0083699D02*
X0032225Y0083699D01*
X0032225Y0079095D01*
X0035294Y0079095D01*
X0033760Y0081397D02*
X0032225Y0081397D01*
X0026087Y0081397D02*
X0025319Y0081397D01*
X0025319Y0082164D01*
X0026087Y0082164D01*
X0026087Y0081397D01*
X0026087Y0079862D02*
X0025319Y0079862D01*
X0025319Y0079095D01*
X0026087Y0079095D01*
X0026087Y0079862D01*
X0023785Y0079095D02*
X0021483Y0079095D01*
X0020715Y0079862D01*
X0020715Y0082164D01*
X0019181Y0082164D02*
X0018413Y0081397D01*
X0016111Y0081397D01*
X0016111Y0079095D02*
X0016111Y0083699D01*
X0018413Y0083699D01*
X0019181Y0082931D01*
X0019181Y0082164D01*
X0018413Y0081397D02*
X0019181Y0080630D01*
X0019181Y0079862D01*
X0018413Y0079095D01*
X0016111Y0079095D01*
X0022250Y0077560D02*
X0023017Y0077560D01*
X0023785Y0078328D01*
X0023785Y0082164D01*
D12*
X0026497Y0065206D02*
X0026497Y0053269D01*
X0028737Y0049636D02*
X0030434Y0049331D01*
X0030434Y0049332D02*
X0030544Y0049330D01*
X0030654Y0049324D01*
X0030763Y0049315D01*
X0030872Y0049301D01*
X0030981Y0049284D01*
X0031089Y0049263D01*
X0031196Y0049238D01*
X0031302Y0049210D01*
X0031407Y0049178D01*
X0031511Y0049142D01*
X0031614Y0049103D01*
X0031715Y0049060D01*
X0031815Y0049013D01*
X0031913Y0048963D01*
X0032009Y0048910D01*
X0032103Y0048853D01*
X0032195Y0048793D01*
X0032286Y0048730D01*
X0032373Y0048664D01*
X0032459Y0048595D01*
X0032542Y0048523D01*
X0032622Y0048448D01*
X0032700Y0048370D01*
X0032775Y0048290D01*
X0032847Y0048207D01*
X0032916Y0048121D01*
X0032982Y0048034D01*
X0033045Y0047943D01*
X0033105Y0047851D01*
X0033162Y0047757D01*
X0033215Y0047661D01*
X0033265Y0047563D01*
X0033312Y0047463D01*
X0033355Y0047362D01*
X0033394Y0047259D01*
X0033430Y0047155D01*
X0033462Y0047050D01*
X0033490Y0046944D01*
X0033515Y0046837D01*
X0033536Y0046729D01*
X0033553Y0046620D01*
X0033567Y0046511D01*
X0033576Y0046402D01*
X0033582Y0046292D01*
X0033584Y0046182D01*
X0033583Y0046182D02*
X0033583Y0005237D01*
X0028737Y0049636D02*
X0028624Y0049708D01*
X0028513Y0049784D01*
X0028405Y0049862D01*
X0028298Y0049943D01*
X0028194Y0050028D01*
X0028092Y0050115D01*
X0027993Y0050205D01*
X0027896Y0050298D01*
X0027802Y0050394D01*
X0027711Y0050492D01*
X0027622Y0050593D01*
X0027537Y0050696D01*
X0027454Y0050801D01*
X0027374Y0050909D01*
X0027297Y0051019D01*
X0027224Y0051131D01*
X0027154Y0051245D01*
X0027086Y0051361D01*
X0027023Y0051479D01*
X0026962Y0051599D01*
X0026905Y0051720D01*
X0026851Y0051843D01*
X0026801Y0051967D01*
X0026754Y0052093D01*
X0026711Y0052220D01*
X0026671Y0052348D01*
X0026635Y0052477D01*
X0026603Y0052607D01*
X0026574Y0052738D01*
X0026549Y0052870D01*
X0026528Y0053003D01*
X0026511Y0053136D01*
X0026497Y0053269D01*
X0072954Y0065080D02*
X0072954Y0033583D01*
X0072953Y0033583D02*
X0072955Y0033506D01*
X0072961Y0033429D01*
X0072970Y0033352D01*
X0072983Y0033276D01*
X0073000Y0033200D01*
X0073021Y0033126D01*
X0073045Y0033052D01*
X0073073Y0032980D01*
X0073104Y0032910D01*
X0073139Y0032841D01*
X0073177Y0032773D01*
X0073218Y0032708D01*
X0073263Y0032645D01*
X0073311Y0032584D01*
X0073361Y0032525D01*
X0073414Y0032469D01*
X0073470Y0032416D01*
X0073529Y0032366D01*
X0073590Y0032318D01*
X0073653Y0032273D01*
X0073718Y0032232D01*
X0073786Y0032194D01*
X0073855Y0032159D01*
X0073925Y0032128D01*
X0073997Y0032100D01*
X0074071Y0032076D01*
X0074145Y0032055D01*
X0074221Y0032038D01*
X0074297Y0032025D01*
X0074374Y0032016D01*
X0074451Y0032010D01*
X0074528Y0032008D01*
X0074528Y0032009D02*
X0087914Y0032009D01*
X0088024Y0032007D01*
X0088134Y0032001D01*
X0088243Y0031992D01*
X0088352Y0031978D01*
X0088461Y0031961D01*
X0088569Y0031940D01*
X0088676Y0031915D01*
X0088782Y0031887D01*
X0088887Y0031855D01*
X0088991Y0031819D01*
X0089094Y0031780D01*
X0089195Y0031737D01*
X0089295Y0031690D01*
X0089393Y0031640D01*
X0089489Y0031587D01*
X0089583Y0031530D01*
X0089675Y0031470D01*
X0089766Y0031407D01*
X0089853Y0031341D01*
X0089939Y0031272D01*
X0090022Y0031200D01*
X0090102Y0031125D01*
X0090180Y0031047D01*
X0090255Y0030967D01*
X0090327Y0030884D01*
X0090396Y0030798D01*
X0090462Y0030711D01*
X0090525Y0030620D01*
X0090585Y0030528D01*
X0090642Y0030434D01*
X0090695Y0030338D01*
X0090745Y0030240D01*
X0090792Y0030140D01*
X0090835Y0030039D01*
X0090874Y0029936D01*
X0090910Y0029832D01*
X0090942Y0029727D01*
X0090970Y0029621D01*
X0090995Y0029514D01*
X0091016Y0029406D01*
X0091033Y0029297D01*
X0091047Y0029188D01*
X0091056Y0029079D01*
X0091062Y0028969D01*
X0091064Y0028859D01*
X0091064Y0005237D01*
D13*
X0068964Y0052229D02*
X0067874Y0052229D01*
X0068964Y0052229D02*
X0069043Y0052231D01*
X0069121Y0052236D01*
X0069199Y0052246D01*
X0069276Y0052259D01*
X0069353Y0052276D01*
X0069429Y0052296D01*
X0069504Y0052320D01*
X0069577Y0052347D01*
X0069649Y0052378D01*
X0069720Y0052412D01*
X0069789Y0052450D01*
X0069856Y0052491D01*
X0069921Y0052535D01*
X0069984Y0052582D01*
X0070045Y0052632D01*
X0070103Y0052685D01*
X0070158Y0052740D01*
X0070211Y0052798D01*
X0070261Y0052859D01*
X0070308Y0052922D01*
X0070352Y0052987D01*
X0070393Y0053054D01*
X0070431Y0053123D01*
X0070465Y0053194D01*
X0070496Y0053266D01*
X0070523Y0053339D01*
X0070547Y0053414D01*
X0070567Y0053490D01*
X0070584Y0053567D01*
X0070597Y0053644D01*
X0070607Y0053722D01*
X0070612Y0053800D01*
X0070614Y0053879D01*
X0070614Y0063253D01*
X0070609Y0063728D02*
X0070609Y0054354D01*
X0070609Y0063728D02*
X0070607Y0063807D01*
X0070602Y0063885D01*
X0070592Y0063963D01*
X0070579Y0064040D01*
X0070562Y0064117D01*
X0070542Y0064193D01*
X0070518Y0064268D01*
X0070491Y0064341D01*
X0070460Y0064413D01*
X0070426Y0064484D01*
X0070388Y0064553D01*
X0070347Y0064620D01*
X0070303Y0064685D01*
X0070256Y0064748D01*
X0070206Y0064809D01*
X0070153Y0064867D01*
X0070098Y0064922D01*
X0070040Y0064975D01*
X0069979Y0065025D01*
X0069916Y0065072D01*
X0069851Y0065116D01*
X0069784Y0065157D01*
X0069715Y0065195D01*
X0069644Y0065229D01*
X0069572Y0065260D01*
X0069499Y0065287D01*
X0069424Y0065311D01*
X0069348Y0065331D01*
X0069271Y0065348D01*
X0069194Y0065361D01*
X0069116Y0065371D01*
X0069038Y0065376D01*
X0068959Y0065378D01*
X0067869Y0065378D01*
X0052001Y0059774D02*
X0052001Y0059290D01*
X0051517Y0058807D01*
X0052001Y0058323D01*
X0052001Y0057839D01*
X0051517Y0057356D01*
X0050550Y0057356D01*
X0050066Y0057839D01*
X0049054Y0057839D02*
X0049054Y0060258D01*
X0050066Y0059774D02*
X0050550Y0060258D01*
X0051517Y0060258D01*
X0052001Y0059774D01*
X0051517Y0058807D02*
X0051033Y0058807D01*
X0049054Y0057839D02*
X0048571Y0057356D01*
X0047603Y0057356D01*
X0047119Y0057839D01*
X0047119Y0060258D01*
X0031290Y0065325D02*
X0030201Y0065325D01*
X0030201Y0065324D02*
X0030122Y0065322D01*
X0030044Y0065317D01*
X0029966Y0065307D01*
X0029889Y0065294D01*
X0029812Y0065277D01*
X0029736Y0065257D01*
X0029661Y0065233D01*
X0029588Y0065206D01*
X0029516Y0065175D01*
X0029445Y0065141D01*
X0029376Y0065103D01*
X0029309Y0065062D01*
X0029244Y0065018D01*
X0029181Y0064971D01*
X0029120Y0064921D01*
X0029062Y0064868D01*
X0029007Y0064813D01*
X0028954Y0064755D01*
X0028904Y0064694D01*
X0028857Y0064631D01*
X0028813Y0064566D01*
X0028772Y0064499D01*
X0028734Y0064430D01*
X0028700Y0064359D01*
X0028669Y0064287D01*
X0028642Y0064214D01*
X0028618Y0064139D01*
X0028598Y0064063D01*
X0028581Y0063986D01*
X0028568Y0063909D01*
X0028558Y0063831D01*
X0028553Y0063753D01*
X0028551Y0063674D01*
X0028551Y0054301D01*
X0028556Y0053826D02*
X0028556Y0063200D01*
X0028556Y0053826D02*
X0028558Y0053747D01*
X0028563Y0053669D01*
X0028573Y0053591D01*
X0028586Y0053514D01*
X0028603Y0053437D01*
X0028623Y0053361D01*
X0028647Y0053286D01*
X0028674Y0053213D01*
X0028705Y0053141D01*
X0028739Y0053070D01*
X0028777Y0053001D01*
X0028818Y0052934D01*
X0028862Y0052869D01*
X0028909Y0052806D01*
X0028959Y0052745D01*
X0029012Y0052687D01*
X0029067Y0052632D01*
X0029125Y0052579D01*
X0029186Y0052529D01*
X0029249Y0052482D01*
X0029314Y0052438D01*
X0029381Y0052397D01*
X0029450Y0052359D01*
X0029521Y0052325D01*
X0029593Y0052294D01*
X0029666Y0052267D01*
X0029741Y0052243D01*
X0029817Y0052223D01*
X0029894Y0052206D01*
X0029971Y0052193D01*
X0030049Y0052183D01*
X0030127Y0052178D01*
X0030206Y0052176D01*
X0031295Y0052176D01*
X0020709Y0035915D02*
X0020709Y0032212D01*
X0021943Y0032212D02*
X0019474Y0032212D01*
X0018260Y0032212D02*
X0017025Y0033447D01*
X0017643Y0033447D02*
X0015791Y0033447D01*
X0015791Y0032212D02*
X0015791Y0035915D01*
X0017643Y0035915D01*
X0018260Y0035298D01*
X0018260Y0034064D01*
X0017643Y0033447D01*
X0019474Y0034681D02*
X0020709Y0035915D01*
X0020709Y0024104D02*
X0020709Y0020401D01*
X0021943Y0020401D02*
X0019474Y0020401D01*
X0018260Y0020401D02*
X0015791Y0020401D01*
X0015791Y0024104D01*
X0019474Y0022870D02*
X0020709Y0024104D01*
M02*
